<?xml version="1.0" encoding="utf-8"?>
<svg xmlns="http://www.w3.org/2000/svg" xmlns:xlink="http://www.w3.org/1999/xlink" width="900" height="600" viewBox="0 0 3600 2400">
<defs>
  <clipPath id="clip800">
    <rect x="0" y="0" width="3600" height="2400"/>
  </clipPath>
</defs>
<path clip-path="url(#clip800)" d="M0 2400 L3600 2400 L3600 0 L0 0  Z" fill="#ffffff" fill-rule="evenodd" fill-opacity="1"/>
<defs>
  <clipPath id="clip801">
    <rect x="720" y="0" width="2521" height="2400"/>
  </clipPath>
</defs>
<path clip-path="url(#clip800)" d="M231.866 2215.18 L3552.76 2215.18 L3552.76 47.2441 L231.866 47.2441  Z" fill="#ffffff" fill-rule="evenodd" fill-opacity="1"/>
<defs>
  <clipPath id="clip802">
    <rect x="231" y="47" width="3322" height="2169"/>
  </clipPath>
</defs>
<polyline clip-path="url(#clip800)" style="stroke:#000000; stroke-linecap:round; stroke-linejoin:round; stroke-width:4; stroke-opacity:1; fill:none" points="231.866,2215.18 3552.76,2215.18 "/>
<polyline clip-path="url(#clip800)" style="stroke:#000000; stroke-linecap:round; stroke-linejoin:round; stroke-width:4; stroke-opacity:1; fill:none" points="325.854,2215.18 325.854,2196.28 "/>
<polyline clip-path="url(#clip800)" style="stroke:#000000; stroke-linecap:round; stroke-linejoin:round; stroke-width:4; stroke-opacity:1; fill:none" points="1109.08,2215.18 1109.08,2196.28 "/>
<polyline clip-path="url(#clip800)" style="stroke:#000000; stroke-linecap:round; stroke-linejoin:round; stroke-width:4; stroke-opacity:1; fill:none" points="1892.31,2215.18 1892.31,2196.28 "/>
<polyline clip-path="url(#clip800)" style="stroke:#000000; stroke-linecap:round; stroke-linejoin:round; stroke-width:4; stroke-opacity:1; fill:none" points="2675.54,2215.18 2675.54,2196.28 "/>
<polyline clip-path="url(#clip800)" style="stroke:#000000; stroke-linecap:round; stroke-linejoin:round; stroke-width:4; stroke-opacity:1; fill:none" points="3458.77,2215.18 3458.77,2196.28 "/>
<path clip-path="url(#clip800)" d="M293.504 2283.24 L301.143 2283.24 L301.143 2256.88 L292.833 2258.55 L292.833 2254.29 L301.097 2252.62 L305.773 2252.62 L305.773 2283.24 L313.412 2283.24 L313.412 2287.18 L293.504 2287.18 L293.504 2283.24 Z" fill="#000000" fill-rule="nonzero" fill-opacity="1" /><path clip-path="url(#clip800)" d="M322.856 2281.3 L327.74 2281.3 L327.74 2287.18 L322.856 2287.18 L322.856 2281.3 Z" fill="#000000" fill-rule="nonzero" fill-opacity="1" /><path clip-path="url(#clip800)" d="M337.972 2252.62 L356.328 2252.62 L356.328 2256.56 L342.254 2256.56 L342.254 2265.03 Q343.273 2264.68 344.291 2264.52 Q345.31 2264.33 346.328 2264.33 Q352.115 2264.33 355.495 2267.5 Q358.874 2270.68 358.874 2276.09 Q358.874 2281.67 355.402 2284.77 Q351.93 2287.85 345.611 2287.85 Q343.435 2287.85 341.166 2287.48 Q338.921 2287.11 336.513 2286.37 L336.513 2281.67 Q338.597 2282.8 340.819 2283.36 Q343.041 2283.92 345.518 2283.92 Q349.523 2283.92 351.861 2281.81 Q354.198 2279.7 354.198 2276.09 Q354.198 2272.48 351.861 2270.37 Q349.523 2268.27 345.518 2268.27 Q343.643 2268.27 341.768 2268.68 Q339.916 2269.1 337.972 2269.98 L337.972 2252.62 Z" fill="#000000" fill-rule="nonzero" fill-opacity="1" /><path clip-path="url(#clip800)" d="M1080.32 2283.24 L1096.64 2283.24 L1096.64 2287.18 L1074.7 2287.18 L1074.7 2283.24 Q1077.36 2280.49 1081.94 2275.86 Q1086.55 2271.21 1087.73 2269.87 Q1089.97 2267.34 1090.85 2265.61 Q1091.76 2263.85 1091.76 2262.16 Q1091.76 2259.4 1089.81 2257.67 Q1087.89 2255.93 1084.79 2255.93 Q1082.59 2255.93 1080.14 2256.69 Q1077.71 2257.46 1074.93 2259.01 L1074.93 2254.29 Q1077.75 2253.15 1080.21 2252.57 Q1082.66 2251.99 1084.7 2251.99 Q1090.07 2251.99 1093.26 2254.68 Q1096.46 2257.37 1096.46 2261.86 Q1096.46 2263.99 1095.64 2265.91 Q1094.86 2267.8 1092.75 2270.4 Q1092.17 2271.07 1089.07 2274.29 Q1085.97 2277.48 1080.32 2283.24 Z" fill="#000000" fill-rule="nonzero" fill-opacity="1" /><path clip-path="url(#clip800)" d="M1106.46 2281.3 L1111.34 2281.3 L1111.34 2287.18 L1106.46 2287.18 L1106.46 2281.3 Z" fill="#000000" fill-rule="nonzero" fill-opacity="1" /><path clip-path="url(#clip800)" d="M1131.52 2255.7 Q1127.91 2255.7 1126.08 2259.26 Q1124.28 2262.8 1124.28 2269.93 Q1124.28 2277.04 1126.08 2280.61 Q1127.91 2284.15 1131.52 2284.15 Q1135.16 2284.15 1136.96 2280.61 Q1138.79 2277.04 1138.79 2269.93 Q1138.79 2262.8 1136.96 2259.26 Q1135.16 2255.7 1131.52 2255.7 M1131.52 2251.99 Q1137.33 2251.99 1140.39 2256.6 Q1143.47 2261.18 1143.47 2269.93 Q1143.47 2278.66 1140.39 2283.27 Q1137.33 2287.85 1131.52 2287.85 Q1125.71 2287.85 1122.64 2283.27 Q1119.58 2278.66 1119.58 2269.93 Q1119.58 2261.18 1122.64 2256.6 Q1125.71 2251.99 1131.52 2251.99 Z" fill="#000000" fill-rule="nonzero" fill-opacity="1" /><path clip-path="url(#clip800)" d="M1864.05 2283.24 L1880.37 2283.24 L1880.37 2287.18 L1858.42 2287.18 L1858.42 2283.24 Q1861.08 2280.49 1865.67 2275.86 Q1870.27 2271.21 1871.45 2269.87 Q1873.7 2267.34 1874.58 2265.61 Q1875.48 2263.85 1875.48 2262.16 Q1875.48 2259.4 1873.54 2257.67 Q1871.62 2255.93 1868.51 2255.93 Q1866.32 2255.93 1863.86 2256.69 Q1861.43 2257.46 1858.65 2259.01 L1858.65 2254.29 Q1861.48 2253.15 1863.93 2252.57 Q1866.39 2251.99 1868.42 2251.99 Q1873.79 2251.99 1876.99 2254.68 Q1880.18 2257.37 1880.18 2261.86 Q1880.18 2263.99 1879.37 2265.91 Q1878.58 2267.8 1876.48 2270.4 Q1875.9 2271.07 1872.8 2274.29 Q1869.7 2277.48 1864.05 2283.24 Z" fill="#000000" fill-rule="nonzero" fill-opacity="1" /><path clip-path="url(#clip800)" d="M1890.18 2281.3 L1895.07 2281.3 L1895.07 2287.18 L1890.18 2287.18 L1890.18 2281.3 Z" fill="#000000" fill-rule="nonzero" fill-opacity="1" /><path clip-path="url(#clip800)" d="M1905.3 2252.62 L1923.65 2252.62 L1923.65 2256.56 L1909.58 2256.56 L1909.58 2265.03 Q1910.6 2264.68 1911.62 2264.52 Q1912.64 2264.33 1913.65 2264.33 Q1919.44 2264.33 1922.82 2267.5 Q1926.2 2270.68 1926.2 2276.09 Q1926.2 2281.67 1922.73 2284.77 Q1919.26 2287.85 1912.94 2287.85 Q1910.76 2287.85 1908.49 2287.48 Q1906.25 2287.11 1903.84 2286.37 L1903.84 2281.67 Q1905.92 2282.8 1908.14 2283.36 Q1910.37 2283.92 1912.84 2283.92 Q1916.85 2283.92 1919.19 2281.81 Q1921.52 2279.7 1921.52 2276.09 Q1921.52 2272.48 1919.19 2270.37 Q1916.85 2268.27 1912.84 2268.27 Q1910.97 2268.27 1909.09 2268.68 Q1907.24 2269.1 1905.3 2269.98 L1905.3 2252.62 Z" fill="#000000" fill-rule="nonzero" fill-opacity="1" /><path clip-path="url(#clip800)" d="M2656.85 2268.55 Q2660.2 2269.26 2662.08 2271.53 Q2663.98 2273.8 2663.98 2277.13 Q2663.98 2282.25 2660.46 2285.05 Q2656.94 2287.85 2650.46 2287.85 Q2648.28 2287.85 2645.97 2287.41 Q2643.68 2286.99 2641.22 2286.14 L2641.22 2281.62 Q2643.17 2282.76 2645.48 2283.34 Q2647.8 2283.92 2650.32 2283.92 Q2654.72 2283.92 2657.01 2282.18 Q2659.32 2280.44 2659.32 2277.13 Q2659.32 2274.08 2657.17 2272.37 Q2655.04 2270.63 2651.22 2270.63 L2647.2 2270.63 L2647.2 2266.79 L2651.41 2266.79 Q2654.86 2266.79 2656.69 2265.42 Q2658.51 2264.03 2658.51 2261.44 Q2658.51 2258.78 2656.62 2257.37 Q2654.74 2255.93 2651.22 2255.93 Q2649.3 2255.93 2647.1 2256.35 Q2644.9 2256.76 2642.26 2257.64 L2642.26 2253.48 Q2644.93 2252.74 2647.24 2252.37 Q2649.58 2251.99 2651.64 2251.99 Q2656.96 2251.99 2660.07 2254.43 Q2663.17 2256.83 2663.17 2260.95 Q2663.17 2263.82 2661.52 2265.81 Q2659.88 2267.78 2656.85 2268.55 Z" fill="#000000" fill-rule="nonzero" fill-opacity="1" /><path clip-path="url(#clip800)" d="M2672.84 2281.3 L2677.73 2281.3 L2677.73 2287.18 L2672.84 2287.18 L2672.84 2281.3 Z" fill="#000000" fill-rule="nonzero" fill-opacity="1" /><path clip-path="url(#clip800)" d="M2697.91 2255.7 Q2694.3 2255.7 2692.47 2259.26 Q2690.67 2262.8 2690.67 2269.93 Q2690.67 2277.04 2692.47 2280.61 Q2694.3 2284.15 2697.91 2284.15 Q2701.55 2284.15 2703.35 2280.61 Q2705.18 2277.04 2705.18 2269.93 Q2705.18 2262.8 2703.35 2259.26 Q2701.55 2255.7 2697.91 2255.7 M2697.91 2251.99 Q2703.72 2251.99 2706.78 2256.6 Q2709.86 2261.18 2709.86 2269.93 Q2709.86 2278.66 2706.78 2283.27 Q2703.72 2287.85 2697.91 2287.85 Q2692.1 2287.85 2689.02 2283.27 Q2685.97 2278.66 2685.97 2269.93 Q2685.97 2261.18 2689.02 2256.6 Q2692.1 2251.99 2697.91 2251.99 Z" fill="#000000" fill-rule="nonzero" fill-opacity="1" /><path clip-path="url(#clip800)" d="M3440.57 2268.55 Q3443.93 2269.26 3445.81 2271.53 Q3447.7 2273.8 3447.7 2277.13 Q3447.7 2282.25 3444.19 2285.05 Q3440.67 2287.85 3434.19 2287.85 Q3432.01 2287.85 3429.69 2287.41 Q3427.4 2286.99 3424.95 2286.14 L3424.95 2281.62 Q3426.89 2282.76 3429.21 2283.34 Q3431.52 2283.92 3434.05 2283.92 Q3438.44 2283.92 3440.74 2282.18 Q3443.05 2280.44 3443.05 2277.13 Q3443.05 2274.08 3440.9 2272.37 Q3438.77 2270.63 3434.95 2270.63 L3430.92 2270.63 L3430.92 2266.79 L3435.13 2266.79 Q3438.58 2266.79 3440.41 2265.42 Q3442.24 2264.03 3442.24 2261.44 Q3442.24 2258.78 3440.34 2257.37 Q3438.47 2255.93 3434.95 2255.93 Q3433.03 2255.93 3430.83 2256.35 Q3428.63 2256.76 3425.99 2257.64 L3425.99 2253.48 Q3428.65 2252.74 3430.97 2252.37 Q3433.31 2251.99 3435.37 2251.99 Q3440.69 2251.99 3443.79 2254.43 Q3446.89 2256.83 3446.89 2260.95 Q3446.89 2263.82 3445.25 2265.81 Q3443.61 2267.78 3440.57 2268.55 Z" fill="#000000" fill-rule="nonzero" fill-opacity="1" /><path clip-path="url(#clip800)" d="M3456.57 2281.3 L3461.45 2281.3 L3461.45 2287.18 L3456.57 2287.18 L3456.57 2281.3 Z" fill="#000000" fill-rule="nonzero" fill-opacity="1" /><path clip-path="url(#clip800)" d="M3471.69 2252.62 L3490.04 2252.62 L3490.04 2256.56 L3475.97 2256.56 L3475.97 2265.03 Q3476.99 2264.68 3478 2264.52 Q3479.02 2264.33 3480.04 2264.33 Q3485.83 2264.33 3489.21 2267.5 Q3492.59 2270.68 3492.59 2276.09 Q3492.59 2281.67 3489.12 2284.77 Q3485.64 2287.85 3479.32 2287.85 Q3477.15 2287.85 3474.88 2287.48 Q3472.63 2287.11 3470.23 2286.37 L3470.23 2281.67 Q3472.31 2282.8 3474.53 2283.36 Q3476.75 2283.92 3479.23 2283.92 Q3483.24 2283.92 3485.57 2281.81 Q3487.91 2279.7 3487.91 2276.09 Q3487.91 2272.48 3485.57 2270.37 Q3483.24 2268.27 3479.23 2268.27 Q3477.36 2268.27 3475.48 2268.68 Q3473.63 2269.1 3471.69 2269.98 L3471.69 2252.62 Z" fill="#000000" fill-rule="nonzero" fill-opacity="1" /><path clip-path="url(#clip800)" d="M1918.1 2327.7 Q1918.1 2328.32 1917.97 2328.83 L1916.17 2340.3 Q1916.07 2341.17 1915.88 2341.49 Q1915.72 2341.81 1915.2 2341.81 Q1914.4 2341.81 1914.4 2340.97 Q1914.4 2340.49 1914.59 2339.72 Q1915.14 2336.08 1915.14 2334.44 Q1915.14 2333.34 1914.91 2332.54 Q1914.72 2331.7 1914.4 2331.12 Q1914.11 2330.54 1913.43 2330.15 Q1912.75 2329.77 1912.11 2329.54 Q1911.47 2329.31 1910.31 2329.22 Q1909.15 2329.09 1908.15 2329.06 Q1907.15 2329.03 1905.51 2329.03 Q1901.93 2329.03 1901.35 2329.15 Q1900.74 2329.31 1900.42 2329.8 Q1900.13 2330.25 1899.81 2331.6 L1891.05 2366.61 L1890.79 2367.99 Q1890.79 2368.77 1891.27 2369.02 Q1891.76 2369.28 1893.24 2369.44 Q1895.36 2369.6 1897.46 2369.6 Q1897.52 2369.6 1897.65 2369.6 Q1898.36 2369.6 1898.65 2369.64 Q1898.94 2369.64 1899.23 2369.7 Q1899.52 2369.77 1899.58 2369.93 Q1899.68 2370.06 1899.68 2370.31 Q1899.68 2370.92 1899.42 2371.25 Q1899.16 2371.54 1898.91 2371.6 Q1898.68 2371.63 1898.23 2371.63 Q1897.33 2371.63 1895.4 2371.57 Q1893.46 2371.5 1892.5 2371.5 L1887.02 2371.44 L1881.42 2371.5 Q1880.55 2371.5 1878.71 2371.57 Q1876.88 2371.63 1876.01 2371.63 Q1874.88 2371.63 1874.88 2370.83 Q1874.88 2369.93 1875.3 2369.77 Q1875.75 2369.6 1877.65 2369.6 Q1880.32 2369.6 1881.77 2369.48 Q1883.22 2369.35 1883.99 2368.9 Q1884.8 2368.45 1885.03 2367.99 Q1885.25 2367.51 1885.51 2366.42 L1894.37 2331.22 Q1894.62 2330.44 1894.62 2329.83 Q1894.62 2329.51 1894.53 2329.38 Q1894.46 2329.25 1894.04 2329.15 Q1893.62 2329.03 1892.75 2329.03 L1890.18 2329.03 Q1887.54 2329.03 1885.89 2329.15 Q1884.28 2329.25 1882.74 2329.73 Q1881.23 2330.22 1880.32 2330.89 Q1879.45 2331.57 1878.49 2332.95 Q1877.52 2334.34 1876.81 2336.01 Q1876.14 2337.69 1875.17 2340.43 Q1874.85 2341.33 1874.66 2341.59 Q1874.49 2341.81 1874.04 2341.81 Q1873.72 2341.81 1873.46 2341.62 Q1873.24 2341.39 1873.24 2341.1 Q1873.56 2340.04 1873.62 2339.91 L1877.59 2328.28 Q1877.91 2327.35 1878.2 2327.19 Q1878.52 2327 1879.71 2327 L1916.3 2327 Q1916.88 2327 1917.07 2327 Q1917.26 2327 1917.59 2327.06 Q1917.91 2327.12 1918 2327.29 Q1918.1 2327.45 1918.1 2327.7 Z" fill="#000000" fill-rule="nonzero" fill-opacity="1" /><polyline clip-path="url(#clip800)" style="stroke:#000000; stroke-linecap:round; stroke-linejoin:round; stroke-width:4; stroke-opacity:1; fill:none" points="231.866,2215.18 231.866,47.2441 "/>
<polyline clip-path="url(#clip800)" style="stroke:#000000; stroke-linecap:round; stroke-linejoin:round; stroke-width:4; stroke-opacity:1; fill:none" points="231.866,2213.68 250.764,2213.68 "/>
<polyline clip-path="url(#clip800)" style="stroke:#000000; stroke-linecap:round; stroke-linejoin:round; stroke-width:4; stroke-opacity:1; fill:none" points="231.866,1897.87 250.764,1897.87 "/>
<polyline clip-path="url(#clip800)" style="stroke:#000000; stroke-linecap:round; stroke-linejoin:round; stroke-width:4; stroke-opacity:1; fill:none" points="231.866,1582.06 250.764,1582.06 "/>
<polyline clip-path="url(#clip800)" style="stroke:#000000; stroke-linecap:round; stroke-linejoin:round; stroke-width:4; stroke-opacity:1; fill:none" points="231.866,1266.26 250.764,1266.26 "/>
<polyline clip-path="url(#clip800)" style="stroke:#000000; stroke-linecap:round; stroke-linejoin:round; stroke-width:4; stroke-opacity:1; fill:none" points="231.866,950.451 250.764,950.451 "/>
<polyline clip-path="url(#clip800)" style="stroke:#000000; stroke-linecap:round; stroke-linejoin:round; stroke-width:4; stroke-opacity:1; fill:none" points="231.866,634.644 250.764,634.644 "/>
<polyline clip-path="url(#clip800)" style="stroke:#000000; stroke-linecap:round; stroke-linejoin:round; stroke-width:4; stroke-opacity:1; fill:none" points="231.866,318.837 250.764,318.837 "/>
<path clip-path="url(#clip800)" d="M120.691 2199.48 Q117.08 2199.48 115.251 2203.04 Q113.445 2206.58 113.445 2213.71 Q113.445 2220.82 115.251 2224.38 Q117.08 2227.92 120.691 2227.92 Q124.325 2227.92 126.13 2224.38 Q127.959 2220.82 127.959 2213.71 Q127.959 2206.58 126.13 2203.04 Q124.325 2199.48 120.691 2199.48 M120.691 2195.77 Q126.501 2195.77 129.556 2200.38 Q132.635 2204.96 132.635 2213.71 Q132.635 2222.44 129.556 2227.05 Q126.501 2231.63 120.691 2231.63 Q114.88 2231.63 111.802 2227.05 Q108.746 2222.44 108.746 2213.71 Q108.746 2204.96 111.802 2200.38 Q114.88 2195.77 120.691 2195.77 Z" fill="#000000" fill-rule="nonzero" fill-opacity="1" /><path clip-path="url(#clip800)" d="M140.853 2225.08 L145.737 2225.08 L145.737 2230.96 L140.853 2230.96 L140.853 2225.08 Z" fill="#000000" fill-rule="nonzero" fill-opacity="1" /><path clip-path="url(#clip800)" d="M165.922 2199.48 Q162.311 2199.48 160.482 2203.04 Q158.677 2206.58 158.677 2213.71 Q158.677 2220.82 160.482 2224.38 Q162.311 2227.92 165.922 2227.92 Q169.556 2227.92 171.362 2224.38 Q173.19 2220.82 173.19 2213.71 Q173.19 2206.58 171.362 2203.04 Q169.556 2199.48 165.922 2199.48 M165.922 2195.77 Q171.732 2195.77 174.788 2200.38 Q177.866 2204.96 177.866 2213.71 Q177.866 2222.44 174.788 2227.05 Q171.732 2231.63 165.922 2231.63 Q160.112 2231.63 157.033 2227.05 Q153.978 2222.44 153.978 2213.71 Q153.978 2204.96 157.033 2200.38 Q160.112 2195.77 165.922 2195.77 Z" fill="#000000" fill-rule="nonzero" fill-opacity="1" /><path clip-path="url(#clip800)" d="M121.917 1883.67 Q118.306 1883.67 116.478 1887.23 Q114.672 1890.78 114.672 1897.91 Q114.672 1905.01 116.478 1908.58 Q118.306 1912.12 121.917 1912.12 Q125.552 1912.12 127.357 1908.58 Q129.186 1905.01 129.186 1897.91 Q129.186 1890.78 127.357 1887.23 Q125.552 1883.67 121.917 1883.67 M121.917 1879.97 Q127.728 1879.97 130.783 1884.57 Q133.862 1889.16 133.862 1897.91 Q133.862 1906.63 130.783 1911.24 Q127.728 1915.82 121.917 1915.82 Q116.107 1915.82 113.029 1911.24 Q109.973 1906.63 109.973 1897.91 Q109.973 1889.16 113.029 1884.57 Q116.107 1879.97 121.917 1879.97 Z" fill="#000000" fill-rule="nonzero" fill-opacity="1" /><path clip-path="url(#clip800)" d="M142.079 1909.27 L146.964 1909.27 L146.964 1915.15 L142.079 1915.15 L142.079 1909.27 Z" fill="#000000" fill-rule="nonzero" fill-opacity="1" /><path clip-path="url(#clip800)" d="M157.959 1911.22 L165.598 1911.22 L165.598 1884.85 L157.288 1886.52 L157.288 1882.26 L165.552 1880.59 L170.227 1880.59 L170.227 1911.22 L177.866 1911.22 L177.866 1915.15 L157.959 1915.15 L157.959 1911.22 Z" fill="#000000" fill-rule="nonzero" fill-opacity="1" /><path clip-path="url(#clip800)" d="M122.288 1567.86 Q118.677 1567.86 116.848 1571.43 Q115.043 1574.97 115.043 1582.1 Q115.043 1589.21 116.848 1592.77 Q118.677 1596.31 122.288 1596.31 Q125.922 1596.31 127.728 1592.77 Q129.556 1589.21 129.556 1582.1 Q129.556 1574.97 127.728 1571.43 Q125.922 1567.86 122.288 1567.86 M122.288 1564.16 Q128.098 1564.16 131.154 1568.77 Q134.232 1573.35 134.232 1582.1 Q134.232 1590.83 131.154 1595.43 Q128.098 1600.02 122.288 1600.02 Q116.478 1600.02 113.399 1595.43 Q110.343 1590.83 110.343 1582.1 Q110.343 1573.35 113.399 1568.77 Q116.478 1564.16 122.288 1564.16 Z" fill="#000000" fill-rule="nonzero" fill-opacity="1" /><path clip-path="url(#clip800)" d="M142.45 1593.46 L147.334 1593.46 L147.334 1599.34 L142.45 1599.34 L142.45 1593.46 Z" fill="#000000" fill-rule="nonzero" fill-opacity="1" /><path clip-path="url(#clip800)" d="M161.547 1595.41 L177.866 1595.41 L177.866 1599.34 L155.922 1599.34 L155.922 1595.41 Q158.584 1592.65 163.167 1588.02 Q167.774 1583.37 168.954 1582.03 Q171.2 1579.51 172.079 1577.77 Q172.982 1576.01 172.982 1574.32 Q172.982 1571.57 171.038 1569.83 Q169.116 1568.09 166.014 1568.09 Q163.815 1568.09 161.362 1568.86 Q158.931 1569.62 156.153 1571.17 L156.153 1566.45 Q158.977 1565.32 161.431 1564.74 Q163.885 1564.16 165.922 1564.16 Q171.292 1564.16 174.487 1566.84 Q177.681 1569.53 177.681 1574.02 Q177.681 1576.15 176.871 1578.07 Q176.084 1579.97 173.977 1582.56 Q173.399 1583.23 170.297 1586.45 Q167.195 1589.64 161.547 1595.41 Z" fill="#000000" fill-rule="nonzero" fill-opacity="1" /><path clip-path="url(#clip800)" d="M121.339 1252.06 Q117.728 1252.06 115.899 1255.62 Q114.093 1259.16 114.093 1266.29 Q114.093 1273.4 115.899 1276.96 Q117.728 1280.5 121.339 1280.5 Q124.973 1280.5 126.779 1276.96 Q128.607 1273.4 128.607 1266.29 Q128.607 1259.16 126.779 1255.62 Q124.973 1252.06 121.339 1252.06 M121.339 1248.35 Q127.149 1248.35 130.204 1252.96 Q133.283 1257.54 133.283 1266.29 Q133.283 1275.02 130.204 1279.63 Q127.149 1284.21 121.339 1284.21 Q115.529 1284.21 112.45 1279.63 Q109.394 1275.02 109.394 1266.29 Q109.394 1257.54 112.45 1252.96 Q115.529 1248.35 121.339 1248.35 Z" fill="#000000" fill-rule="nonzero" fill-opacity="1" /><path clip-path="url(#clip800)" d="M141.501 1277.66 L146.385 1277.66 L146.385 1283.54 L141.501 1283.54 L141.501 1277.66 Z" fill="#000000" fill-rule="nonzero" fill-opacity="1" /><path clip-path="url(#clip800)" d="M170.737 1264.9 Q174.093 1265.62 175.968 1267.89 Q177.866 1270.16 177.866 1273.49 Q177.866 1278.61 174.348 1281.41 Q170.829 1284.21 164.348 1284.21 Q162.172 1284.21 159.857 1283.77 Q157.565 1283.35 155.112 1282.5 L155.112 1277.98 Q157.056 1279.12 159.371 1279.69 Q161.686 1280.27 164.209 1280.27 Q168.607 1280.27 170.899 1278.54 Q173.214 1276.8 173.214 1273.49 Q173.214 1270.44 171.061 1268.72 Q168.931 1266.99 165.112 1266.99 L161.084 1266.99 L161.084 1263.14 L165.297 1263.14 Q168.746 1263.14 170.575 1261.78 Q172.403 1260.39 172.403 1257.8 Q172.403 1255.13 170.505 1253.72 Q168.63 1252.29 165.112 1252.29 Q163.19 1252.29 160.991 1252.7 Q158.792 1253.12 156.153 1254 L156.153 1249.83 Q158.815 1249.09 161.13 1248.72 Q163.468 1248.35 165.528 1248.35 Q170.852 1248.35 173.954 1250.78 Q177.056 1253.19 177.056 1257.31 Q177.056 1260.18 175.413 1262.17 Q173.769 1264.14 170.737 1264.9 Z" fill="#000000" fill-rule="nonzero" fill-opacity="1" /><path clip-path="url(#clip800)" d="M120.205 936.249 Q116.593 936.249 114.765 939.814 Q112.959 943.356 112.959 950.485 Q112.959 957.592 114.765 961.157 Q116.593 964.698 120.205 964.698 Q123.839 964.698 125.644 961.157 Q127.473 957.592 127.473 950.485 Q127.473 943.356 125.644 939.814 Q123.839 936.249 120.205 936.249 M120.205 932.546 Q126.015 932.546 129.07 937.152 Q132.149 941.735 132.149 950.485 Q132.149 959.212 129.07 963.819 Q126.015 968.402 120.205 968.402 Q114.394 968.402 111.316 963.819 Q108.26 959.212 108.26 950.485 Q108.26 941.735 111.316 937.152 Q114.394 932.546 120.205 932.546 Z" fill="#000000" fill-rule="nonzero" fill-opacity="1" /><path clip-path="url(#clip800)" d="M140.366 961.851 L145.251 961.851 L145.251 967.731 L140.366 967.731 L140.366 961.851 Z" fill="#000000" fill-rule="nonzero" fill-opacity="1" /><path clip-path="url(#clip800)" d="M168.283 937.245 L156.477 955.694 L168.283 955.694 L168.283 937.245 M167.056 933.171 L172.936 933.171 L172.936 955.694 L177.866 955.694 L177.866 959.582 L172.936 959.582 L172.936 967.731 L168.283 967.731 L168.283 959.582 L152.681 959.582 L152.681 955.069 L167.056 933.171 Z" fill="#000000" fill-rule="nonzero" fill-opacity="1" /><path clip-path="url(#clip800)" d="M121.686 620.443 Q118.075 620.443 116.246 624.007 Q114.441 627.549 114.441 634.679 Q114.441 641.785 116.246 645.35 Q118.075 648.892 121.686 648.892 Q125.32 648.892 127.126 645.35 Q128.954 641.785 128.954 634.679 Q128.954 627.549 127.126 624.007 Q125.32 620.443 121.686 620.443 M121.686 616.739 Q127.496 616.739 130.552 621.345 Q133.63 625.929 133.63 634.679 Q133.63 643.405 130.552 648.012 Q127.496 652.595 121.686 652.595 Q115.876 652.595 112.797 648.012 Q109.742 643.405 109.742 634.679 Q109.742 625.929 112.797 621.345 Q115.876 616.739 121.686 616.739 Z" fill="#000000" fill-rule="nonzero" fill-opacity="1" /><path clip-path="url(#clip800)" d="M141.848 646.044 L146.732 646.044 L146.732 651.924 L141.848 651.924 L141.848 646.044 Z" fill="#000000" fill-rule="nonzero" fill-opacity="1" /><path clip-path="url(#clip800)" d="M156.964 617.364 L175.32 617.364 L175.32 621.299 L161.246 621.299 L161.246 629.771 Q162.264 629.424 163.283 629.262 Q164.302 629.077 165.32 629.077 Q171.107 629.077 174.487 632.248 Q177.866 635.419 177.866 640.836 Q177.866 646.415 174.394 649.517 Q170.922 652.595 164.602 652.595 Q162.427 652.595 160.158 652.225 Q157.913 651.854 155.505 651.114 L155.505 646.415 Q157.589 647.549 159.811 648.104 Q162.033 648.66 164.51 648.66 Q168.514 648.66 170.852 646.554 Q173.19 644.447 173.19 640.836 Q173.19 637.225 170.852 635.118 Q168.514 633.012 164.51 633.012 Q162.635 633.012 160.76 633.429 Q158.908 633.845 156.964 634.725 L156.964 617.364 Z" fill="#000000" fill-rule="nonzero" fill-opacity="1" /><path clip-path="url(#clip800)" d="M120.529 304.636 Q116.918 304.636 115.089 308.201 Q113.283 311.742 113.283 318.872 Q113.283 325.978 115.089 329.543 Q116.918 333.085 120.529 333.085 Q124.163 333.085 125.968 329.543 Q127.797 325.978 127.797 318.872 Q127.797 311.742 125.968 308.201 Q124.163 304.636 120.529 304.636 M120.529 300.932 Q126.339 300.932 129.394 305.539 Q132.473 310.122 132.473 318.872 Q132.473 327.599 129.394 332.205 Q126.339 336.789 120.529 336.789 Q114.718 336.789 111.64 332.205 Q108.584 327.599 108.584 318.872 Q108.584 310.122 111.64 305.539 Q114.718 300.932 120.529 300.932 Z" fill="#000000" fill-rule="nonzero" fill-opacity="1" /><path clip-path="url(#clip800)" d="M140.691 330.238 L145.575 330.238 L145.575 336.117 L140.691 336.117 L140.691 330.238 Z" fill="#000000" fill-rule="nonzero" fill-opacity="1" /><path clip-path="url(#clip800)" d="M166.339 316.974 Q163.19 316.974 161.339 319.127 Q159.51 321.279 159.51 325.029 Q159.51 328.756 161.339 330.932 Q163.19 333.085 166.339 333.085 Q169.487 333.085 171.315 330.932 Q173.167 328.756 173.167 325.029 Q173.167 321.279 171.315 319.127 Q169.487 316.974 166.339 316.974 M175.621 302.321 L175.621 306.58 Q173.862 305.747 172.056 305.307 Q170.274 304.867 168.514 304.867 Q163.885 304.867 161.431 307.992 Q159.001 311.117 158.653 317.437 Q160.019 315.423 162.079 314.358 Q164.139 313.27 166.616 313.27 Q171.825 313.27 174.834 316.441 Q177.866 319.59 177.866 325.029 Q177.866 330.353 174.718 333.571 Q171.57 336.789 166.339 336.789 Q160.343 336.789 157.172 332.205 Q154.001 327.599 154.001 318.872 Q154.001 310.678 157.89 305.816 Q161.778 300.932 168.329 300.932 Q170.089 300.932 171.871 301.279 Q173.676 301.627 175.621 302.321 Z" fill="#000000" fill-rule="nonzero" fill-opacity="1" /><path clip-path="url(#clip800)" d="M24.6521 1429.09 L42.0623 1429.09 L42.0623 1418.78 Q42.0623 1413.59 39.9298 1411.11 Q37.7654 1408.6 33.3413 1408.6 Q28.8853 1408.6 26.7846 1411.11 Q24.6521 1413.59 24.6521 1418.78 L24.6521 1429.09 M5.10935 1429.09 L19.4322 1429.09 L19.4322 1419.58 Q19.4322 1414.87 17.6816 1412.57 Q15.8992 1410.25 12.2708 1410.25 Q8.67415 1410.25 6.89175 1412.57 Q5.10935 1414.87 5.10935 1419.58 L5.10935 1429.09 M-0.174186 1435.52 L-0.174186 1419.1 Q-0.174186 1411.75 2.88135 1407.77 Q5.93689 1403.79 11.5705 1403.79 Q15.9311 1403.79 18.5092 1405.83 Q21.0873 1407.86 21.7238 1411.81 Q22.7424 1407.07 25.9889 1404.46 Q29.2035 1401.82 34.0415 1401.82 Q40.4072 1401.82 43.8765 1406.15 Q47.3458 1410.47 47.3458 1418.46 L47.3458 1435.52 L-0.174186 1435.52 Z" fill="#000000" fill-rule="nonzero" fill-opacity="1" /><path clip-path="url(#clip800)" d="M11.6979 1391.06 L11.6979 1385.2 L47.3458 1385.2 L47.3458 1391.06 L11.6979 1391.06 M-2.17938 1391.06 L-2.17938 1385.2 L5.23666 1385.2 L5.23666 1391.06 L-2.17938 1391.06 Z" fill="#000000" fill-rule="nonzero" fill-opacity="1" /><path clip-path="url(#clip800)" d="M25.8297 1343.32 L47.3458 1343.32 L47.3458 1349.17 L26.0207 1349.17 Q20.96 1349.17 18.4455 1351.15 Q15.9311 1353.12 15.9311 1357.07 Q15.9311 1361.81 18.9548 1364.55 Q21.9785 1367.28 27.1984 1367.28 L47.3458 1367.28 L47.3458 1373.17 L11.6979 1373.17 L11.6979 1367.28 L17.236 1367.28 Q14.0213 1365.18 12.4299 1362.35 Q10.8385 1359.48 10.8385 1355.76 Q10.8385 1349.62 14.6579 1346.47 Q18.4455 1343.32 25.8297 1343.32 Z" fill="#000000" fill-rule="nonzero" fill-opacity="1" /><path clip-path="url(#clip800)" d="M17.1087 1308.18 L-2.17938 1308.18 L-2.17938 1302.32 L47.3458 1302.32 L47.3458 1308.18 L41.9986 1308.18 Q45.1815 1310.02 46.7411 1312.86 Q48.2688 1315.66 48.2688 1319.6 Q48.2688 1326.06 43.1126 1330.14 Q37.9564 1334.18 29.5537 1334.18 Q21.1509 1334.18 15.9947 1330.14 Q10.8385 1326.06 10.8385 1319.6 Q10.8385 1315.66 12.3981 1312.86 Q13.9259 1310.02 17.1087 1308.18 M29.5537 1328.13 Q36.0149 1328.13 39.707 1325.49 Q43.3672 1322.82 43.3672 1318.17 Q43.3672 1313.52 39.707 1310.85 Q36.0149 1308.18 29.5537 1308.18 Q23.0925 1308.18 19.4322 1310.85 Q15.7401 1313.52 15.7401 1318.17 Q15.7401 1322.82 19.4322 1325.49 Q23.0925 1328.13 29.5537 1328.13 Z" fill="#000000" fill-rule="nonzero" fill-opacity="1" /><path clip-path="url(#clip800)" d="M28.0577 1259.77 L30.9223 1259.77 L30.9223 1286.69 Q36.9697 1286.31 40.1526 1283.06 Q43.3036 1279.79 43.3036 1273.96 Q43.3036 1270.59 42.476 1267.44 Q41.6485 1264.25 39.9934 1261.13 L45.5316 1261.13 Q46.8684 1264.29 47.5686 1267.6 Q48.2688 1270.91 48.2688 1274.31 Q48.2688 1282.84 43.3036 1287.84 Q38.3383 1292.8 29.8719 1292.8 Q21.1191 1292.8 15.9947 1288.09 Q10.8385 1283.35 10.8385 1275.33 Q10.8385 1268.14 15.4855 1263.97 Q20.1006 1259.77 28.0577 1259.77 M26.339 1265.62 Q21.5329 1265.69 18.6683 1268.33 Q15.8037 1270.94 15.8037 1275.27 Q15.8037 1280.17 18.5728 1283.13 Q21.3419 1286.06 26.3708 1286.5 L26.339 1265.62 Z" fill="#000000" fill-rule="nonzero" fill-opacity="1" /><path clip-path="url(#clip800)" d="M17.1724 1229.5 Q16.5995 1230.48 16.3448 1231.66 Q16.0584 1232.81 16.0584 1234.21 Q16.0584 1239.17 19.3049 1241.85 Q22.5196 1244.49 28.567 1244.49 L47.3458 1244.49 L47.3458 1250.38 L11.6979 1250.38 L11.6979 1244.49 L17.236 1244.49 Q13.9895 1242.64 12.4299 1239.68 Q10.8385 1236.72 10.8385 1232.49 Q10.8385 1231.88 10.934 1231.15 Q10.9976 1230.42 11.1568 1229.53 L17.1724 1229.5 Z" fill="#000000" fill-rule="nonzero" fill-opacity="1" /><path clip-path="url(#clip800)" d="M3.4861 1166.79 L10.2656 1166.79 Q7.24186 1170.04 5.74592 1173.73 Q4.24998 1177.39 4.24998 1181.53 Q4.24998 1189.68 9.24706 1194.01 Q14.2123 1198.34 23.6336 1198.34 Q33.023 1198.34 38.0201 1194.01 Q42.9853 1189.68 42.9853 1181.53 Q42.9853 1177.39 41.4894 1173.73 Q39.9934 1170.04 36.9697 1166.79 L43.6855 1166.79 Q45.9772 1170.17 47.123 1173.96 Q48.2688 1177.71 48.2688 1181.91 Q48.2688 1192.7 41.6803 1198.91 Q35.06 1205.12 23.6336 1205.12 Q12.1753 1205.12 5.58678 1198.91 Q-1.03356 1192.7 -1.03356 1181.91 Q-1.03356 1177.65 0.112271 1173.89 Q1.22627 1170.1 3.4861 1166.79 Z" fill="#000000" fill-rule="nonzero" fill-opacity="1" /><path clip-path="url(#clip800)" d="M33.2776 1157.72 L11.6979 1157.72 L11.6979 1151.87 L33.0548 1151.87 Q38.1155 1151.87 40.6618 1149.89 Q43.1763 1147.92 43.1763 1143.97 Q43.1763 1139.23 40.1526 1136.49 Q37.1289 1133.72 31.909 1133.72 L11.6979 1133.72 L11.6979 1127.87 L47.3458 1127.87 L47.3458 1133.72 L41.8713 1133.72 Q45.1178 1135.86 46.7092 1138.69 Q48.2688 1141.49 48.2688 1145.22 Q48.2688 1151.36 44.4494 1154.54 Q40.63 1157.72 33.2776 1157.72 M10.8385 1142.99 L10.8385 1142.99 Z" fill="#000000" fill-rule="nonzero" fill-opacity="1" /><path clip-path="url(#clip800)" d="M18.541 1088.05 Q14.5943 1085.85 12.7164 1082.8 Q10.8385 1079.74 10.8385 1075.61 Q10.8385 1070.04 14.7534 1067.01 Q18.6365 1063.99 25.8297 1063.99 L47.3458 1063.99 L47.3458 1069.88 L26.0207 1069.88 Q20.8963 1069.88 18.4137 1071.69 Q15.9311 1073.51 15.9311 1077.23 Q15.9311 1081.78 18.9548 1084.42 Q21.9785 1087.06 27.1984 1087.06 L47.3458 1087.06 L47.3458 1092.95 L26.0207 1092.95 Q20.8645 1092.95 18.4137 1094.77 Q15.9311 1096.58 15.9311 1100.37 Q15.9311 1104.86 18.9866 1107.5 Q22.0103 1110.14 27.1984 1110.14 L47.3458 1110.14 L47.3458 1116.03 L11.6979 1116.03 L11.6979 1110.14 L17.236 1110.14 Q13.9577 1108.13 12.3981 1105.33 Q10.8385 1102.53 10.8385 1098.68 Q10.8385 1094.8 12.8119 1092.09 Q14.7852 1089.36 18.541 1088.05 Z" fill="#000000" fill-rule="nonzero" fill-opacity="1" /><path clip-path="url(#clip800)" d="M33.2776 1052.91 L11.6979 1052.91 L11.6979 1047.06 L33.0548 1047.06 Q38.1155 1047.06 40.6618 1045.08 Q43.1763 1043.11 43.1763 1039.16 Q43.1763 1034.42 40.1526 1031.68 Q37.1289 1028.91 31.909 1028.91 L11.6979 1028.91 L11.6979 1023.06 L47.3458 1023.06 L47.3458 1028.91 L41.8713 1028.91 Q45.1178 1031.05 46.7092 1033.88 Q48.2688 1036.68 48.2688 1040.4 Q48.2688 1046.55 44.4494 1049.73 Q40.63 1052.91 33.2776 1052.91 M10.8385 1038.18 L10.8385 1038.18 Z" fill="#000000" fill-rule="nonzero" fill-opacity="1" /><path clip-path="url(#clip800)" d="M-2.17938 1010.99 L-2.17938 1005.14 L47.3458 1005.14 L47.3458 1010.99 L-2.17938 1010.99 Z" fill="#000000" fill-rule="nonzero" fill-opacity="1" /><path clip-path="url(#clip800)" d="M29.4263 976.683 Q29.4263 983.781 31.0496 986.518 Q32.6729 989.255 36.5878 989.255 Q39.707 989.255 41.553 987.218 Q43.3672 985.149 43.3672 981.616 Q43.3672 976.747 39.9298 973.818 Q36.4605 970.858 30.7313 970.858 L29.4263 970.858 L29.4263 976.683 M27.0074 965.002 L47.3458 965.002 L47.3458 970.858 L41.935 970.858 Q45.1815 972.864 46.7411 975.855 Q48.2688 978.847 48.2688 983.176 Q48.2688 988.65 45.2133 991.897 Q42.1259 995.112 36.9697 995.112 Q30.9541 995.112 27.8986 991.101 Q24.843 987.059 24.843 979.07 L24.843 970.858 L24.2701 970.858 Q20.2279 970.858 18.0317 973.532 Q15.8037 976.174 15.8037 980.98 Q15.8037 984.035 16.5358 986.932 Q17.2678 989.828 18.732 992.502 L13.3211 992.502 Q12.0798 989.287 11.4751 986.263 Q10.8385 983.24 10.8385 980.375 Q10.8385 972.641 14.8489 968.821 Q18.8593 965.002 27.0074 965.002 Z" fill="#000000" fill-rule="nonzero" fill-opacity="1" /><path clip-path="url(#clip800)" d="M25.8297 923.306 L47.3458 923.306 L47.3458 929.163 L26.0207 929.163 Q20.96 929.163 18.4455 931.136 Q15.9311 933.11 15.9311 937.056 Q15.9311 941.799 18.9548 944.536 Q21.9785 947.273 27.1984 947.273 L47.3458 947.273 L47.3458 953.162 L11.6979 953.162 L11.6979 947.273 L17.236 947.273 Q14.0213 945.173 12.4299 942.34 Q10.8385 939.475 10.8385 935.751 Q10.8385 929.609 14.6579 926.458 Q18.4455 923.306 25.8297 923.306 Z" fill="#000000" fill-rule="nonzero" fill-opacity="1" /><path clip-path="url(#clip800)" d="M1.57638 905.833 L11.6979 905.833 L11.6979 893.77 L16.2493 893.77 L16.2493 905.833 L35.6011 905.833 Q39.9616 905.833 41.2029 904.655 Q42.4442 903.445 42.4442 899.785 L42.4442 893.77 L47.3458 893.77 L47.3458 899.785 Q47.3458 906.565 44.8314 909.143 Q42.2851 911.721 35.6011 911.721 L16.2493 911.721 L16.2493 916.018 L11.6979 916.018 L11.6979 911.721 L1.57638 911.721 L1.57638 905.833 Z" fill="#000000" fill-rule="nonzero" fill-opacity="1" /><path clip-path="url(#clip800)" d="M3.03055 825.79 Q4.35099 825.79 4.35099 826.885 Q4.4154 828.817 4.80187 830.137 Q5.15614 831.458 5.86466 832.231 Q6.57319 832.971 7.34613 833.39 Q8.08687 833.777 9.21407 834.034 L32.6277 839.896 Q39.2299 841.57 44.0286 846.981 Q48.7951 852.392 48.7951 858.543 Q48.7951 862.053 47.3458 864.984 Q45.8965 867.883 42.9658 869.686 Q40.0351 871.49 36.1382 871.49 Q34.2702 871.49 32.3057 871.007 L16.0095 867.013 L10.2125 865.532 Q5.92908 864.437 5.54261 864.437 Q4.93069 864.437 4.76967 864.823 Q4.57643 865.177 4.47981 866.208 L4.35099 868.72 Q4.35099 869.493 4.31878 869.815 Q4.28658 870.105 4.12555 870.33 Q3.96452 870.556 3.61025 870.556 Q3.15937 870.556 2.86952 870.459 Q2.54746 870.33 2.45084 870.105 Q2.35423 869.879 2.32202 869.718 Q2.28981 869.557 2.28981 869.3 L2.48305 860.797 L2.28981 852.359 Q2.28981 851.425 3.03055 851.425 Q3.96452 851.425 4.15775 851.844 Q4.35099 852.263 4.35099 853.68 Q4.35099 856.095 4.67305 857.19 Q4.9629 858.253 5.47819 858.575 Q5.96128 858.865 7.37834 859.219 L33.0464 865.628 Q34.3346 865.95 35.6229 866.143 Q36.8789 866.304 37.523 866.304 L38.1671 866.337 Q42.2573 866.337 44.5117 864.082 Q46.7661 861.796 46.7661 858.285 Q46.7661 853.132 42.676 848.334 Q38.5858 843.503 32.1769 841.86 L8.63437 835.934 Q8.05466 835.741 7.24952 835.741 Q5.96128 835.741 5.18834 836.707 Q4.38319 837.641 4.35099 840.218 Q4.35099 841.409 3.61025 841.409 Q2.99834 841.409 2.70849 841.184 Q2.38643 840.926 2.35423 840.733 Q2.28981 840.508 2.28981 840.218 Q2.28981 839.123 2.38643 836.804 Q2.48305 834.485 2.48305 833.358 Q2.48305 832.231 2.38643 829.976 Q2.28981 827.722 2.28981 826.627 Q2.28981 826.24 2.48305 826.047 Q2.64408 825.822 2.83731 825.79 L3.03055 825.79 Z" fill="#000000" fill-rule="nonzero" fill-opacity="1" /><circle clip-path="url(#clip802)" cx="325.854" cy="108.971" r="18" fill="#e31a1c" fill-rule="evenodd" fill-opacity="1" stroke="none"/>
<circle clip-path="url(#clip802)" cx="482.499" cy="109.454" r="18" fill="#e31a1c" fill-rule="evenodd" fill-opacity="1" stroke="none"/>
<circle clip-path="url(#clip802)" cx="639.145" cy="110.292" r="18" fill="#e31a1c" fill-rule="evenodd" fill-opacity="1" stroke="none"/>
<circle clip-path="url(#clip802)" cx="795.791" cy="111.789" r="18" fill="#e31a1c" fill-rule="evenodd" fill-opacity="1" stroke="none"/>
<circle clip-path="url(#clip802)" cx="952.437" cy="114.713" r="18" fill="#e31a1c" fill-rule="evenodd" fill-opacity="1" stroke="none"/>
<circle clip-path="url(#clip802)" cx="1109.08" cy="121.822" r="18" fill="#e31a1c" fill-rule="evenodd" fill-opacity="1" stroke="none"/>
<circle clip-path="url(#clip802)" cx="1265.73" cy="139.942" r="18" fill="#e31a1c" fill-rule="evenodd" fill-opacity="1" stroke="none"/>
<circle clip-path="url(#clip802)" cx="1422.37" cy="191.722" r="18" fill="#e31a1c" fill-rule="evenodd" fill-opacity="1" stroke="none"/>
<circle clip-path="url(#clip802)" cx="1579.02" cy="338.043" r="18" fill="#e31a1c" fill-rule="evenodd" fill-opacity="1" stroke="none"/>
<circle clip-path="url(#clip802)" cx="1735.67" cy="640.21" r="18" fill="#e31a1c" fill-rule="evenodd" fill-opacity="1" stroke="none"/>
<circle clip-path="url(#clip802)" cx="1892.31" cy="984.144" r="18" fill="#e31a1c" fill-rule="evenodd" fill-opacity="1" stroke="none"/>
<circle clip-path="url(#clip802)" cx="2048.96" cy="1350.45" r="18" fill="#e31a1c" fill-rule="evenodd" fill-opacity="1" stroke="none"/>
<circle clip-path="url(#clip802)" cx="2205.6" cy="1587.49" r="18" fill="#e31a1c" fill-rule="evenodd" fill-opacity="1" stroke="none"/>
<circle clip-path="url(#clip802)" cx="2362.25" cy="1744.42" r="18" fill="#e31a1c" fill-rule="evenodd" fill-opacity="1" stroke="none"/>
<circle clip-path="url(#clip802)" cx="2518.89" cy="1845.61" r="18" fill="#e31a1c" fill-rule="evenodd" fill-opacity="1" stroke="none"/>
<circle clip-path="url(#clip802)" cx="2675.54" cy="1921.13" r="18" fill="#e31a1c" fill-rule="evenodd" fill-opacity="1" stroke="none"/>
<circle clip-path="url(#clip802)" cx="2832.19" cy="1977.21" r="18" fill="#e31a1c" fill-rule="evenodd" fill-opacity="1" stroke="none"/>
<circle clip-path="url(#clip802)" cx="2988.83" cy="2002.1" r="18" fill="#e31a1c" fill-rule="evenodd" fill-opacity="1" stroke="none"/>
<circle clip-path="url(#clip802)" cx="3145.48" cy="2045.6" r="18" fill="#e31a1c" fill-rule="evenodd" fill-opacity="1" stroke="none"/>
<circle clip-path="url(#clip802)" cx="3302.12" cy="2061.71" r="18" fill="#e31a1c" fill-rule="evenodd" fill-opacity="1" stroke="none"/>
<circle clip-path="url(#clip802)" cx="3458.77" cy="2078.18" r="18" fill="#e31a1c" fill-rule="evenodd" fill-opacity="1" stroke="none"/>
<path clip-path="url(#clip802)" d="M305.854 88.6008 L305.854 128.601 L345.854 128.601 L345.854 88.6008 L305.854 88.6008 Z" fill="#ff7e00" fill-rule="evenodd" fill-opacity="1" stroke="none"/>
<path clip-path="url(#clip802)" d="M462.499 88.8145 L462.499 128.814 L502.499 128.814 L502.499 88.8145 L462.499 88.8145 Z" fill="#ff7e00" fill-rule="evenodd" fill-opacity="1" stroke="none"/>
<path clip-path="url(#clip802)" d="M619.145 89.1996 L619.145 129.2 L659.145 129.2 L659.145 89.1996 L619.145 89.1996 Z" fill="#ff7e00" fill-rule="evenodd" fill-opacity="1" stroke="none"/>
<path clip-path="url(#clip802)" d="M775.791 89.8702 L775.791 129.87 L815.791 129.87 L815.791 89.8702 L775.791 89.8702 Z" fill="#ff7e00" fill-rule="evenodd" fill-opacity="1" stroke="none"/>
<path clip-path="url(#clip802)" d="M932.437 91.3721 L932.437 131.372 L972.437 131.372 L972.437 91.3721 L932.437 91.3721 Z" fill="#ff7e00" fill-rule="evenodd" fill-opacity="1" stroke="none"/>
<path clip-path="url(#clip802)" d="M1089.08 94.6268 L1089.08 134.627 L1129.08 134.627 L1129.08 94.6268 L1089.08 94.6268 Z" fill="#ff7e00" fill-rule="evenodd" fill-opacity="1" stroke="none"/>
<path clip-path="url(#clip802)" d="M1245.73 104.504 L1245.73 144.504 L1285.73 144.504 L1285.73 104.504 L1245.73 104.504 Z" fill="#ff7e00" fill-rule="evenodd" fill-opacity="1" stroke="none"/>
<path clip-path="url(#clip802)" d="M1402.37 151.125 L1402.37 191.125 L1442.37 191.125 L1442.37 151.125 L1402.37 151.125 Z" fill="#ff7e00" fill-rule="evenodd" fill-opacity="1" stroke="none"/>
<path clip-path="url(#clip802)" d="M1559.02 361.639 L1559.02 401.639 L1599.02 401.639 L1599.02 361.639 L1559.02 361.639 Z" fill="#ff7e00" fill-rule="evenodd" fill-opacity="1" stroke="none"/>
<path clip-path="url(#clip802)" d="M1715.67 878.249 L1715.67 918.249 L1755.67 918.249 L1755.67 878.249 L1715.67 878.249 Z" fill="#ff7e00" fill-rule="evenodd" fill-opacity="1" stroke="none"/>
<path clip-path="url(#clip802)" d="M1872.31 1357.13 L1872.31 1397.13 L1912.31 1397.13 L1912.31 1357.13 L1872.31 1357.13 Z" fill="#ff7e00" fill-rule="evenodd" fill-opacity="1" stroke="none"/>
<path clip-path="url(#clip802)" d="M2028.96 1668.11 L2028.96 1708.11 L2068.96 1708.11 L2068.96 1668.11 L2028.96 1668.11 Z" fill="#ff7e00" fill-rule="evenodd" fill-opacity="1" stroke="none"/>
<path clip-path="url(#clip802)" d="M2185.6 1849.93 L2185.6 1889.93 L2225.6 1889.93 L2225.6 1849.93 L2185.6 1849.93 Z" fill="#ff7e00" fill-rule="evenodd" fill-opacity="1" stroke="none"/>
<path clip-path="url(#clip802)" d="M2342.25 1930.63 L2342.25 1970.63 L2382.25 1970.63 L2382.25 1930.63 L2342.25 1930.63 Z" fill="#ff7e00" fill-rule="evenodd" fill-opacity="1" stroke="none"/>
<path clip-path="url(#clip802)" d="M2498.89 2001.97 L2498.89 2041.97 L2538.89 2041.97 L2538.89 2001.97 L2498.89 2001.97 Z" fill="#ff7e00" fill-rule="evenodd" fill-opacity="1" stroke="none"/>
<path clip-path="url(#clip802)" d="M2655.54 2019.69 L2655.54 2059.69 L2695.54 2059.69 L2695.54 2019.69 L2655.54 2019.69 Z" fill="#ff7e00" fill-rule="evenodd" fill-opacity="1" stroke="none"/>
<path clip-path="url(#clip802)" d="M2812.19 2059.28 L2812.19 2099.28 L2852.19 2099.28 L2852.19 2059.28 L2812.19 2059.28 Z" fill="#ff7e00" fill-rule="evenodd" fill-opacity="1" stroke="none"/>
<path clip-path="url(#clip802)" d="M2968.83 2085.97 L2968.83 2125.97 L3008.83 2125.97 L3008.83 2085.97 L2968.83 2085.97 Z" fill="#ff7e00" fill-rule="evenodd" fill-opacity="1" stroke="none"/>
<path clip-path="url(#clip802)" d="M3125.48 2093.44 L3125.48 2133.44 L3165.48 2133.44 L3165.48 2093.44 L3125.48 2093.44 Z" fill="#ff7e00" fill-rule="evenodd" fill-opacity="1" stroke="none"/>
<path clip-path="url(#clip802)" d="M3282.12 2133.82 L3282.12 2173.82 L3322.12 2173.82 L3322.12 2133.82 L3282.12 2133.82 Z" fill="#ff7e00" fill-rule="evenodd" fill-opacity="1" stroke="none"/>
<path clip-path="url(#clip802)" d="M3438.77 2119.8 L3438.77 2159.8 L3478.77 2159.8 L3478.77 2119.8 L3438.77 2119.8 Z" fill="#ff7e00" fill-rule="evenodd" fill-opacity="1" stroke="none"/>
<path clip-path="url(#clip802)" d="M325.854 135.304 L305.854 155.304 L325.854 175.304 L345.854 155.304 L325.854 135.304 Z" fill="#999999" fill-rule="evenodd" fill-opacity="1" stroke="none"/>
<path clip-path="url(#clip802)" d="M482.499 155.24 L462.499 175.24 L482.499 195.24 L502.499 175.24 L482.499 155.24 Z" fill="#999999" fill-rule="evenodd" fill-opacity="1" stroke="none"/>
<path clip-path="url(#clip802)" d="M639.145 110.745 L619.145 130.745 L639.145 150.745 L659.145 130.745 L639.145 110.745 Z" fill="#999999" fill-rule="evenodd" fill-opacity="1" stroke="none"/>
<path clip-path="url(#clip802)" d="M795.791 95.714 L775.791 115.714 L795.791 135.714 L815.791 115.714 L795.791 95.714 Z" fill="#999999" fill-rule="evenodd" fill-opacity="1" stroke="none"/>
<path clip-path="url(#clip802)" d="M952.437 90.2231 L932.437 110.223 L952.437 130.223 L972.437 110.223 L952.437 90.2231 Z" fill="#999999" fill-rule="evenodd" fill-opacity="1" stroke="none"/>
<path clip-path="url(#clip802)" d="M1109.08 91.9323 L1089.08 111.932 L1109.08 131.932 L1129.08 111.932 L1109.08 91.9323 Z" fill="#999999" fill-rule="evenodd" fill-opacity="1" stroke="none"/>
<path clip-path="url(#clip802)" d="M1265.73 97.9837 L1245.73 117.984 L1265.73 137.984 L1285.73 117.984 L1265.73 97.9837 Z" fill="#999999" fill-rule="evenodd" fill-opacity="1" stroke="none"/>
<path clip-path="url(#clip802)" d="M1422.37 142.196 L1402.37 162.196 L1422.37 182.196 L1442.37 162.196 L1422.37 142.196 Z" fill="#999999" fill-rule="evenodd" fill-opacity="1" stroke="none"/>
<path clip-path="url(#clip802)" d="M1579.02 411.282 L1559.02 431.282 L1579.02 451.282 L1599.02 431.282 L1579.02 411.282 Z" fill="#999999" fill-rule="evenodd" fill-opacity="1" stroke="none"/>
<path clip-path="url(#clip802)" d="M1735.67 1089.63 L1715.67 1109.63 L1735.67 1129.63 L1755.67 1109.63 L1735.67 1089.63 Z" fill="#999999" fill-rule="evenodd" fill-opacity="1" stroke="none"/>
<path clip-path="url(#clip802)" d="M1892.31 1518.22 L1872.31 1538.22 L1892.31 1558.22 L1912.31 1538.22 L1892.31 1518.22 Z" fill="#999999" fill-rule="evenodd" fill-opacity="1" stroke="none"/>
<path clip-path="url(#clip802)" d="M2048.96 1734.45 L2028.96 1754.45 L2048.96 1774.45 L2068.96 1754.45 L2048.96 1734.45 Z" fill="#999999" fill-rule="evenodd" fill-opacity="1" stroke="none"/>
<path clip-path="url(#clip802)" d="M2205.6 1863.25 L2185.6 1883.25 L2205.6 1903.25 L2225.6 1883.25 L2205.6 1863.25 Z" fill="#999999" fill-rule="evenodd" fill-opacity="1" stroke="none"/>
<path clip-path="url(#clip802)" d="M2362.25 1946.98 L2342.25 1966.98 L2362.25 1986.98 L2382.25 1966.98 L2362.25 1946.98 Z" fill="#999999" fill-rule="evenodd" fill-opacity="1" stroke="none"/>
<path clip-path="url(#clip802)" d="M2518.89 1982.99 L2498.89 2002.99 L2518.89 2022.99 L2538.89 2002.99 L2518.89 1982.99 Z" fill="#999999" fill-rule="evenodd" fill-opacity="1" stroke="none"/>
<path clip-path="url(#clip802)" d="M2675.54 2064.55 L2655.54 2084.55 L2675.54 2104.55 L2695.54 2084.55 L2675.54 2064.55 Z" fill="#999999" fill-rule="evenodd" fill-opacity="1" stroke="none"/>
<path clip-path="url(#clip802)" d="M2832.19 2072.21 L2812.19 2092.21 L2832.19 2112.21 L2852.19 2092.21 L2832.19 2072.21 Z" fill="#999999" fill-rule="evenodd" fill-opacity="1" stroke="none"/>
<path clip-path="url(#clip802)" d="M2988.83 2079.5 L2968.83 2099.5 L2988.83 2119.5 L3008.83 2099.5 L2988.83 2079.5 Z" fill="#999999" fill-rule="evenodd" fill-opacity="1" stroke="none"/>
<path clip-path="url(#clip802)" d="M3145.48 2097.71 L3125.48 2117.71 L3145.48 2137.71 L3165.48 2117.71 L3145.48 2097.71 Z" fill="#999999" fill-rule="evenodd" fill-opacity="1" stroke="none"/>
<path clip-path="url(#clip802)" d="M3302.12 2124.36 L3282.12 2144.36 L3302.12 2164.36 L3322.12 2144.36 L3302.12 2124.36 Z" fill="#999999" fill-rule="evenodd" fill-opacity="1" stroke="none"/>
<path clip-path="url(#clip802)" d="M3458.77 2101.79 L3438.77 2121.79 L3458.77 2141.79 L3478.77 2121.79 L3458.77 2101.79 Z" fill="#999999" fill-rule="evenodd" fill-opacity="1" stroke="none"/>
<polyline clip-path="url(#clip802)" style="stroke:#000000; stroke-linecap:round; stroke-linejoin:round; stroke-width:8; stroke-opacity:1; fill:none" stroke-dasharray="32, 20" points="1530.75,4383.12 1530.75,-2120.69 "/>
<path clip-path="url(#clip800)" d="M2884.6 378.709 L3442.06 378.709 L3442.06 119.509 L2884.6 119.509  Z" fill="#ffffff" fill-rule="evenodd" fill-opacity="1"/>
<polyline clip-path="url(#clip800)" style="stroke:#000000; stroke-linecap:round; stroke-linejoin:round; stroke-width:4; stroke-opacity:1; fill:none" points="2884.6,378.709 3442.06,378.709 3442.06,119.509 2884.6,119.509 2884.6,378.709 "/>
<circle clip-path="url(#clip800)" cx="3032.19" cy="171.349" r="23.04" fill="#e31a1c" fill-rule="evenodd" fill-opacity="1" stroke="none"/>
<path clip-path="url(#clip800)" d="M3179.79 154.069 L3184.47 154.069 L3184.47 184.693 L3201.29 184.693 L3201.29 188.629 L3179.79 188.629 L3179.79 154.069 Z" fill="#000000" fill-rule="nonzero" fill-opacity="1" /><path clip-path="url(#clip800)" d="M3206.57 167.101 L3236.25 167.101 L3236.25 170.99 L3206.57 170.99 L3206.57 167.101 M3206.57 176.545 L3236.25 176.545 L3236.25 180.481 L3206.57 180.481 L3206.57 176.545 Z" fill="#000000" fill-rule="nonzero" fill-opacity="1" /><path clip-path="url(#clip800)" d="M3247.15 184.693 L3254.79 184.693 L3254.79 158.328 L3246.48 159.995 L3246.48 155.735 L3254.74 154.069 L3259.42 154.069 L3259.42 184.693 L3267.06 184.693 L3267.06 188.629 L3247.15 188.629 L3247.15 184.693 Z" fill="#000000" fill-rule="nonzero" fill-opacity="1" /><path clip-path="url(#clip800)" d="M3287.08 169.485 Q3283.93 169.485 3282.08 171.638 Q3280.25 173.791 3280.25 177.541 Q3280.25 181.268 3282.08 183.443 Q3283.93 185.596 3287.08 185.596 Q3290.23 185.596 3292.06 183.443 Q3293.91 181.268 3293.91 177.541 Q3293.91 173.791 3292.06 171.638 Q3290.23 169.485 3287.08 169.485 M3296.36 154.833 L3296.36 159.092 Q3294.6 158.258 3292.8 157.819 Q3291.02 157.379 3289.26 157.379 Q3284.63 157.379 3282.17 160.504 Q3279.74 163.629 3279.4 169.948 Q3280.76 167.934 3282.82 166.869 Q3284.88 165.782 3287.36 165.782 Q3292.57 165.782 3295.58 168.953 Q3298.61 172.101 3298.61 177.541 Q3298.61 182.865 3295.46 186.082 Q3292.31 189.3 3287.08 189.3 Q3281.09 189.3 3277.91 184.717 Q3274.74 180.11 3274.74 171.383 Q3274.74 163.189 3278.63 158.328 Q3282.52 153.444 3289.07 153.444 Q3290.83 153.444 3292.61 153.791 Q3294.42 154.138 3296.36 154.833 Z" fill="#000000" fill-rule="nonzero" fill-opacity="1" /><path clip-path="url(#clip800)" d="M3006.59 197.589 L3006.59 248.789 L3057.79 248.789 L3057.79 197.589 L3006.59 197.589 Z" fill="#ff7e00" fill-rule="evenodd" fill-opacity="1" stroke="none"/>
<path clip-path="url(#clip800)" d="M3179.79 205.909 L3184.47 205.909 L3184.47 236.533 L3201.29 236.533 L3201.29 240.469 L3179.79 240.469 L3179.79 205.909 Z" fill="#000000" fill-rule="nonzero" fill-opacity="1" /><path clip-path="url(#clip800)" d="M3206.57 218.941 L3236.25 218.941 L3236.25 222.83 L3206.57 222.83 L3206.57 218.941 M3206.57 228.385 L3236.25 228.385 L3236.25 232.321 L3206.57 232.321 L3206.57 228.385 Z" fill="#000000" fill-rule="nonzero" fill-opacity="1" /><path clip-path="url(#clip800)" d="M3250.37 236.533 L3266.69 236.533 L3266.69 240.469 L3244.74 240.469 L3244.74 236.533 Q3247.4 233.779 3251.99 229.149 Q3256.59 224.496 3257.78 223.154 Q3260.02 220.631 3260.9 218.895 Q3261.8 217.135 3261.8 215.446 Q3261.8 212.691 3259.86 210.955 Q3257.94 209.219 3254.84 209.219 Q3252.64 209.219 3250.18 209.983 Q3247.75 210.747 3244.97 212.297 L3244.97 207.575 Q3247.8 206.441 3250.25 205.862 Q3252.71 205.284 3254.74 205.284 Q3260.11 205.284 3263.31 207.969 Q3266.5 210.654 3266.5 215.145 Q3266.5 217.274 3265.69 219.196 Q3264.9 221.094 3262.8 223.686 Q3262.22 224.358 3259.12 227.575 Q3256.02 230.77 3250.37 236.533 Z" fill="#000000" fill-rule="nonzero" fill-opacity="1" /><path clip-path="url(#clip800)" d="M3289.35 209.983 L3277.54 228.432 L3289.35 228.432 L3289.35 209.983 M3288.12 205.909 L3294 205.909 L3294 228.432 L3298.93 228.432 L3298.93 232.321 L3294 232.321 L3294 240.469 L3289.35 240.469 L3289.35 232.321 L3273.75 232.321 L3273.75 227.807 L3288.12 205.909 Z" fill="#000000" fill-rule="nonzero" fill-opacity="1" /><path clip-path="url(#clip800)" d="M3032.19 249.429 L3006.59 275.029 L3032.19 300.629 L3057.79 275.029 L3032.19 249.429 Z" fill="#999999" fill-rule="evenodd" fill-opacity="1" stroke="none"/>
<path clip-path="url(#clip800)" d="M3179.79 257.749 L3184.47 257.749 L3184.47 288.373 L3201.29 288.373 L3201.29 292.309 L3179.79 292.309 L3179.79 257.749 Z" fill="#000000" fill-rule="nonzero" fill-opacity="1" /><path clip-path="url(#clip800)" d="M3206.57 270.781 L3236.25 270.781 L3236.25 274.67 L3206.57 274.67 L3206.57 270.781 M3206.57 280.225 L3236.25 280.225 L3236.25 284.161 L3206.57 284.161 L3206.57 280.225 Z" fill="#000000" fill-rule="nonzero" fill-opacity="1" /><path clip-path="url(#clip800)" d="M3260.51 273.674 Q3263.86 274.392 3265.74 276.661 Q3267.64 278.929 3267.64 282.262 Q3267.64 287.378 3264.12 290.179 Q3260.6 292.98 3254.12 292.98 Q3251.94 292.98 3249.63 292.54 Q3247.34 292.123 3244.88 291.267 L3244.88 286.753 Q3246.83 287.887 3249.14 288.466 Q3251.46 289.045 3253.98 289.045 Q3258.38 289.045 3260.67 287.309 Q3262.98 285.573 3262.98 282.262 Q3262.98 279.207 3260.83 277.494 Q3258.7 275.758 3254.88 275.758 L3250.85 275.758 L3250.85 271.915 L3255.07 271.915 Q3258.52 271.915 3260.34 270.549 Q3262.17 269.161 3262.17 266.568 Q3262.17 263.906 3260.27 262.494 Q3258.4 261.059 3254.88 261.059 Q3252.96 261.059 3250.76 261.475 Q3248.56 261.892 3245.92 262.772 L3245.92 258.605 Q3248.59 257.864 3250.9 257.494 Q3253.24 257.124 3255.3 257.124 Q3260.62 257.124 3263.72 259.554 Q3266.83 261.962 3266.83 266.082 Q3266.83 268.952 3265.18 270.943 Q3263.54 272.911 3260.51 273.674 Z" fill="#000000" fill-rule="nonzero" fill-opacity="1" /><path clip-path="url(#clip800)" d="M3280.53 288.373 L3296.85 288.373 L3296.85 292.309 L3274.9 292.309 L3274.9 288.373 Q3277.57 285.619 3282.15 280.989 Q3286.76 276.336 3287.94 274.994 Q3290.18 272.471 3291.06 270.735 Q3291.96 268.975 3291.96 267.286 Q3291.96 264.531 3290.02 262.795 Q3288.1 261.059 3285 261.059 Q3282.8 261.059 3280.34 261.823 Q3277.91 262.587 3275.14 264.137 L3275.14 259.415 Q3277.96 258.281 3280.41 257.702 Q3282.87 257.124 3284.9 257.124 Q3290.27 257.124 3293.47 259.809 Q3296.66 262.494 3296.66 266.985 Q3296.66 269.114 3295.85 271.036 Q3295.07 272.934 3292.96 275.526 Q3292.38 276.198 3289.28 279.415 Q3286.18 282.61 3280.53 288.373 Z" fill="#000000" fill-rule="nonzero" fill-opacity="1" /><polyline clip-path="url(#clip800)" style="stroke:#000000; stroke-linecap:round; stroke-linejoin:round; stroke-width:8; stroke-opacity:1; fill:none" stroke-dasharray="32, 20" points="2921.5,326.869 3142.89,326.869 "/>
<path clip-path="url(#clip800)" d="M3212.42 306.4 Q3212.42 306.845 3212.32 307.22 L3211.01 315.558 Q3210.94 316.19 3210.8 316.425 Q3210.68 316.659 3210.31 316.659 Q3209.72 316.659 3209.72 316.05 Q3209.72 315.699 3209.86 315.136 Q3210.26 312.49 3210.26 311.295 Q3210.26 310.499 3210.1 309.913 Q3209.96 309.304 3209.72 308.883 Q3209.51 308.461 3209.02 308.18 Q3208.53 307.899 3208.06 307.735 Q3207.59 307.571 3206.75 307.501 Q3205.91 307.407 3205.18 307.384 Q3204.45 307.36 3203.26 307.36 Q3200.66 307.36 3200.24 307.454 Q3199.79 307.571 3199.56 307.922 Q3199.35 308.25 3199.11 309.234 L3192.74 334.694 L3192.55 335.701 Q3192.55 336.263 3192.91 336.451 Q3193.26 336.638 3194.33 336.755 Q3195.88 336.872 3197.4 336.872 Q3197.45 336.872 3197.54 336.872 Q3198.06 336.872 3198.27 336.896 Q3198.48 336.896 3198.69 336.943 Q3198.9 336.99 3198.95 337.107 Q3199.02 337.2 3199.02 337.388 Q3199.02 337.833 3198.83 338.067 Q3198.64 338.278 3198.46 338.325 Q3198.29 338.348 3197.97 338.348 Q3197.31 338.348 3195.9 338.301 Q3194.5 338.254 3193.8 338.254 L3189.81 338.208 L3185.74 338.254 Q3185.11 338.254 3183.77 338.301 Q3182.44 338.348 3181.8 338.348 Q3180.98 338.348 3180.98 337.763 Q3180.98 337.107 3181.29 336.99 Q3181.62 336.872 3183 336.872 Q3184.94 336.872 3186 336.779 Q3187.05 336.685 3187.61 336.357 Q3188.2 336.029 3188.36 335.701 Q3188.53 335.35 3188.71 334.554 L3195.15 308.953 Q3195.34 308.391 3195.34 307.946 Q3195.34 307.712 3195.27 307.618 Q3195.22 307.524 3194.92 307.454 Q3194.62 307.36 3193.98 307.36 L3192.11 307.36 Q3190.19 307.36 3188.99 307.454 Q3187.82 307.524 3186.7 307.875 Q3185.6 308.227 3184.94 308.719 Q3184.31 309.211 3183.61 310.218 Q3182.9 311.225 3182.39 312.443 Q3181.9 313.661 3181.19 315.652 Q3180.96 316.308 3180.82 316.495 Q3180.7 316.659 3180.37 316.659 Q3180.14 316.659 3179.95 316.518 Q3179.79 316.354 3179.79 316.144 Q3180.02 315.371 3180.07 315.277 L3182.95 306.821 Q3183.19 306.142 3183.4 306.025 Q3183.63 305.885 3184.5 305.885 L3211.11 305.885 Q3211.53 305.885 3211.67 305.885 Q3211.81 305.885 3212.04 305.931 Q3212.28 305.978 3212.35 306.095 Q3212.42 306.212 3212.42 306.4 Z" fill="#000000" fill-rule="nonzero" fill-opacity="1" /><path clip-path="url(#clip800)" d="M3230.14 343.282 Q3230.27 343.43 3230.27 343.577 Q3230.27 343.725 3229.95 344.151 Q3229.63 344.578 3228.96 345.151 Q3228.29 345.725 3227.42 346.266 Q3226.55 346.807 3225.27 347.168 Q3223.99 347.545 3222.65 347.545 Q3220.14 347.545 3218.67 345.889 Q3217.21 344.233 3217.21 341.856 Q3217.21 339.544 3218.5 337.331 Q3219.8 335.101 3221.9 333.724 Q3223.99 332.33 3226.21 332.33 Q3227.96 332.33 3229.06 333.15 Q3230.16 333.97 3230.16 335.216 Q3230.16 336.183 3229.6 336.773 Q3229.04 337.363 3228.29 337.363 Q3227.77 337.363 3227.4 337.068 Q3227.04 336.757 3227.04 336.183 Q3227.04 335.445 3227.65 334.871 Q3227.88 334.642 3228.14 334.543 Q3228.42 334.429 3228.58 334.429 Q3228.75 334.412 3229.13 334.412 Q3228.78 333.773 3227.96 333.428 Q3227.16 333.068 3226.24 333.068 Q3224.88 333.068 3223.58 334.019 Q3222.29 334.953 3221.5 336.429 Q3220.71 337.872 3220.21 339.921 Q3219.7 341.954 3219.7 343.135 Q3219.7 344.758 3220.45 345.774 Q3221.21 346.791 3222.72 346.791 Q3223.01 346.791 3223.32 346.775 Q3223.65 346.758 3224.47 346.578 Q3225.31 346.397 3226.04 346.086 Q3226.78 345.774 3227.72 345.102 Q3228.67 344.414 3229.42 343.479 Q3229.68 343.135 3229.86 343.135 Q3230.01 343.135 3230.14 343.282 Z" fill="#000000" fill-rule="nonzero" fill-opacity="1" /><path clip-path="url(#clip800)" d="M3276.97 324.32 L3276.97 326.404 L3257.38 326.404 Q3257.66 330.802 3260.02 333.117 Q3262.41 335.408 3266.64 335.408 Q3269.1 335.408 3271.39 334.806 Q3273.7 334.205 3275.97 333.001 L3275.97 337.029 Q3273.68 338.001 3271.27 338.51 Q3268.87 339.019 3266.39 339.019 Q3260.18 339.019 3256.55 335.408 Q3252.94 331.797 3252.94 325.64 Q3252.94 319.274 3256.37 315.547 Q3259.81 311.797 3265.65 311.797 Q3270.88 311.797 3273.91 315.177 Q3276.97 318.533 3276.97 324.32 M3272.71 323.07 Q3272.66 319.575 3270.74 317.492 Q3268.84 315.408 3265.69 315.408 Q3262.13 315.408 3259.98 317.422 Q3257.85 319.436 3257.52 323.094 L3272.71 323.07 Z" fill="#000000" fill-rule="nonzero" fill-opacity="1" /><path clip-path="url(#clip800)" d="M3304.68 312.422 L3295.3 325.038 L3305.16 338.348 L3300.14 338.348 L3292.59 328.163 L3285.05 338.348 L3280.02 338.348 L3290.09 324.783 L3280.88 312.422 L3285.9 312.422 L3292.78 321.658 L3299.65 312.422 L3304.68 312.422 Z" fill="#000000" fill-rule="nonzero" fill-opacity="1" /><path clip-path="url(#clip800)" d="M3322.96 325.316 Q3317.8 325.316 3315.81 326.496 Q3313.82 327.677 3313.82 330.524 Q3313.82 332.793 3315.3 334.135 Q3316.8 335.455 3319.37 335.455 Q3322.92 335.455 3325.05 332.955 Q3327.2 330.431 3327.2 326.265 L3327.2 325.316 L3322.96 325.316 M3331.46 323.556 L3331.46 338.348 L3327.2 338.348 L3327.2 334.413 Q3325.74 336.774 3323.56 337.908 Q3321.39 339.019 3318.24 339.019 Q3314.26 339.019 3311.9 336.797 Q3309.56 334.552 3309.56 330.802 Q3309.56 326.427 3312.48 324.205 Q3315.42 321.982 3321.23 321.982 L3327.2 321.982 L3327.2 321.566 Q3327.2 318.626 3325.25 317.029 Q3323.33 315.408 3319.84 315.408 Q3317.61 315.408 3315.51 315.941 Q3313.4 316.473 3311.46 317.538 L3311.46 313.603 Q3313.8 312.7 3315.99 312.26 Q3318.19 311.797 3320.28 311.797 Q3325.9 311.797 3328.68 314.714 Q3331.46 317.631 3331.46 323.556 Z" fill="#000000" fill-rule="nonzero" fill-opacity="1" /><path clip-path="url(#clip800)" d="M3358.89 313.418 L3358.89 317.399 Q3357.08 316.404 3355.25 315.918 Q3353.45 315.408 3351.6 315.408 Q3347.45 315.408 3345.16 318.047 Q3342.87 320.663 3342.87 325.408 Q3342.87 330.154 3345.16 332.793 Q3347.45 335.408 3351.6 335.408 Q3353.45 335.408 3355.25 334.922 Q3357.08 334.413 3358.89 333.418 L3358.89 337.353 Q3357.11 338.186 3355.18 338.603 Q3353.29 339.019 3351.13 339.019 Q3345.28 339.019 3341.83 335.339 Q3338.38 331.658 3338.38 325.408 Q3338.38 319.066 3341.85 315.432 Q3345.35 311.797 3351.41 311.797 Q3353.38 311.797 3355.25 312.214 Q3357.13 312.607 3358.89 313.418 Z" fill="#000000" fill-rule="nonzero" fill-opacity="1" /><path clip-path="url(#clip800)" d="M3370.51 305.061 L3370.51 312.422 L3379.28 312.422 L3379.28 315.732 L3370.51 315.732 L3370.51 329.806 Q3370.51 332.978 3371.36 333.881 Q3372.24 334.783 3374.91 334.783 L3379.28 334.783 L3379.28 338.348 L3374.91 338.348 Q3369.98 338.348 3368.1 336.519 Q3366.23 334.668 3366.23 329.806 L3366.23 315.732 L3363.1 315.732 L3363.1 312.422 L3366.23 312.422 L3366.23 305.061 L3370.51 305.061 Z" fill="#000000" fill-rule="nonzero" fill-opacity="1" /><path clip-path="url(#clip800)" d="M3396.67 325.316 Q3391.5 325.316 3389.51 326.496 Q3387.52 327.677 3387.52 330.524 Q3387.52 332.793 3389 334.135 Q3390.51 335.455 3393.08 335.455 Q3396.62 335.455 3398.75 332.955 Q3400.9 330.431 3400.9 326.265 L3400.9 325.316 L3396.67 325.316 M3405.16 323.556 L3405.16 338.348 L3400.9 338.348 L3400.9 334.413 Q3399.44 336.774 3397.27 337.908 Q3395.09 339.019 3391.94 339.019 Q3387.96 339.019 3385.6 336.797 Q3383.26 334.552 3383.26 330.802 Q3383.26 326.427 3386.18 324.205 Q3389.12 321.982 3394.93 321.982 L3400.9 321.982 L3400.9 321.566 Q3400.9 318.626 3398.96 317.029 Q3397.04 315.408 3393.54 315.408 Q3391.32 315.408 3389.21 315.941 Q3387.11 316.473 3385.16 317.538 L3385.16 313.603 Q3387.5 312.7 3389.7 312.26 Q3391.9 311.797 3393.98 311.797 Q3399.61 311.797 3402.38 314.714 Q3405.16 317.631 3405.16 323.556 Z" fill="#000000" fill-rule="nonzero" fill-opacity="1" /></svg>
