<?xml version="1.0" encoding="utf-8"?>
<svg xmlns="http://www.w3.org/2000/svg" xmlns:xlink="http://www.w3.org/1999/xlink" width="900" height="600" viewBox="0 0 3600 2400">
<defs>
  <clipPath id="clip700">
    <rect x="0" y="0" width="3600" height="2400"/>
  </clipPath>
</defs>
<path clip-path="url(#clip700)" d="M0 2400 L3600 2400 L3600 0 L0 0  Z" fill="#ffffff" fill-rule="evenodd" fill-opacity="1"/>
<defs>
  <clipPath id="clip701">
    <rect x="720" y="0" width="2521" height="2400"/>
  </clipPath>
</defs>
<path clip-path="url(#clip700)" d="M292.19 1015.18 L3552.76 1015.18 L3552.76 47.2441 L292.19 47.2441  Z" fill="#ffffff" fill-rule="evenodd" fill-opacity="1"/>
<defs>
  <clipPath id="clip702">
    <rect x="292" y="47" width="3262" height="969"/>
  </clipPath>
</defs>
<polyline clip-path="url(#clip700)" style="stroke:#000000; stroke-linecap:round; stroke-linejoin:round; stroke-width:4; stroke-opacity:1; fill:none" points="292.19,1015.18 3552.76,1015.18 "/>
<polyline clip-path="url(#clip700)" style="stroke:#000000; stroke-linecap:round; stroke-linejoin:round; stroke-width:4; stroke-opacity:1; fill:none" points="384.47,1015.18 384.47,996.282 "/>
<polyline clip-path="url(#clip700)" style="stroke:#000000; stroke-linecap:round; stroke-linejoin:round; stroke-width:4; stroke-opacity:1; fill:none" points="1153.47,1015.18 1153.47,996.282 "/>
<polyline clip-path="url(#clip700)" style="stroke:#000000; stroke-linecap:round; stroke-linejoin:round; stroke-width:4; stroke-opacity:1; fill:none" points="1922.47,1015.18 1922.47,996.282 "/>
<polyline clip-path="url(#clip700)" style="stroke:#000000; stroke-linecap:round; stroke-linejoin:round; stroke-width:4; stroke-opacity:1; fill:none" points="2691.47,1015.18 2691.47,996.282 "/>
<polyline clip-path="url(#clip700)" style="stroke:#000000; stroke-linecap:round; stroke-linejoin:round; stroke-width:4; stroke-opacity:1; fill:none" points="3460.48,1015.18 3460.48,996.282 "/>
<path clip-path="url(#clip700)" d="M352.121 1083.24 L359.76 1083.24 L359.76 1056.88 L351.45 1058.55 L351.45 1054.29 L359.713 1052.62 L364.389 1052.62 L364.389 1083.24 L372.028 1083.24 L372.028 1087.18 L352.121 1087.18 L352.121 1083.24 Z" fill="#000000" fill-rule="nonzero" fill-opacity="1" /><path clip-path="url(#clip700)" d="M381.473 1081.3 L386.357 1081.3 L386.357 1087.18 L381.473 1087.18 L381.473 1081.3 Z" fill="#000000" fill-rule="nonzero" fill-opacity="1" /><path clip-path="url(#clip700)" d="M396.588 1052.62 L414.945 1052.62 L414.945 1056.56 L400.871 1056.56 L400.871 1065.03 Q401.889 1064.68 402.908 1064.52 Q403.926 1064.33 404.945 1064.33 Q410.732 1064.33 414.111 1067.5 Q417.491 1070.68 417.491 1076.09 Q417.491 1081.67 414.019 1084.77 Q410.546 1087.85 404.227 1087.85 Q402.051 1087.85 399.783 1087.48 Q397.537 1087.11 395.13 1086.37 L395.13 1081.67 Q397.213 1082.8 399.435 1083.36 Q401.658 1083.92 404.134 1083.92 Q408.139 1083.92 410.477 1081.81 Q412.815 1079.7 412.815 1076.09 Q412.815 1072.48 410.477 1070.37 Q408.139 1068.27 404.134 1068.27 Q402.259 1068.27 400.384 1068.68 Q398.533 1069.1 396.588 1069.98 L396.588 1052.62 Z" fill="#000000" fill-rule="nonzero" fill-opacity="1" /><path clip-path="url(#clip700)" d="M1124.71 1083.24 L1141.03 1083.24 L1141.03 1087.18 L1119.09 1087.18 L1119.09 1083.24 Q1121.75 1080.49 1126.33 1075.86 Q1130.94 1071.21 1132.12 1069.87 Q1134.36 1067.34 1135.24 1065.61 Q1136.15 1063.85 1136.15 1062.16 Q1136.15 1059.4 1134.2 1057.67 Q1132.28 1055.93 1129.18 1055.93 Q1126.98 1055.93 1124.52 1056.69 Q1122.09 1057.46 1119.32 1059.01 L1119.32 1054.29 Q1122.14 1053.15 1124.59 1052.57 Q1127.05 1051.99 1129.09 1051.99 Q1134.46 1051.99 1137.65 1054.68 Q1140.84 1057.37 1140.84 1061.86 Q1140.84 1063.99 1140.03 1065.91 Q1139.25 1067.8 1137.14 1070.4 Q1136.56 1071.07 1133.46 1074.29 Q1130.36 1077.48 1124.71 1083.24 Z" fill="#000000" fill-rule="nonzero" fill-opacity="1" /><path clip-path="url(#clip700)" d="M1150.84 1081.3 L1155.73 1081.3 L1155.73 1087.18 L1150.84 1087.18 L1150.84 1081.3 Z" fill="#000000" fill-rule="nonzero" fill-opacity="1" /><path clip-path="url(#clip700)" d="M1175.91 1055.7 Q1172.3 1055.7 1170.47 1059.26 Q1168.67 1062.8 1168.67 1069.93 Q1168.67 1077.04 1170.47 1080.61 Q1172.3 1084.15 1175.91 1084.15 Q1179.55 1084.15 1181.35 1080.61 Q1183.18 1077.04 1183.18 1069.93 Q1183.18 1062.8 1181.35 1059.26 Q1179.55 1055.7 1175.91 1055.7 M1175.91 1051.99 Q1181.72 1051.99 1184.78 1056.6 Q1187.86 1061.18 1187.86 1069.93 Q1187.86 1078.66 1184.78 1083.27 Q1181.72 1087.85 1175.91 1087.85 Q1170.1 1087.85 1167.02 1083.27 Q1163.97 1078.66 1163.97 1069.93 Q1163.97 1061.18 1167.02 1056.6 Q1170.1 1051.99 1175.91 1051.99 Z" fill="#000000" fill-rule="nonzero" fill-opacity="1" /><path clip-path="url(#clip700)" d="M1894.21 1083.24 L1910.53 1083.24 L1910.53 1087.18 L1888.58 1087.18 L1888.58 1083.24 Q1891.25 1080.49 1895.83 1075.86 Q1900.44 1071.21 1901.62 1069.87 Q1903.86 1067.34 1904.74 1065.61 Q1905.64 1063.85 1905.64 1062.16 Q1905.64 1059.4 1903.7 1057.67 Q1901.78 1055.93 1898.68 1055.93 Q1896.48 1055.93 1894.02 1056.69 Q1891.59 1057.46 1888.82 1059.01 L1888.82 1054.29 Q1891.64 1053.15 1894.09 1052.57 Q1896.55 1051.99 1898.58 1051.99 Q1903.95 1051.99 1907.15 1054.68 Q1910.34 1057.37 1910.34 1061.86 Q1910.34 1063.99 1909.53 1065.91 Q1908.75 1067.8 1906.64 1070.4 Q1906.06 1071.07 1902.96 1074.29 Q1899.86 1077.48 1894.21 1083.24 Z" fill="#000000" fill-rule="nonzero" fill-opacity="1" /><path clip-path="url(#clip700)" d="M1920.34 1081.3 L1925.23 1081.3 L1925.23 1087.18 L1920.34 1087.18 L1920.34 1081.3 Z" fill="#000000" fill-rule="nonzero" fill-opacity="1" /><path clip-path="url(#clip700)" d="M1935.46 1052.62 L1953.82 1052.62 L1953.82 1056.56 L1939.74 1056.56 L1939.74 1065.03 Q1940.76 1064.68 1941.78 1064.52 Q1942.8 1064.33 1943.82 1064.33 Q1949.6 1064.33 1952.98 1067.5 Q1956.36 1070.68 1956.36 1076.09 Q1956.36 1081.67 1952.89 1084.77 Q1949.42 1087.85 1943.1 1087.85 Q1940.92 1087.85 1938.65 1087.48 Q1936.41 1087.11 1934 1086.37 L1934 1081.67 Q1936.08 1082.8 1938.31 1083.36 Q1940.53 1083.92 1943.01 1083.92 Q1947.01 1083.92 1949.35 1081.81 Q1951.69 1079.7 1951.69 1076.09 Q1951.69 1072.48 1949.35 1070.37 Q1947.01 1068.27 1943.01 1068.27 Q1941.13 1068.27 1939.26 1068.68 Q1937.4 1069.1 1935.46 1069.98 L1935.46 1052.62 Z" fill="#000000" fill-rule="nonzero" fill-opacity="1" /><path clip-path="url(#clip700)" d="M2672.78 1068.55 Q2676.14 1069.26 2678.01 1071.53 Q2679.91 1073.8 2679.91 1077.13 Q2679.91 1082.25 2676.39 1085.05 Q2672.87 1087.85 2666.39 1087.85 Q2664.22 1087.85 2661.9 1087.41 Q2659.61 1086.99 2657.16 1086.14 L2657.16 1081.62 Q2659.1 1082.76 2661.42 1083.34 Q2663.73 1083.92 2666.25 1083.92 Q2670.65 1083.92 2672.94 1082.18 Q2675.26 1080.44 2675.26 1077.13 Q2675.26 1074.08 2673.11 1072.37 Q2670.98 1070.63 2667.16 1070.63 L2663.13 1070.63 L2663.13 1066.79 L2667.34 1066.79 Q2670.79 1066.79 2672.62 1065.42 Q2674.45 1064.03 2674.45 1061.44 Q2674.45 1058.78 2672.55 1057.37 Q2670.68 1055.93 2667.16 1055.93 Q2665.24 1055.93 2663.04 1056.35 Q2660.84 1056.76 2658.2 1057.64 L2658.2 1053.48 Q2660.86 1052.74 2663.18 1052.37 Q2665.51 1051.99 2667.57 1051.99 Q2672.9 1051.99 2676 1054.43 Q2679.1 1056.83 2679.1 1060.95 Q2679.1 1063.82 2677.46 1065.81 Q2675.81 1067.78 2672.78 1068.55 Z" fill="#000000" fill-rule="nonzero" fill-opacity="1" /><path clip-path="url(#clip700)" d="M2688.78 1081.3 L2693.66 1081.3 L2693.66 1087.18 L2688.78 1087.18 L2688.78 1081.3 Z" fill="#000000" fill-rule="nonzero" fill-opacity="1" /><path clip-path="url(#clip700)" d="M2713.85 1055.7 Q2710.24 1055.7 2708.41 1059.26 Q2706.6 1062.8 2706.6 1069.93 Q2706.6 1077.04 2708.41 1080.61 Q2710.24 1084.15 2713.85 1084.15 Q2717.48 1084.15 2719.29 1080.61 Q2721.12 1077.04 2721.12 1069.93 Q2721.12 1062.8 2719.29 1059.26 Q2717.48 1055.7 2713.85 1055.7 M2713.85 1051.99 Q2719.66 1051.99 2722.71 1056.6 Q2725.79 1061.18 2725.79 1069.93 Q2725.79 1078.66 2722.71 1083.27 Q2719.66 1087.85 2713.85 1087.85 Q2708.04 1087.85 2704.96 1083.27 Q2701.9 1078.66 2701.9 1069.93 Q2701.9 1061.18 2704.96 1056.6 Q2708.04 1051.99 2713.85 1051.99 Z" fill="#000000" fill-rule="nonzero" fill-opacity="1" /><path clip-path="url(#clip700)" d="M3442.28 1068.55 Q3445.64 1069.26 3447.51 1071.53 Q3449.41 1073.8 3449.41 1077.13 Q3449.41 1082.25 3445.89 1085.05 Q3442.37 1087.85 3435.89 1087.85 Q3433.72 1087.85 3431.4 1087.41 Q3429.11 1086.99 3426.66 1086.14 L3426.66 1081.62 Q3428.6 1082.76 3430.92 1083.34 Q3433.23 1083.92 3435.75 1083.92 Q3440.15 1083.92 3442.44 1082.18 Q3444.76 1080.44 3444.76 1077.13 Q3444.76 1074.08 3442.61 1072.37 Q3440.48 1070.63 3436.66 1070.63 L3432.63 1070.63 L3432.63 1066.79 L3436.84 1066.79 Q3440.29 1066.79 3442.12 1065.42 Q3443.95 1064.03 3443.95 1061.44 Q3443.95 1058.78 3442.05 1057.37 Q3440.17 1055.93 3436.66 1055.93 Q3434.74 1055.93 3432.54 1056.35 Q3430.34 1056.76 3427.7 1057.64 L3427.7 1053.48 Q3430.36 1052.74 3432.67 1052.37 Q3435.01 1051.99 3437.07 1051.99 Q3442.4 1051.99 3445.5 1054.43 Q3448.6 1056.83 3448.6 1060.95 Q3448.6 1063.82 3446.96 1065.81 Q3445.31 1067.78 3442.28 1068.55 Z" fill="#000000" fill-rule="nonzero" fill-opacity="1" /><path clip-path="url(#clip700)" d="M3458.28 1081.3 L3463.16 1081.3 L3463.16 1087.18 L3458.28 1087.18 L3458.28 1081.3 Z" fill="#000000" fill-rule="nonzero" fill-opacity="1" /><path clip-path="url(#clip700)" d="M3473.39 1052.62 L3491.75 1052.62 L3491.75 1056.56 L3477.67 1056.56 L3477.67 1065.03 Q3478.69 1064.68 3479.71 1064.52 Q3480.73 1064.33 3481.75 1064.33 Q3487.54 1064.33 3490.92 1067.5 Q3494.3 1070.68 3494.3 1076.09 Q3494.3 1081.67 3490.82 1084.77 Q3487.35 1087.85 3481.03 1087.85 Q3478.86 1087.85 3476.59 1087.48 Q3474.34 1087.11 3471.93 1086.37 L3471.93 1081.67 Q3474.02 1082.8 3476.24 1083.36 Q3478.46 1083.92 3480.94 1083.92 Q3484.94 1083.92 3487.28 1081.81 Q3489.62 1079.7 3489.62 1076.09 Q3489.62 1072.48 3487.28 1070.37 Q3484.94 1068.27 3480.94 1068.27 Q3479.06 1068.27 3477.19 1068.68 Q3475.34 1069.1 3473.39 1069.98 L3473.39 1052.62 Z" fill="#000000" fill-rule="nonzero" fill-opacity="1" /><path clip-path="url(#clip700)" d="M1948.26 1127.7 Q1948.26 1128.32 1948.13 1128.83 L1946.33 1140.3 Q1946.23 1141.17 1946.04 1141.49 Q1945.88 1141.81 1945.36 1141.81 Q1944.56 1141.81 1944.56 1140.97 Q1944.56 1140.49 1944.75 1139.72 Q1945.3 1136.08 1945.3 1134.44 Q1945.3 1133.34 1945.07 1132.54 Q1944.88 1131.7 1944.56 1131.12 Q1944.27 1130.54 1943.59 1130.15 Q1942.92 1129.77 1942.27 1129.54 Q1941.63 1129.31 1940.47 1129.22 Q1939.31 1129.09 1938.31 1129.06 Q1937.31 1129.03 1935.67 1129.03 Q1932.1 1129.03 1931.52 1129.15 Q1930.9 1129.31 1930.58 1129.8 Q1930.29 1130.25 1929.97 1131.6 L1921.21 1166.61 L1920.95 1167.99 Q1920.95 1168.77 1921.44 1169.02 Q1921.92 1169.28 1923.4 1169.44 Q1925.53 1169.6 1927.62 1169.6 Q1927.68 1169.6 1927.81 1169.6 Q1928.52 1169.6 1928.81 1169.64 Q1929.1 1169.64 1929.39 1169.7 Q1929.68 1169.77 1929.74 1169.93 Q1929.84 1170.06 1929.84 1170.31 Q1929.84 1170.92 1929.58 1171.25 Q1929.33 1171.54 1929.07 1171.6 Q1928.84 1171.63 1928.39 1171.63 Q1927.49 1171.63 1925.56 1171.57 Q1923.63 1171.5 1922.66 1171.5 L1917.18 1171.44 L1911.58 1171.5 Q1910.71 1171.5 1908.87 1171.57 Q1907.04 1171.63 1906.17 1171.63 Q1905.04 1171.63 1905.04 1170.83 Q1905.04 1169.93 1905.46 1169.77 Q1905.91 1169.6 1907.81 1169.6 Q1910.49 1169.6 1911.93 1169.48 Q1913.38 1169.35 1914.16 1168.9 Q1914.96 1168.45 1915.19 1167.99 Q1915.41 1167.51 1915.67 1166.42 L1924.53 1131.22 Q1924.78 1130.44 1924.78 1129.83 Q1924.78 1129.51 1924.69 1129.38 Q1924.62 1129.25 1924.2 1129.15 Q1923.79 1129.03 1922.92 1129.03 L1920.34 1129.03 Q1917.7 1129.03 1916.06 1129.15 Q1914.45 1129.25 1912.9 1129.73 Q1911.39 1130.22 1910.49 1130.89 Q1909.62 1131.57 1908.65 1132.95 Q1907.68 1134.34 1906.97 1136.01 Q1906.3 1137.69 1905.33 1140.43 Q1905.01 1141.33 1904.82 1141.59 Q1904.66 1141.81 1904.21 1141.81 Q1903.88 1141.81 1903.63 1141.62 Q1903.4 1141.39 1903.4 1141.1 Q1903.72 1140.04 1903.79 1139.91 L1907.75 1128.28 Q1908.07 1127.35 1908.36 1127.19 Q1908.68 1127 1909.87 1127 L1946.46 1127 Q1947.04 1127 1947.23 1127 Q1947.43 1127 1947.75 1127.06 Q1948.07 1127.12 1948.17 1127.29 Q1948.26 1127.45 1948.26 1127.7 Z" fill="#000000" fill-rule="nonzero" fill-opacity="1" /><polyline clip-path="url(#clip700)" style="stroke:#000000; stroke-linecap:round; stroke-linejoin:round; stroke-width:4; stroke-opacity:1; fill:none" points="292.19,1015.18 292.19,47.2441 "/>
<polyline clip-path="url(#clip700)" style="stroke:#000000; stroke-linecap:round; stroke-linejoin:round; stroke-width:4; stroke-opacity:1; fill:none" points="292.19,851.229 311.088,851.229 "/>
<polyline clip-path="url(#clip700)" style="stroke:#000000; stroke-linecap:round; stroke-linejoin:round; stroke-width:4; stroke-opacity:1; fill:none" points="292.19,653.752 311.088,653.752 "/>
<polyline clip-path="url(#clip700)" style="stroke:#000000; stroke-linecap:round; stroke-linejoin:round; stroke-width:4; stroke-opacity:1; fill:none" points="292.19,456.275 311.088,456.275 "/>
<polyline clip-path="url(#clip700)" style="stroke:#000000; stroke-linecap:round; stroke-linejoin:round; stroke-width:4; stroke-opacity:1; fill:none" points="292.19,258.798 311.088,258.798 "/>
<polyline clip-path="url(#clip700)" style="stroke:#000000; stroke-linecap:round; stroke-linejoin:round; stroke-width:4; stroke-opacity:1; fill:none" points="292.19,61.3214 311.088,61.3214 "/>
<path clip-path="url(#clip700)" d="M182.612 837.028 Q179.001 837.028 177.172 840.592 Q175.366 844.134 175.366 851.264 Q175.366 858.37 177.172 861.935 Q179.001 865.476 182.612 865.476 Q186.246 865.476 188.051 861.935 Q189.88 858.37 189.88 851.264 Q189.88 844.134 188.051 840.592 Q186.246 837.028 182.612 837.028 M182.612 833.324 Q188.422 833.324 191.477 837.93 Q194.556 842.514 194.556 851.264 Q194.556 859.99 191.477 864.597 Q188.422 869.18 182.612 869.18 Q176.801 869.18 173.723 864.597 Q170.667 859.99 170.667 851.264 Q170.667 842.514 173.723 837.93 Q176.801 833.324 182.612 833.324 Z" fill="#000000" fill-rule="nonzero" fill-opacity="1" /><path clip-path="url(#clip700)" d="M202.774 862.629 L207.658 862.629 L207.658 868.509 L202.774 868.509 L202.774 862.629 Z" fill="#000000" fill-rule="nonzero" fill-opacity="1" /><path clip-path="url(#clip700)" d="M221.871 864.574 L238.19 864.574 L238.19 868.509 L216.246 868.509 L216.246 864.574 Q218.908 861.819 223.491 857.189 Q228.097 852.537 229.278 851.194 Q231.523 848.671 232.403 846.935 Q233.306 845.176 233.306 843.486 Q233.306 840.731 231.361 838.995 Q229.44 837.259 226.338 837.259 Q224.139 837.259 221.685 838.023 Q219.255 838.787 216.477 840.338 L216.477 835.616 Q219.301 834.481 221.755 833.903 Q224.209 833.324 226.246 833.324 Q231.616 833.324 234.81 836.009 Q238.005 838.694 238.005 843.185 Q238.005 845.315 237.195 847.236 Q236.408 849.134 234.301 851.727 Q233.722 852.398 230.621 855.615 Q227.519 858.81 221.871 864.574 Z" fill="#000000" fill-rule="nonzero" fill-opacity="1" /><path clip-path="url(#clip700)" d="M180.528 639.551 Q176.917 639.551 175.089 643.115 Q173.283 646.657 173.283 653.787 Q173.283 660.893 175.089 664.458 Q176.917 668 180.528 668 Q184.163 668 185.968 664.458 Q187.797 660.893 187.797 653.787 Q187.797 646.657 185.968 643.115 Q184.163 639.551 180.528 639.551 M180.528 635.847 Q186.338 635.847 189.394 640.453 Q192.473 645.037 192.473 653.787 Q192.473 662.514 189.394 667.12 Q186.338 671.703 180.528 671.703 Q174.718 671.703 171.639 667.12 Q168.584 662.514 168.584 653.787 Q168.584 645.037 171.639 640.453 Q174.718 635.847 180.528 635.847 Z" fill="#000000" fill-rule="nonzero" fill-opacity="1" /><path clip-path="url(#clip700)" d="M200.69 665.152 L205.574 665.152 L205.574 671.032 L200.69 671.032 L200.69 665.152 Z" fill="#000000" fill-rule="nonzero" fill-opacity="1" /><path clip-path="url(#clip700)" d="M228.607 640.546 L216.801 658.995 L228.607 658.995 L228.607 640.546 M227.38 636.472 L233.259 636.472 L233.259 658.995 L238.19 658.995 L238.19 662.884 L233.259 662.884 L233.259 671.032 L228.607 671.032 L228.607 662.884 L213.005 662.884 L213.005 658.37 L227.38 636.472 Z" fill="#000000" fill-rule="nonzero" fill-opacity="1" /><path clip-path="url(#clip700)" d="M180.852 442.074 Q177.241 442.074 175.413 445.639 Q173.607 449.18 173.607 456.31 Q173.607 463.416 175.413 466.981 Q177.241 470.523 180.852 470.523 Q184.487 470.523 186.292 466.981 Q188.121 463.416 188.121 456.31 Q188.121 449.18 186.292 445.639 Q184.487 442.074 180.852 442.074 M180.852 438.37 Q186.663 438.37 189.718 442.977 Q192.797 447.56 192.797 456.31 Q192.797 465.037 189.718 469.643 Q186.663 474.226 180.852 474.226 Q175.042 474.226 171.964 469.643 Q168.908 465.037 168.908 456.31 Q168.908 447.56 171.964 442.977 Q175.042 438.37 180.852 438.37 Z" fill="#000000" fill-rule="nonzero" fill-opacity="1" /><path clip-path="url(#clip700)" d="M201.014 467.676 L205.899 467.676 L205.899 473.555 L201.014 473.555 L201.014 467.676 Z" fill="#000000" fill-rule="nonzero" fill-opacity="1" /><path clip-path="url(#clip700)" d="M226.662 454.412 Q223.514 454.412 221.662 456.564 Q219.834 458.717 219.834 462.467 Q219.834 466.194 221.662 468.37 Q223.514 470.523 226.662 470.523 Q229.81 470.523 231.639 468.37 Q233.491 466.194 233.491 462.467 Q233.491 458.717 231.639 456.564 Q229.81 454.412 226.662 454.412 M235.945 439.759 L235.945 444.018 Q234.185 443.185 232.38 442.745 Q230.597 442.305 228.838 442.305 Q224.209 442.305 221.755 445.43 Q219.324 448.555 218.977 454.875 Q220.343 452.861 222.403 451.796 Q224.463 450.708 226.94 450.708 Q232.148 450.708 235.158 453.879 Q238.19 457.027 238.19 462.467 Q238.19 467.791 235.042 471.009 Q231.894 474.226 226.662 474.226 Q220.667 474.226 217.496 469.643 Q214.324 465.037 214.324 456.31 Q214.324 448.115 218.213 443.254 Q222.102 438.37 228.653 438.37 Q230.412 438.37 232.195 438.717 Q234 439.065 235.945 439.759 Z" fill="#000000" fill-rule="nonzero" fill-opacity="1" /><path clip-path="url(#clip700)" d="M181.107 244.597 Q177.496 244.597 175.667 248.162 Q173.862 251.703 173.862 258.833 Q173.862 265.939 175.667 269.504 Q177.496 273.046 181.107 273.046 Q184.741 273.046 186.547 269.504 Q188.375 265.939 188.375 258.833 Q188.375 251.703 186.547 248.162 Q184.741 244.597 181.107 244.597 M181.107 240.893 Q186.917 240.893 189.973 245.5 Q193.051 250.083 193.051 258.833 Q193.051 267.56 189.973 272.166 Q186.917 276.75 181.107 276.75 Q175.297 276.75 172.218 272.166 Q169.163 267.56 169.163 258.833 Q169.163 250.083 172.218 245.5 Q175.297 240.893 181.107 240.893 Z" fill="#000000" fill-rule="nonzero" fill-opacity="1" /><path clip-path="url(#clip700)" d="M201.269 270.199 L206.153 270.199 L206.153 276.078 L201.269 276.078 L201.269 270.199 Z" fill="#000000" fill-rule="nonzero" fill-opacity="1" /><path clip-path="url(#clip700)" d="M226.338 259.666 Q223.005 259.666 221.084 261.449 Q219.185 263.231 219.185 266.356 Q219.185 269.481 221.084 271.263 Q223.005 273.046 226.338 273.046 Q229.672 273.046 231.593 271.263 Q233.514 269.458 233.514 266.356 Q233.514 263.231 231.593 261.449 Q229.695 259.666 226.338 259.666 M221.662 257.676 Q218.653 256.935 216.963 254.875 Q215.297 252.815 215.297 249.852 Q215.297 245.708 218.236 243.301 Q221.199 240.893 226.338 240.893 Q231.5 240.893 234.44 243.301 Q237.38 245.708 237.38 249.852 Q237.38 252.815 235.69 254.875 Q234.023 256.935 231.037 257.676 Q234.417 258.463 236.292 260.754 Q238.19 263.046 238.19 266.356 Q238.19 271.379 235.111 274.064 Q232.056 276.75 226.338 276.75 Q220.621 276.75 217.542 274.064 Q214.486 271.379 214.486 266.356 Q214.486 263.046 216.385 260.754 Q218.283 258.463 221.662 257.676 M219.949 250.291 Q219.949 252.977 221.616 254.481 Q223.306 255.986 226.338 255.986 Q229.347 255.986 231.037 254.481 Q232.75 252.977 232.75 250.291 Q232.75 247.606 231.037 246.102 Q229.347 244.597 226.338 244.597 Q223.306 244.597 221.616 246.102 Q219.949 247.606 219.949 250.291 Z" fill="#000000" fill-rule="nonzero" fill-opacity="1" /><path clip-path="url(#clip700)" d="M171.825 74.6663 L179.463 74.6663 L179.463 48.3007 L171.153 49.9673 L171.153 45.7081 L179.417 44.0414 L184.093 44.0414 L184.093 74.6663 L191.732 74.6663 L191.732 78.6014 L171.825 78.6014 L171.825 74.6663 Z" fill="#000000" fill-rule="nonzero" fill-opacity="1" /><path clip-path="url(#clip700)" d="M201.176 72.7218 L206.061 72.7218 L206.061 78.6014 L201.176 78.6014 L201.176 72.7218 Z" fill="#000000" fill-rule="nonzero" fill-opacity="1" /><path clip-path="url(#clip700)" d="M226.246 47.1201 Q222.635 47.1201 220.806 50.6849 Q219 54.2266 219 61.3561 Q219 68.4626 220.806 72.0274 Q222.635 75.569 226.246 75.569 Q229.88 75.569 231.685 72.0274 Q233.514 68.4626 233.514 61.3561 Q233.514 54.2266 231.685 50.6849 Q229.88 47.1201 226.246 47.1201 M226.246 43.4164 Q232.056 43.4164 235.111 48.0229 Q238.19 52.6062 238.19 61.3561 Q238.19 70.083 235.111 74.6894 Q232.056 79.2727 226.246 79.2727 Q220.435 79.2727 217.357 74.6894 Q214.301 70.083 214.301 61.3561 Q214.301 52.6062 217.357 48.0229 Q220.435 43.4164 226.246 43.4164 Z" fill="#000000" fill-rule="nonzero" fill-opacity="1" /><path clip-path="url(#clip700)" d="M117.565 573.36 Q118.113 573.36 118.499 573.747 Q118.886 574.133 118.886 574.681 Q118.886 575.615 118.016 575.937 L86.3576 588.207 Q86.2288 588.272 85.9067 588.272 Q85.5847 588.272 85.4558 588.207 L53.7975 575.937 Q52.9279 575.615 52.9279 574.681 Q52.9279 574.133 53.3144 573.747 Q53.7009 573.36 54.2484 573.36 Q54.5704 573.36 54.6992 573.425 L85.9067 585.566 L117.114 573.425 Q117.243 573.36 117.565 573.36 Z" fill="#000000" fill-rule="nonzero" fill-opacity="1" /><path clip-path="url(#clip700)" d="M58.0809 496.797 Q59.0148 496.797 59.2081 497.216 Q59.4013 497.602 59.4013 498.89 Q59.4013 500.404 59.5301 501.338 Q59.6267 502.272 59.7878 502.852 Q59.9166 503.431 60.3675 503.786 Q60.8184 504.108 61.2048 504.237 Q61.5591 504.365 62.4287 504.591 L97.5652 513.351 Q98.7569 513.673 99.1755 513.673 Q99.5942 513.673 99.8519 513.415 Q100.11 513.125 100.238 512.417 Q100.335 511.708 100.367 511.161 Q100.367 510.581 100.367 509.389 Q100.367 507.908 100.625 507.683 Q100.786 507.554 101.076 507.554 Q101.688 507.554 102.01 507.811 Q102.3 508.069 102.364 508.294 Q102.396 508.488 102.396 508.81 Q102.396 510.162 102.3 512.932 Q102.203 515.702 102.203 517.054 L102.396 525.235 Q102.396 526.201 101.591 526.201 Q100.979 526.201 100.721 525.943 Q100.432 525.686 100.399 525.396 Q100.367 525.106 100.367 524.365 Q100.367 521.724 100.077 520.597 Q99.7875 519.438 99.2722 519.116 Q98.7247 518.761 97.2432 518.375 L59.4657 508.939 L59.4657 509.003 L101.205 535.637 L101.494 535.83 Q101.752 536.024 101.849 536.088 Q101.913 536.153 102.106 536.346 Q102.267 536.507 102.332 536.7 Q102.396 536.861 102.396 537.086 Q102.396 537.473 102.138 537.698 Q101.881 537.892 101.688 537.956 Q101.462 537.988 100.882 538.085 L59.981 543.753 L59.981 543.818 L95.9227 552.803 Q96.9211 553.061 97.4364 553.061 Q98.7569 553.061 99.562 552.127 Q100.335 551.16 100.367 548.584 Q100.367 547.392 101.076 547.392 Q102.396 547.392 102.396 548.584 Q102.396 549.679 102.3 551.966 Q102.203 554.252 102.203 555.379 Q102.203 556.474 102.3 558.697 Q102.396 560.887 102.396 561.949 Q102.396 562.883 101.591 562.883 Q100.367 562.883 100.367 561.692 Q100.303 559.759 99.9163 558.439 Q99.5298 557.119 98.7891 556.378 Q98.0483 555.605 97.3076 555.251 Q96.5347 554.864 95.4075 554.574 L61.8167 546.201 Q60.7539 545.943 60.5929 545.943 Q60.0454 545.943 59.8522 546.265 Q59.6267 546.555 59.5301 547.392 Q59.4013 549.003 59.4013 550.226 Q59.4013 551.032 59.3691 551.354 Q59.3369 551.644 59.1759 551.901 Q58.9826 552.127 58.5962 552.127 Q57.9842 552.127 57.7266 551.869 Q57.4367 551.579 57.4045 551.257 Q57.3401 550.935 57.3401 550.162 L57.3401 541.112 Q57.3401 539.792 57.5656 539.502 Q57.7588 539.212 58.8538 539.083 L96.1804 533.93 L58.5962 509.84 Q57.6622 509.228 57.5012 508.906 Q57.3401 508.584 57.3401 507.296 L57.3401 498.568 Q57.3401 497.86 57.3723 497.57 Q57.4045 497.28 57.5656 497.055 Q57.7266 496.797 58.0809 496.797 Z" fill="#000000" fill-rule="nonzero" fill-opacity="1" /><path clip-path="url(#clip700)" d="M85.4558 484.726 Q85.5847 484.661 85.9067 484.661 Q86.2288 484.661 86.3576 484.726 L118.016 496.996 Q118.886 497.318 118.886 498.22 Q118.886 498.768 118.499 499.154 Q118.113 499.541 117.565 499.541 Q117.243 499.541 117.114 499.476 L85.9067 487.367 L54.6992 499.476 Q54.5704 499.541 54.2484 499.541 Q53.7009 499.541 53.3144 499.154 Q52.9279 498.768 52.9279 498.22 Q52.9279 497.318 53.7975 496.996 L85.4558 484.726 Z" fill="#000000" fill-rule="nonzero" fill-opacity="1" /><circle clip-path="url(#clip702)" cx="384.47" cy="74.6466" r="18" fill="#e31a1c" fill-rule="evenodd" fill-opacity="1" stroke="none"/>
<circle clip-path="url(#clip702)" cx="538.27" cy="81.4318" r="18" fill="#e31a1c" fill-rule="evenodd" fill-opacity="1" stroke="none"/>
<circle clip-path="url(#clip702)" cx="692.071" cy="90.8781" r="18" fill="#e31a1c" fill-rule="evenodd" fill-opacity="1" stroke="none"/>
<circle clip-path="url(#clip702)" cx="845.871" cy="103.981" r="18" fill="#e31a1c" fill-rule="evenodd" fill-opacity="1" stroke="none"/>
<circle clip-path="url(#clip702)" cx="999.671" cy="122.193" r="18" fill="#e31a1c" fill-rule="evenodd" fill-opacity="1" stroke="none"/>
<circle clip-path="url(#clip702)" cx="1153.47" cy="149.208" r="18" fill="#e31a1c" fill-rule="evenodd" fill-opacity="1" stroke="none"/>
<circle clip-path="url(#clip702)" cx="1307.27" cy="190.955" r="18" fill="#e31a1c" fill-rule="evenodd" fill-opacity="1" stroke="none"/>
<circle clip-path="url(#clip702)" cx="1461.07" cy="262.692" r="18" fill="#e31a1c" fill-rule="evenodd" fill-opacity="1" stroke="none"/>
<circle clip-path="url(#clip702)" cx="1614.87" cy="384.319" r="18" fill="#e31a1c" fill-rule="evenodd" fill-opacity="1" stroke="none"/>
<circle clip-path="url(#clip702)" cx="1768.67" cy="539.344" r="18" fill="#e31a1c" fill-rule="evenodd" fill-opacity="1" stroke="none"/>
<circle clip-path="url(#clip702)" cx="1922.47" cy="660.242" r="18" fill="#e31a1c" fill-rule="evenodd" fill-opacity="1" stroke="none"/>
<circle clip-path="url(#clip702)" cx="2076.27" cy="749.881" r="18" fill="#e31a1c" fill-rule="evenodd" fill-opacity="1" stroke="none"/>
<circle clip-path="url(#clip702)" cx="2230.07" cy="802.441" r="18" fill="#e31a1c" fill-rule="evenodd" fill-opacity="1" stroke="none"/>
<circle clip-path="url(#clip702)" cx="2383.87" cy="836.942" r="18" fill="#e31a1c" fill-rule="evenodd" fill-opacity="1" stroke="none"/>
<circle clip-path="url(#clip702)" cx="2537.67" cy="860.823" r="18" fill="#e31a1c" fill-rule="evenodd" fill-opacity="1" stroke="none"/>
<circle clip-path="url(#clip702)" cx="2691.47" cy="879.379" r="18" fill="#e31a1c" fill-rule="evenodd" fill-opacity="1" stroke="none"/>
<circle clip-path="url(#clip702)" cx="2845.27" cy="892.589" r="18" fill="#e31a1c" fill-rule="evenodd" fill-opacity="1" stroke="none"/>
<circle clip-path="url(#clip702)" cx="2999.07" cy="904.054" r="18" fill="#e31a1c" fill-rule="evenodd" fill-opacity="1" stroke="none"/>
<circle clip-path="url(#clip702)" cx="3152.88" cy="913.16" r="18" fill="#e31a1c" fill-rule="evenodd" fill-opacity="1" stroke="none"/>
<circle clip-path="url(#clip702)" cx="3306.68" cy="920.127" r="18" fill="#e31a1c" fill-rule="evenodd" fill-opacity="1" stroke="none"/>
<circle clip-path="url(#clip702)" cx="3460.48" cy="926.38" r="18" fill="#e31a1c" fill-rule="evenodd" fill-opacity="1" stroke="none"/>
<path clip-path="url(#clip702)" d="M364.47 54.6385 L364.47 94.6385 L404.47 94.6385 L404.47 54.6385 L364.47 54.6385 Z" fill="#ff7e00" fill-rule="evenodd" fill-opacity="1" stroke="none"/>
<path clip-path="url(#clip702)" d="M518.27 61.4344 L518.27 101.434 L558.27 101.434 L558.27 61.4344 L518.27 61.4344 Z" fill="#ff7e00" fill-rule="evenodd" fill-opacity="1" stroke="none"/>
<path clip-path="url(#clip702)" d="M672.071 70.8694 L672.071 110.869 L712.071 110.869 L712.071 70.8694 L672.071 70.8694 Z" fill="#ff7e00" fill-rule="evenodd" fill-opacity="1" stroke="none"/>
<path clip-path="url(#clip702)" d="M825.871 83.7862 L825.871 123.786 L865.871 123.786 L865.871 83.7862 L825.871 83.7862 Z" fill="#ff7e00" fill-rule="evenodd" fill-opacity="1" stroke="none"/>
<path clip-path="url(#clip702)" d="M979.671 102.418 L979.671 142.418 L1019.67 142.418 L1019.67 102.418 L979.671 102.418 Z" fill="#ff7e00" fill-rule="evenodd" fill-opacity="1" stroke="none"/>
<path clip-path="url(#clip702)" d="M1133.47 128.87 L1133.47 168.87 L1173.47 168.87 L1173.47 128.87 L1133.47 128.87 Z" fill="#ff7e00" fill-rule="evenodd" fill-opacity="1" stroke="none"/>
<path clip-path="url(#clip702)" d="M1287.27 170.459 L1287.27 210.459 L1327.27 210.459 L1327.27 170.459 L1287.27 170.459 Z" fill="#ff7e00" fill-rule="evenodd" fill-opacity="1" stroke="none"/>
<path clip-path="url(#clip702)" d="M1441.07 250.485 L1441.07 290.485 L1481.07 290.485 L1481.07 250.485 L1441.07 250.485 Z" fill="#ff7e00" fill-rule="evenodd" fill-opacity="1" stroke="none"/>
<path clip-path="url(#clip702)" d="M1594.87 418.68 L1594.87 458.68 L1634.87 458.68 L1634.87 418.68 L1594.87 418.68 Z" fill="#ff7e00" fill-rule="evenodd" fill-opacity="1" stroke="none"/>
<path clip-path="url(#clip702)" d="M1748.67 633.882 L1748.67 673.882 L1788.67 673.882 L1788.67 633.882 L1748.67 633.882 Z" fill="#ff7e00" fill-rule="evenodd" fill-opacity="1" stroke="none"/>
<path clip-path="url(#clip702)" d="M1902.47 759.687 L1902.47 799.687 L1942.47 799.687 L1942.47 759.687 L1902.47 759.687 Z" fill="#ff7e00" fill-rule="evenodd" fill-opacity="1" stroke="none"/>
<path clip-path="url(#clip702)" d="M2056.27 830.594 L2056.27 870.594 L2096.27 870.594 L2096.27 830.594 L2056.27 830.594 Z" fill="#ff7e00" fill-rule="evenodd" fill-opacity="1" stroke="none"/>
<path clip-path="url(#clip702)" d="M2210.07 866.031 L2210.07 906.031 L2250.07 906.031 L2250.07 866.031 L2210.07 866.031 Z" fill="#ff7e00" fill-rule="evenodd" fill-opacity="1" stroke="none"/>
<path clip-path="url(#clip702)" d="M2363.87 889.765 L2363.87 929.765 L2403.87 929.765 L2403.87 889.765 L2363.87 889.765 Z" fill="#ff7e00" fill-rule="evenodd" fill-opacity="1" stroke="none"/>
<path clip-path="url(#clip702)" d="M2517.67 904.998 L2517.67 944.998 L2557.67 944.998 L2557.67 904.998 L2517.67 904.998 Z" fill="#ff7e00" fill-rule="evenodd" fill-opacity="1" stroke="none"/>
<path clip-path="url(#clip702)" d="M2671.47 915.983 L2671.47 955.983 L2711.47 955.983 L2711.47 915.983 L2671.47 915.983 Z" fill="#ff7e00" fill-rule="evenodd" fill-opacity="1" stroke="none"/>
<path clip-path="url(#clip702)" d="M2825.27 925.338 L2825.27 965.338 L2865.27 965.338 L2865.27 925.338 L2825.27 925.338 Z" fill="#ff7e00" fill-rule="evenodd" fill-opacity="1" stroke="none"/>
<path clip-path="url(#clip702)" d="M2979.07 932.481 L2979.07 972.481 L3019.07 972.481 L3019.07 932.481 L2979.07 932.481 Z" fill="#ff7e00" fill-rule="evenodd" fill-opacity="1" stroke="none"/>
<path clip-path="url(#clip702)" d="M3132.88 937.988 L3132.88 977.988 L3172.88 977.988 L3172.88 937.988 L3132.88 937.988 Z" fill="#ff7e00" fill-rule="evenodd" fill-opacity="1" stroke="none"/>
<path clip-path="url(#clip702)" d="M3286.68 943.771 L3286.68 983.771 L3326.68 983.771 L3326.68 943.771 L3286.68 943.771 Z" fill="#ff7e00" fill-rule="evenodd" fill-opacity="1" stroke="none"/>
<path clip-path="url(#clip702)" d="M3440.48 947.167 L3440.48 987.167 L3480.48 987.167 L3480.48 947.167 L3440.48 947.167 Z" fill="#ff7e00" fill-rule="evenodd" fill-opacity="1" stroke="none"/>
<path clip-path="url(#clip702)" d="M384.47 79.4237 L364.47 99.4237 L384.47 119.424 L404.47 99.4237 L384.47 79.4237 Z" fill="#999999" fill-rule="evenodd" fill-opacity="1" stroke="none"/>
<path clip-path="url(#clip702)" d="M538.27 98.036 L518.27 118.036 L538.27 138.036 L558.27 118.036 L538.27 98.036 Z" fill="#999999" fill-rule="evenodd" fill-opacity="1" stroke="none"/>
<path clip-path="url(#clip702)" d="M692.071 77.3946 L672.071 97.3946 L692.071 117.395 L712.071 97.3946 L692.071 77.3946 Z" fill="#999999" fill-rule="evenodd" fill-opacity="1" stroke="none"/>
<path clip-path="url(#clip702)" d="M845.871 86.4907 L825.871 106.491 L845.871 126.491 L865.871 106.491 L845.871 86.4907 Z" fill="#999999" fill-rule="evenodd" fill-opacity="1" stroke="none"/>
<path clip-path="url(#clip702)" d="M999.671 102.44 L979.671 122.44 L999.671 142.44 L1019.67 122.44 L999.671 102.44 Z" fill="#999999" fill-rule="evenodd" fill-opacity="1" stroke="none"/>
<path clip-path="url(#clip702)" d="M1153.47 129.002 L1133.47 149.002 L1153.47 169.002 L1173.47 149.002 L1153.47 129.002 Z" fill="#999999" fill-rule="evenodd" fill-opacity="1" stroke="none"/>
<path clip-path="url(#clip702)" d="M1307.27 170.885 L1287.27 190.885 L1307.27 210.885 L1327.27 190.885 L1307.27 170.885 Z" fill="#999999" fill-rule="evenodd" fill-opacity="1" stroke="none"/>
<path clip-path="url(#clip702)" d="M1461.07 254.813 L1441.07 274.813 L1461.07 294.813 L1481.07 274.813 L1461.07 254.813 Z" fill="#999999" fill-rule="evenodd" fill-opacity="1" stroke="none"/>
<path clip-path="url(#clip702)" d="M1614.87 458.747 L1594.87 478.747 L1614.87 498.747 L1634.87 478.747 L1614.87 458.747 Z" fill="#999999" fill-rule="evenodd" fill-opacity="1" stroke="none"/>
<path clip-path="url(#clip702)" d="M1768.67 716.043 L1748.67 736.043 L1768.67 756.043 L1788.67 736.043 L1768.67 716.043 Z" fill="#999999" fill-rule="evenodd" fill-opacity="1" stroke="none"/>
<path clip-path="url(#clip702)" d="M1922.47 829.729 L1902.47 849.729 L1922.47 869.729 L1942.47 849.729 L1922.47 829.729 Z" fill="#999999" fill-rule="evenodd" fill-opacity="1" stroke="none"/>
<path clip-path="url(#clip702)" d="M2076.27 881.024 L2056.27 901.024 L2076.27 921.024 L2096.27 901.024 L2076.27 881.024 Z" fill="#999999" fill-rule="evenodd" fill-opacity="1" stroke="none"/>
<path clip-path="url(#clip702)" d="M2230.07 907.182 L2210.07 927.182 L2230.07 947.182 L2250.07 927.182 L2230.07 907.182 Z" fill="#999999" fill-rule="evenodd" fill-opacity="1" stroke="none"/>
<path clip-path="url(#clip702)" d="M2383.87 924.873 L2363.87 944.873 L2383.87 964.873 L2403.87 944.873 L2383.87 924.873 Z" fill="#999999" fill-rule="evenodd" fill-opacity="1" stroke="none"/>
<path clip-path="url(#clip702)" d="M2537.67 936.028 L2517.67 956.028 L2537.67 976.028 L2557.67 956.028 L2537.67 936.028 Z" fill="#999999" fill-rule="evenodd" fill-opacity="1" stroke="none"/>
<path clip-path="url(#clip702)" d="M2691.47 944.214 L2671.47 964.214 L2691.47 984.214 L2711.47 964.214 L2691.47 944.214 Z" fill="#999999" fill-rule="evenodd" fill-opacity="1" stroke="none"/>
<path clip-path="url(#clip702)" d="M2845.27 951.957 L2825.27 971.957 L2845.27 991.957 L2865.27 971.957 L2845.27 951.957 Z" fill="#999999" fill-rule="evenodd" fill-opacity="1" stroke="none"/>
<path clip-path="url(#clip702)" d="M2999.07 956.534 L2979.07 976.534 L2999.07 996.534 L3019.07 976.534 L2999.07 956.534 Z" fill="#999999" fill-rule="evenodd" fill-opacity="1" stroke="none"/>
<path clip-path="url(#clip702)" d="M3152.88 960.709 L3132.88 980.709 L3152.88 1000.71 L3172.88 980.709 L3152.88 960.709 Z" fill="#999999" fill-rule="evenodd" fill-opacity="1" stroke="none"/>
<path clip-path="url(#clip702)" d="M3306.68 964.969 L3286.68 984.969 L3306.68 1004.97 L3326.68 984.969 L3306.68 964.969 Z" fill="#999999" fill-rule="evenodd" fill-opacity="1" stroke="none"/>
<path clip-path="url(#clip702)" d="M3460.48 967.785 L3440.48 987.785 L3460.48 1007.79 L3480.48 987.785 L3460.48 967.785 Z" fill="#999999" fill-rule="evenodd" fill-opacity="1" stroke="none"/>
<path clip-path="url(#clip700)" d="M2998.87 286.869 L3444.07 286.869 L3444.07 79.5086 L2998.87 79.5086  Z" fill="#ffffff" fill-rule="evenodd" fill-opacity="1"/>
<polyline clip-path="url(#clip700)" style="stroke:#000000; stroke-linecap:round; stroke-linejoin:round; stroke-width:4; stroke-opacity:1; fill:none" points="2998.87,286.869 3444.07,286.869 3444.07,79.5086 2998.87,79.5086 2998.87,286.869 "/>
<circle clip-path="url(#clip700)" cx="3143.78" cy="131.349" r="23.04" fill="#e31a1c" fill-rule="evenodd" fill-opacity="1" stroke="none"/>
<path clip-path="url(#clip700)" d="M3288.7 114.069 L3293.37 114.069 L3293.37 144.693 L3310.2 144.693 L3310.2 148.629 L3288.7 148.629 L3288.7 114.069 Z" fill="#000000" fill-rule="nonzero" fill-opacity="1" /><path clip-path="url(#clip700)" d="M3315.48 127.101 L3345.16 127.101 L3345.16 130.99 L3315.48 130.99 L3315.48 127.101 M3315.48 136.545 L3345.16 136.545 L3345.16 140.481 L3315.48 140.481 L3315.48 136.545 Z" fill="#000000" fill-rule="nonzero" fill-opacity="1" /><path clip-path="url(#clip700)" d="M3356.06 144.693 L3363.7 144.693 L3363.7 118.328 L3355.39 119.995 L3355.39 115.735 L3363.65 114.069 L3368.33 114.069 L3368.33 144.693 L3375.97 144.693 L3375.97 148.629 L3356.06 148.629 L3356.06 144.693 Z" fill="#000000" fill-rule="nonzero" fill-opacity="1" /><path clip-path="url(#clip700)" d="M3395.99 129.485 Q3392.84 129.485 3390.99 131.638 Q3389.16 133.791 3389.16 137.541 Q3389.16 141.268 3390.99 143.443 Q3392.84 145.596 3395.99 145.596 Q3399.14 145.596 3400.97 143.443 Q3402.82 141.268 3402.82 137.541 Q3402.82 133.791 3400.97 131.638 Q3399.14 129.485 3395.99 129.485 M3405.27 114.833 L3405.27 119.092 Q3403.51 118.258 3401.71 117.819 Q3399.93 117.379 3398.17 117.379 Q3393.54 117.379 3391.08 120.504 Q3388.65 123.629 3388.3 129.948 Q3389.67 127.934 3391.73 126.869 Q3393.79 125.782 3396.27 125.782 Q3401.48 125.782 3404.49 128.953 Q3407.52 132.101 3407.52 137.541 Q3407.52 142.865 3404.37 146.082 Q3401.22 149.3 3395.99 149.3 Q3389.99 149.3 3386.82 144.717 Q3383.65 140.11 3383.65 131.383 Q3383.65 123.189 3387.54 118.328 Q3391.43 113.444 3397.98 113.444 Q3399.74 113.444 3401.52 113.791 Q3403.33 114.138 3405.27 114.833 Z" fill="#000000" fill-rule="nonzero" fill-opacity="1" /><path clip-path="url(#clip700)" d="M3118.18 157.589 L3118.18 208.789 L3169.38 208.789 L3169.38 157.589 L3118.18 157.589 Z" fill="#ff7e00" fill-rule="evenodd" fill-opacity="1" stroke="none"/>
<path clip-path="url(#clip700)" d="M3288.7 165.909 L3293.37 165.909 L3293.37 196.533 L3310.2 196.533 L3310.2 200.469 L3288.7 200.469 L3288.7 165.909 Z" fill="#000000" fill-rule="nonzero" fill-opacity="1" /><path clip-path="url(#clip700)" d="M3315.48 178.941 L3345.16 178.941 L3345.16 182.83 L3315.48 182.83 L3315.48 178.941 M3315.48 188.385 L3345.16 188.385 L3345.16 192.321 L3315.48 192.321 L3315.48 188.385 Z" fill="#000000" fill-rule="nonzero" fill-opacity="1" /><path clip-path="url(#clip700)" d="M3359.28 196.533 L3375.6 196.533 L3375.6 200.469 L3353.65 200.469 L3353.65 196.533 Q3356.31 193.779 3360.9 189.149 Q3365.5 184.496 3366.68 183.154 Q3368.93 180.631 3369.81 178.895 Q3370.71 177.135 3370.71 175.446 Q3370.71 172.691 3368.77 170.955 Q3366.85 169.219 3363.74 169.219 Q3361.55 169.219 3359.09 169.983 Q3356.66 170.747 3353.88 172.297 L3353.88 167.575 Q3356.71 166.441 3359.16 165.862 Q3361.62 165.284 3363.65 165.284 Q3369.02 165.284 3372.22 167.969 Q3375.41 170.654 3375.41 175.145 Q3375.41 177.274 3374.6 179.196 Q3373.81 181.094 3371.71 183.686 Q3371.13 184.358 3368.03 187.575 Q3364.93 190.77 3359.28 196.533 Z" fill="#000000" fill-rule="nonzero" fill-opacity="1" /><path clip-path="url(#clip700)" d="M3398.26 169.983 L3386.45 188.432 L3398.26 188.432 L3398.26 169.983 M3397.03 165.909 L3402.91 165.909 L3402.91 188.432 L3407.84 188.432 L3407.84 192.321 L3402.91 192.321 L3402.91 200.469 L3398.26 200.469 L3398.26 192.321 L3382.66 192.321 L3382.66 187.807 L3397.03 165.909 Z" fill="#000000" fill-rule="nonzero" fill-opacity="1" /><path clip-path="url(#clip700)" d="M3143.78 209.429 L3118.18 235.029 L3143.78 260.629 L3169.38 235.029 L3143.78 209.429 Z" fill="#999999" fill-rule="evenodd" fill-opacity="1" stroke="none"/>
<path clip-path="url(#clip700)" d="M3288.7 217.749 L3293.37 217.749 L3293.37 248.373 L3310.2 248.373 L3310.2 252.309 L3288.7 252.309 L3288.7 217.749 Z" fill="#000000" fill-rule="nonzero" fill-opacity="1" /><path clip-path="url(#clip700)" d="M3315.48 230.781 L3345.16 230.781 L3345.16 234.67 L3315.48 234.67 L3315.48 230.781 M3315.48 240.225 L3345.16 240.225 L3345.16 244.161 L3315.48 244.161 L3315.48 240.225 Z" fill="#000000" fill-rule="nonzero" fill-opacity="1" /><path clip-path="url(#clip700)" d="M3369.42 233.674 Q3372.77 234.392 3374.65 236.661 Q3376.55 238.929 3376.55 242.262 Q3376.55 247.378 3373.03 250.179 Q3369.51 252.98 3363.03 252.98 Q3360.85 252.98 3358.54 252.54 Q3356.24 252.123 3353.79 251.267 L3353.79 246.753 Q3355.74 247.887 3358.05 248.466 Q3360.37 249.045 3362.89 249.045 Q3367.29 249.045 3369.58 247.309 Q3371.89 245.573 3371.89 242.262 Q3371.89 239.207 3369.74 237.494 Q3367.61 235.758 3363.79 235.758 L3359.76 235.758 L3359.76 231.915 L3363.98 231.915 Q3367.43 231.915 3369.25 230.549 Q3371.08 229.161 3371.08 226.568 Q3371.08 223.906 3369.18 222.494 Q3367.31 221.059 3363.79 221.059 Q3361.87 221.059 3359.67 221.475 Q3357.47 221.892 3354.83 222.772 L3354.83 218.605 Q3357.49 217.864 3359.81 217.494 Q3362.15 217.124 3364.21 217.124 Q3369.53 217.124 3372.63 219.554 Q3375.74 221.962 3375.74 226.082 Q3375.74 228.952 3374.09 230.943 Q3372.45 232.911 3369.42 233.674 Z" fill="#000000" fill-rule="nonzero" fill-opacity="1" /><path clip-path="url(#clip700)" d="M3389.44 248.373 L3405.76 248.373 L3405.76 252.309 L3383.81 252.309 L3383.81 248.373 Q3386.48 245.619 3391.06 240.989 Q3395.67 236.336 3396.85 234.994 Q3399.09 232.471 3399.97 230.735 Q3400.87 228.975 3400.87 227.286 Q3400.87 224.531 3398.93 222.795 Q3397.01 221.059 3393.91 221.059 Q3391.71 221.059 3389.25 221.823 Q3386.82 222.587 3384.05 224.137 L3384.05 219.415 Q3386.87 218.281 3389.32 217.702 Q3391.78 217.124 3393.81 217.124 Q3399.18 217.124 3402.38 219.809 Q3405.57 222.494 3405.57 226.985 Q3405.57 229.114 3404.76 231.036 Q3403.98 232.934 3401.87 235.526 Q3401.29 236.198 3398.19 239.415 Q3395.09 242.61 3389.44 248.373 Z" fill="#000000" fill-rule="nonzero" fill-opacity="1" /><path clip-path="url(#clip700)" d="M292.19 2215.18 L3552.76 2215.18 L3552.76 1247.24 L292.19 1247.24  Z" fill="#ffffff" fill-rule="evenodd" fill-opacity="1"/>
<defs>
  <clipPath id="clip703">
    <rect x="292" y="1247" width="3262" height="969"/>
  </clipPath>
</defs>
<polyline clip-path="url(#clip700)" style="stroke:#000000; stroke-linecap:round; stroke-linejoin:round; stroke-width:4; stroke-opacity:1; fill:none" points="292.19,2215.18 3552.76,2215.18 "/>
<polyline clip-path="url(#clip700)" style="stroke:#000000; stroke-linecap:round; stroke-linejoin:round; stroke-width:4; stroke-opacity:1; fill:none" points="384.47,2215.18 384.47,2196.28 "/>
<polyline clip-path="url(#clip700)" style="stroke:#000000; stroke-linecap:round; stroke-linejoin:round; stroke-width:4; stroke-opacity:1; fill:none" points="1153.47,2215.18 1153.47,2196.28 "/>
<polyline clip-path="url(#clip700)" style="stroke:#000000; stroke-linecap:round; stroke-linejoin:round; stroke-width:4; stroke-opacity:1; fill:none" points="1922.47,2215.18 1922.47,2196.28 "/>
<polyline clip-path="url(#clip700)" style="stroke:#000000; stroke-linecap:round; stroke-linejoin:round; stroke-width:4; stroke-opacity:1; fill:none" points="2691.47,2215.18 2691.47,2196.28 "/>
<polyline clip-path="url(#clip700)" style="stroke:#000000; stroke-linecap:round; stroke-linejoin:round; stroke-width:4; stroke-opacity:1; fill:none" points="3460.48,2215.18 3460.48,2196.28 "/>
<path clip-path="url(#clip700)" d="M352.121 2283.24 L359.76 2283.24 L359.76 2256.88 L351.45 2258.55 L351.45 2254.29 L359.713 2252.62 L364.389 2252.62 L364.389 2283.24 L372.028 2283.24 L372.028 2287.18 L352.121 2287.18 L352.121 2283.24 Z" fill="#000000" fill-rule="nonzero" fill-opacity="1" /><path clip-path="url(#clip700)" d="M381.473 2281.3 L386.357 2281.3 L386.357 2287.18 L381.473 2287.18 L381.473 2281.3 Z" fill="#000000" fill-rule="nonzero" fill-opacity="1" /><path clip-path="url(#clip700)" d="M396.588 2252.62 L414.945 2252.62 L414.945 2256.56 L400.871 2256.56 L400.871 2265.03 Q401.889 2264.68 402.908 2264.52 Q403.926 2264.33 404.945 2264.33 Q410.732 2264.33 414.111 2267.5 Q417.491 2270.68 417.491 2276.09 Q417.491 2281.67 414.019 2284.77 Q410.546 2287.85 404.227 2287.85 Q402.051 2287.85 399.783 2287.48 Q397.537 2287.11 395.13 2286.37 L395.13 2281.67 Q397.213 2282.8 399.435 2283.36 Q401.658 2283.92 404.134 2283.92 Q408.139 2283.92 410.477 2281.81 Q412.815 2279.7 412.815 2276.09 Q412.815 2272.48 410.477 2270.37 Q408.139 2268.27 404.134 2268.27 Q402.259 2268.27 400.384 2268.68 Q398.533 2269.1 396.588 2269.98 L396.588 2252.62 Z" fill="#000000" fill-rule="nonzero" fill-opacity="1" /><path clip-path="url(#clip700)" d="M1124.71 2283.24 L1141.03 2283.24 L1141.03 2287.18 L1119.09 2287.18 L1119.09 2283.24 Q1121.75 2280.49 1126.33 2275.86 Q1130.94 2271.21 1132.12 2269.87 Q1134.36 2267.34 1135.24 2265.61 Q1136.15 2263.85 1136.15 2262.16 Q1136.15 2259.4 1134.2 2257.67 Q1132.28 2255.93 1129.18 2255.93 Q1126.98 2255.93 1124.52 2256.69 Q1122.09 2257.46 1119.32 2259.01 L1119.32 2254.29 Q1122.14 2253.15 1124.59 2252.57 Q1127.05 2251.99 1129.09 2251.99 Q1134.46 2251.99 1137.65 2254.68 Q1140.84 2257.37 1140.84 2261.86 Q1140.84 2263.99 1140.03 2265.91 Q1139.25 2267.8 1137.14 2270.4 Q1136.56 2271.07 1133.46 2274.29 Q1130.36 2277.48 1124.71 2283.24 Z" fill="#000000" fill-rule="nonzero" fill-opacity="1" /><path clip-path="url(#clip700)" d="M1150.84 2281.3 L1155.73 2281.3 L1155.73 2287.18 L1150.84 2287.18 L1150.84 2281.3 Z" fill="#000000" fill-rule="nonzero" fill-opacity="1" /><path clip-path="url(#clip700)" d="M1175.91 2255.7 Q1172.3 2255.7 1170.47 2259.26 Q1168.67 2262.8 1168.67 2269.93 Q1168.67 2277.04 1170.47 2280.61 Q1172.3 2284.15 1175.91 2284.15 Q1179.55 2284.15 1181.35 2280.61 Q1183.18 2277.04 1183.18 2269.93 Q1183.18 2262.8 1181.35 2259.26 Q1179.55 2255.7 1175.91 2255.7 M1175.91 2251.99 Q1181.72 2251.99 1184.78 2256.6 Q1187.86 2261.18 1187.86 2269.93 Q1187.86 2278.66 1184.78 2283.27 Q1181.72 2287.85 1175.91 2287.85 Q1170.1 2287.85 1167.02 2283.27 Q1163.97 2278.66 1163.97 2269.93 Q1163.97 2261.18 1167.02 2256.6 Q1170.1 2251.99 1175.91 2251.99 Z" fill="#000000" fill-rule="nonzero" fill-opacity="1" /><path clip-path="url(#clip700)" d="M1894.21 2283.24 L1910.53 2283.24 L1910.53 2287.18 L1888.58 2287.18 L1888.58 2283.24 Q1891.25 2280.49 1895.83 2275.86 Q1900.44 2271.21 1901.62 2269.87 Q1903.86 2267.34 1904.74 2265.61 Q1905.64 2263.85 1905.64 2262.16 Q1905.64 2259.4 1903.7 2257.67 Q1901.78 2255.93 1898.68 2255.93 Q1896.48 2255.93 1894.02 2256.69 Q1891.59 2257.46 1888.82 2259.01 L1888.82 2254.29 Q1891.64 2253.15 1894.09 2252.57 Q1896.55 2251.99 1898.58 2251.99 Q1903.95 2251.99 1907.15 2254.68 Q1910.34 2257.37 1910.34 2261.86 Q1910.34 2263.99 1909.53 2265.91 Q1908.75 2267.8 1906.64 2270.4 Q1906.06 2271.07 1902.96 2274.29 Q1899.86 2277.48 1894.21 2283.24 Z" fill="#000000" fill-rule="nonzero" fill-opacity="1" /><path clip-path="url(#clip700)" d="M1920.34 2281.3 L1925.23 2281.3 L1925.23 2287.18 L1920.34 2287.18 L1920.34 2281.3 Z" fill="#000000" fill-rule="nonzero" fill-opacity="1" /><path clip-path="url(#clip700)" d="M1935.46 2252.62 L1953.82 2252.62 L1953.82 2256.56 L1939.74 2256.56 L1939.74 2265.03 Q1940.76 2264.68 1941.78 2264.52 Q1942.8 2264.33 1943.82 2264.33 Q1949.6 2264.33 1952.98 2267.5 Q1956.36 2270.68 1956.36 2276.09 Q1956.36 2281.67 1952.89 2284.77 Q1949.42 2287.85 1943.1 2287.85 Q1940.92 2287.85 1938.65 2287.48 Q1936.41 2287.11 1934 2286.37 L1934 2281.67 Q1936.08 2282.8 1938.31 2283.36 Q1940.53 2283.92 1943.01 2283.92 Q1947.01 2283.92 1949.35 2281.81 Q1951.69 2279.7 1951.69 2276.09 Q1951.69 2272.48 1949.35 2270.37 Q1947.01 2268.27 1943.01 2268.27 Q1941.13 2268.27 1939.26 2268.68 Q1937.4 2269.1 1935.46 2269.98 L1935.46 2252.62 Z" fill="#000000" fill-rule="nonzero" fill-opacity="1" /><path clip-path="url(#clip700)" d="M2672.78 2268.55 Q2676.14 2269.26 2678.01 2271.53 Q2679.91 2273.8 2679.91 2277.13 Q2679.91 2282.25 2676.39 2285.05 Q2672.87 2287.85 2666.39 2287.85 Q2664.22 2287.85 2661.9 2287.41 Q2659.61 2286.99 2657.16 2286.14 L2657.16 2281.62 Q2659.1 2282.76 2661.42 2283.34 Q2663.73 2283.92 2666.25 2283.92 Q2670.65 2283.92 2672.94 2282.18 Q2675.26 2280.44 2675.26 2277.13 Q2675.26 2274.08 2673.11 2272.37 Q2670.98 2270.63 2667.16 2270.63 L2663.13 2270.63 L2663.13 2266.79 L2667.34 2266.79 Q2670.79 2266.79 2672.62 2265.42 Q2674.45 2264.03 2674.45 2261.44 Q2674.45 2258.78 2672.55 2257.37 Q2670.68 2255.93 2667.16 2255.93 Q2665.24 2255.93 2663.04 2256.35 Q2660.84 2256.76 2658.2 2257.64 L2658.2 2253.48 Q2660.86 2252.74 2663.18 2252.37 Q2665.51 2251.99 2667.57 2251.99 Q2672.9 2251.99 2676 2254.43 Q2679.1 2256.83 2679.1 2260.95 Q2679.1 2263.82 2677.46 2265.81 Q2675.81 2267.78 2672.78 2268.55 Z" fill="#000000" fill-rule="nonzero" fill-opacity="1" /><path clip-path="url(#clip700)" d="M2688.78 2281.3 L2693.66 2281.3 L2693.66 2287.18 L2688.78 2287.18 L2688.78 2281.3 Z" fill="#000000" fill-rule="nonzero" fill-opacity="1" /><path clip-path="url(#clip700)" d="M2713.85 2255.7 Q2710.24 2255.7 2708.41 2259.26 Q2706.6 2262.8 2706.6 2269.93 Q2706.6 2277.04 2708.41 2280.61 Q2710.24 2284.15 2713.85 2284.15 Q2717.48 2284.15 2719.29 2280.61 Q2721.12 2277.04 2721.12 2269.93 Q2721.12 2262.8 2719.29 2259.26 Q2717.48 2255.7 2713.85 2255.7 M2713.85 2251.99 Q2719.66 2251.99 2722.71 2256.6 Q2725.79 2261.18 2725.79 2269.93 Q2725.79 2278.66 2722.71 2283.27 Q2719.66 2287.85 2713.85 2287.85 Q2708.04 2287.85 2704.96 2283.27 Q2701.9 2278.66 2701.9 2269.93 Q2701.9 2261.18 2704.96 2256.6 Q2708.04 2251.99 2713.85 2251.99 Z" fill="#000000" fill-rule="nonzero" fill-opacity="1" /><path clip-path="url(#clip700)" d="M3442.28 2268.55 Q3445.64 2269.26 3447.51 2271.53 Q3449.41 2273.8 3449.41 2277.13 Q3449.41 2282.25 3445.89 2285.05 Q3442.37 2287.85 3435.89 2287.85 Q3433.72 2287.85 3431.4 2287.41 Q3429.11 2286.99 3426.66 2286.14 L3426.66 2281.62 Q3428.6 2282.76 3430.92 2283.34 Q3433.23 2283.92 3435.75 2283.92 Q3440.15 2283.92 3442.44 2282.18 Q3444.76 2280.44 3444.76 2277.13 Q3444.76 2274.08 3442.61 2272.37 Q3440.48 2270.63 3436.66 2270.63 L3432.63 2270.63 L3432.63 2266.79 L3436.84 2266.79 Q3440.29 2266.79 3442.12 2265.42 Q3443.95 2264.03 3443.95 2261.44 Q3443.95 2258.78 3442.05 2257.37 Q3440.17 2255.93 3436.66 2255.93 Q3434.74 2255.93 3432.54 2256.35 Q3430.34 2256.76 3427.7 2257.64 L3427.7 2253.48 Q3430.36 2252.74 3432.67 2252.37 Q3435.01 2251.99 3437.07 2251.99 Q3442.4 2251.99 3445.5 2254.43 Q3448.6 2256.83 3448.6 2260.95 Q3448.6 2263.82 3446.96 2265.81 Q3445.31 2267.78 3442.28 2268.55 Z" fill="#000000" fill-rule="nonzero" fill-opacity="1" /><path clip-path="url(#clip700)" d="M3458.28 2281.3 L3463.16 2281.3 L3463.16 2287.18 L3458.28 2287.18 L3458.28 2281.3 Z" fill="#000000" fill-rule="nonzero" fill-opacity="1" /><path clip-path="url(#clip700)" d="M3473.39 2252.62 L3491.75 2252.62 L3491.75 2256.56 L3477.67 2256.56 L3477.67 2265.03 Q3478.69 2264.68 3479.71 2264.52 Q3480.73 2264.33 3481.75 2264.33 Q3487.54 2264.33 3490.92 2267.5 Q3494.3 2270.68 3494.3 2276.09 Q3494.3 2281.67 3490.82 2284.77 Q3487.35 2287.85 3481.03 2287.85 Q3478.86 2287.85 3476.59 2287.48 Q3474.34 2287.11 3471.93 2286.37 L3471.93 2281.67 Q3474.02 2282.8 3476.24 2283.36 Q3478.46 2283.92 3480.94 2283.92 Q3484.94 2283.92 3487.28 2281.81 Q3489.62 2279.7 3489.62 2276.09 Q3489.62 2272.48 3487.28 2270.37 Q3484.94 2268.27 3480.94 2268.27 Q3479.06 2268.27 3477.19 2268.68 Q3475.34 2269.1 3473.39 2269.98 L3473.39 2252.62 Z" fill="#000000" fill-rule="nonzero" fill-opacity="1" /><path clip-path="url(#clip700)" d="M1948.26 2327.7 Q1948.26 2328.32 1948.13 2328.83 L1946.33 2340.3 Q1946.23 2341.17 1946.04 2341.49 Q1945.88 2341.81 1945.36 2341.81 Q1944.56 2341.81 1944.56 2340.97 Q1944.56 2340.49 1944.75 2339.72 Q1945.3 2336.08 1945.3 2334.44 Q1945.3 2333.34 1945.07 2332.54 Q1944.88 2331.7 1944.56 2331.12 Q1944.27 2330.54 1943.59 2330.15 Q1942.92 2329.77 1942.27 2329.54 Q1941.63 2329.31 1940.47 2329.22 Q1939.31 2329.09 1938.31 2329.06 Q1937.31 2329.03 1935.67 2329.03 Q1932.1 2329.03 1931.52 2329.15 Q1930.9 2329.31 1930.58 2329.8 Q1930.29 2330.25 1929.97 2331.6 L1921.21 2366.61 L1920.95 2367.99 Q1920.95 2368.77 1921.44 2369.02 Q1921.92 2369.28 1923.4 2369.44 Q1925.53 2369.6 1927.62 2369.6 Q1927.68 2369.6 1927.81 2369.6 Q1928.52 2369.6 1928.81 2369.64 Q1929.1 2369.64 1929.39 2369.7 Q1929.68 2369.77 1929.74 2369.93 Q1929.84 2370.06 1929.84 2370.31 Q1929.84 2370.92 1929.58 2371.25 Q1929.33 2371.54 1929.07 2371.6 Q1928.84 2371.63 1928.39 2371.63 Q1927.49 2371.63 1925.56 2371.57 Q1923.63 2371.5 1922.66 2371.5 L1917.18 2371.44 L1911.58 2371.5 Q1910.71 2371.5 1908.87 2371.57 Q1907.04 2371.63 1906.17 2371.63 Q1905.04 2371.63 1905.04 2370.83 Q1905.04 2369.93 1905.46 2369.77 Q1905.91 2369.6 1907.81 2369.6 Q1910.49 2369.6 1911.93 2369.48 Q1913.38 2369.35 1914.16 2368.9 Q1914.96 2368.45 1915.19 2367.99 Q1915.41 2367.51 1915.67 2366.42 L1924.53 2331.22 Q1924.78 2330.44 1924.78 2329.83 Q1924.78 2329.51 1924.69 2329.38 Q1924.62 2329.25 1924.2 2329.15 Q1923.79 2329.03 1922.92 2329.03 L1920.34 2329.03 Q1917.7 2329.03 1916.06 2329.15 Q1914.45 2329.25 1912.9 2329.73 Q1911.39 2330.22 1910.49 2330.89 Q1909.62 2331.57 1908.65 2332.95 Q1907.68 2334.34 1906.97 2336.01 Q1906.3 2337.69 1905.33 2340.43 Q1905.01 2341.33 1904.82 2341.59 Q1904.66 2341.81 1904.21 2341.81 Q1903.88 2341.81 1903.63 2341.62 Q1903.4 2341.39 1903.4 2341.1 Q1903.72 2340.04 1903.79 2339.91 L1907.75 2328.28 Q1908.07 2327.35 1908.36 2327.19 Q1908.68 2327 1909.87 2327 L1946.46 2327 Q1947.04 2327 1947.23 2327 Q1947.43 2327 1947.75 2327.06 Q1948.07 2327.12 1948.17 2327.29 Q1948.26 2327.45 1948.26 2327.7 Z" fill="#000000" fill-rule="nonzero" fill-opacity="1" /><polyline clip-path="url(#clip700)" style="stroke:#000000; stroke-linecap:round; stroke-linejoin:round; stroke-width:4; stroke-opacity:1; fill:none" points="292.19,2215.18 292.19,1247.24 "/>
<polyline clip-path="url(#clip700)" style="stroke:#000000; stroke-linecap:round; stroke-linejoin:round; stroke-width:4; stroke-opacity:1; fill:none" points="292.19,2068.87 311.088,2068.87 "/>
<polyline clip-path="url(#clip700)" style="stroke:#000000; stroke-linecap:round; stroke-linejoin:round; stroke-width:4; stroke-opacity:1; fill:none" points="292.19,1910.96 311.088,1910.96 "/>
<polyline clip-path="url(#clip700)" style="stroke:#000000; stroke-linecap:round; stroke-linejoin:round; stroke-width:4; stroke-opacity:1; fill:none" points="292.19,1753.05 311.088,1753.05 "/>
<polyline clip-path="url(#clip700)" style="stroke:#000000; stroke-linecap:round; stroke-linejoin:round; stroke-width:4; stroke-opacity:1; fill:none" points="292.19,1595.15 311.088,1595.15 "/>
<polyline clip-path="url(#clip700)" style="stroke:#000000; stroke-linecap:round; stroke-linejoin:round; stroke-width:4; stroke-opacity:1; fill:none" points="292.19,1437.24 311.088,1437.24 "/>
<polyline clip-path="url(#clip700)" style="stroke:#000000; stroke-linecap:round; stroke-linejoin:round; stroke-width:4; stroke-opacity:1; fill:none" points="292.19,1279.34 311.088,1279.34 "/>
<path clip-path="url(#clip700)" d="M121.917 2054.66 Q118.306 2054.66 116.478 2058.23 Q114.672 2061.77 114.672 2068.9 Q114.672 2076.01 116.478 2079.57 Q118.306 2083.11 121.917 2083.11 Q125.552 2083.11 127.357 2079.57 Q129.186 2076.01 129.186 2068.9 Q129.186 2061.77 127.357 2058.23 Q125.552 2054.66 121.917 2054.66 M121.917 2050.96 Q127.728 2050.96 130.783 2055.57 Q133.862 2060.15 133.862 2068.9 Q133.862 2077.63 130.783 2082.23 Q127.728 2086.82 121.917 2086.82 Q116.107 2086.82 113.029 2082.23 Q109.973 2077.63 109.973 2068.9 Q109.973 2060.15 113.029 2055.57 Q116.107 2050.96 121.917 2050.96 Z" fill="#000000" fill-rule="nonzero" fill-opacity="1" /><path clip-path="url(#clip700)" d="M142.079 2080.27 L146.964 2080.27 L146.964 2086.15 L142.079 2086.15 L142.079 2080.27 Z" fill="#000000" fill-rule="nonzero" fill-opacity="1" /><path clip-path="url(#clip700)" d="M167.149 2054.66 Q163.538 2054.66 161.709 2058.23 Q159.903 2061.77 159.903 2068.9 Q159.903 2076.01 161.709 2079.57 Q163.538 2083.11 167.149 2083.11 Q170.783 2083.11 172.589 2079.57 Q174.417 2076.01 174.417 2068.9 Q174.417 2061.77 172.589 2058.23 Q170.783 2054.66 167.149 2054.66 M167.149 2050.96 Q172.959 2050.96 176.014 2055.57 Q179.093 2060.15 179.093 2068.9 Q179.093 2077.63 176.014 2082.23 Q172.959 2086.82 167.149 2086.82 Q161.339 2086.82 158.26 2082.23 Q155.204 2077.63 155.204 2068.9 Q155.204 2060.15 158.26 2055.57 Q161.339 2050.96 167.149 2050.96 Z" fill="#000000" fill-rule="nonzero" fill-opacity="1" /><path clip-path="url(#clip700)" d="M197.311 2054.66 Q193.7 2054.66 191.871 2058.23 Q190.065 2061.77 190.065 2068.9 Q190.065 2076.01 191.871 2079.57 Q193.7 2083.11 197.311 2083.11 Q200.945 2083.11 202.75 2079.57 Q204.579 2076.01 204.579 2068.9 Q204.579 2061.77 202.75 2058.23 Q200.945 2054.66 197.311 2054.66 M197.311 2050.96 Q203.121 2050.96 206.176 2055.57 Q209.255 2060.15 209.255 2068.9 Q209.255 2077.63 206.176 2082.23 Q203.121 2086.82 197.311 2086.82 Q191.5 2086.82 188.422 2082.23 Q185.366 2077.63 185.366 2068.9 Q185.366 2060.15 188.422 2055.57 Q191.5 2050.96 197.311 2050.96 Z" fill="#000000" fill-rule="nonzero" fill-opacity="1" /><path clip-path="url(#clip700)" d="M218.283 2082.21 L225.922 2082.21 L225.922 2055.84 L217.611 2057.51 L217.611 2053.25 L225.875 2051.59 L230.551 2051.59 L230.551 2082.21 L238.19 2082.21 L238.19 2086.15 L218.283 2086.15 L218.283 2082.21 Z" fill="#000000" fill-rule="nonzero" fill-opacity="1" /><path clip-path="url(#clip700)" d="M122.288 1896.76 Q118.677 1896.76 116.848 1900.32 Q115.043 1903.87 115.043 1910.99 Q115.043 1918.1 116.848 1921.67 Q118.677 1925.21 122.288 1925.21 Q125.922 1925.21 127.728 1921.67 Q129.556 1918.1 129.556 1910.99 Q129.556 1903.87 127.728 1900.32 Q125.922 1896.76 122.288 1896.76 M122.288 1893.06 Q128.098 1893.06 131.154 1897.66 Q134.232 1902.24 134.232 1910.99 Q134.232 1919.72 131.154 1924.33 Q128.098 1928.91 122.288 1928.91 Q116.478 1928.91 113.399 1924.33 Q110.343 1919.72 110.343 1910.99 Q110.343 1902.24 113.399 1897.66 Q116.478 1893.06 122.288 1893.06 Z" fill="#000000" fill-rule="nonzero" fill-opacity="1" /><path clip-path="url(#clip700)" d="M142.45 1922.36 L147.334 1922.36 L147.334 1928.24 L142.45 1928.24 L142.45 1922.36 Z" fill="#000000" fill-rule="nonzero" fill-opacity="1" /><path clip-path="url(#clip700)" d="M167.519 1896.76 Q163.908 1896.76 162.079 1900.32 Q160.274 1903.87 160.274 1910.99 Q160.274 1918.1 162.079 1921.67 Q163.908 1925.21 167.519 1925.21 Q171.153 1925.21 172.959 1921.67 Q174.788 1918.1 174.788 1910.99 Q174.788 1903.87 172.959 1900.32 Q171.153 1896.76 167.519 1896.76 M167.519 1893.06 Q173.329 1893.06 176.385 1897.66 Q179.463 1902.24 179.463 1910.99 Q179.463 1919.72 176.385 1924.33 Q173.329 1928.91 167.519 1928.91 Q161.709 1928.91 158.63 1924.33 Q155.575 1919.72 155.575 1910.99 Q155.575 1902.24 158.63 1897.66 Q161.709 1893.06 167.519 1893.06 Z" fill="#000000" fill-rule="nonzero" fill-opacity="1" /><path clip-path="url(#clip700)" d="M197.681 1896.76 Q194.07 1896.76 192.241 1900.32 Q190.436 1903.87 190.436 1910.99 Q190.436 1918.1 192.241 1921.67 Q194.07 1925.21 197.681 1925.21 Q201.315 1925.21 203.121 1921.67 Q204.949 1918.1 204.949 1910.99 Q204.949 1903.87 203.121 1900.32 Q201.315 1896.76 197.681 1896.76 M197.681 1893.06 Q203.491 1893.06 206.547 1897.66 Q209.625 1902.24 209.625 1910.99 Q209.625 1919.72 206.547 1924.33 Q203.491 1928.91 197.681 1928.91 Q191.871 1928.91 188.792 1924.33 Q185.737 1919.72 185.737 1910.99 Q185.737 1902.24 188.792 1897.66 Q191.871 1893.06 197.681 1893.06 Z" fill="#000000" fill-rule="nonzero" fill-opacity="1" /><path clip-path="url(#clip700)" d="M221.871 1924.3 L238.19 1924.3 L238.19 1928.24 L216.246 1928.24 L216.246 1924.3 Q218.908 1921.55 223.491 1916.92 Q228.097 1912.27 229.278 1910.93 Q231.523 1908.4 232.403 1906.67 Q233.306 1904.91 233.306 1903.22 Q233.306 1900.46 231.361 1898.73 Q229.44 1896.99 226.338 1896.99 Q224.139 1896.99 221.685 1897.75 Q219.255 1898.52 216.477 1900.07 L216.477 1895.35 Q219.301 1894.21 221.755 1893.63 Q224.209 1893.06 226.246 1893.06 Q231.616 1893.06 234.81 1895.74 Q238.005 1898.43 238.005 1902.92 Q238.005 1905.05 237.195 1906.97 Q236.408 1908.87 234.301 1911.46 Q233.722 1912.13 230.621 1915.35 Q227.519 1918.54 221.871 1924.3 Z" fill="#000000" fill-rule="nonzero" fill-opacity="1" /><path clip-path="url(#clip700)" d="M121.339 1738.85 Q117.728 1738.85 115.899 1742.42 Q114.093 1745.96 114.093 1753.09 Q114.093 1760.2 115.899 1763.76 Q117.728 1767.3 121.339 1767.3 Q124.973 1767.3 126.779 1763.76 Q128.607 1760.2 128.607 1753.09 Q128.607 1745.96 126.779 1742.42 Q124.973 1738.85 121.339 1738.85 M121.339 1735.15 Q127.149 1735.15 130.204 1739.76 Q133.283 1744.34 133.283 1753.09 Q133.283 1761.82 130.204 1766.42 Q127.149 1771.01 121.339 1771.01 Q115.529 1771.01 112.45 1766.42 Q109.394 1761.82 109.394 1753.09 Q109.394 1744.34 112.45 1739.76 Q115.529 1735.15 121.339 1735.15 Z" fill="#000000" fill-rule="nonzero" fill-opacity="1" /><path clip-path="url(#clip700)" d="M141.501 1764.46 L146.385 1764.46 L146.385 1770.33 L141.501 1770.33 L141.501 1764.46 Z" fill="#000000" fill-rule="nonzero" fill-opacity="1" /><path clip-path="url(#clip700)" d="M166.57 1738.85 Q162.959 1738.85 161.13 1742.42 Q159.325 1745.96 159.325 1753.09 Q159.325 1760.2 161.13 1763.76 Q162.959 1767.3 166.57 1767.3 Q170.204 1767.3 172.01 1763.76 Q173.839 1760.2 173.839 1753.09 Q173.839 1745.96 172.01 1742.42 Q170.204 1738.85 166.57 1738.85 M166.57 1735.15 Q172.38 1735.15 175.436 1739.76 Q178.514 1744.34 178.514 1753.09 Q178.514 1761.82 175.436 1766.42 Q172.38 1771.01 166.57 1771.01 Q160.76 1771.01 157.681 1766.42 Q154.626 1761.82 154.626 1753.09 Q154.626 1744.34 157.681 1739.76 Q160.76 1735.15 166.57 1735.15 Z" fill="#000000" fill-rule="nonzero" fill-opacity="1" /><path clip-path="url(#clip700)" d="M196.732 1738.85 Q193.121 1738.85 191.292 1742.42 Q189.487 1745.96 189.487 1753.09 Q189.487 1760.2 191.292 1763.76 Q193.121 1767.3 196.732 1767.3 Q200.366 1767.3 202.172 1763.76 Q204 1760.2 204 1753.09 Q204 1745.96 202.172 1742.42 Q200.366 1738.85 196.732 1738.85 M196.732 1735.15 Q202.542 1735.15 205.598 1739.76 Q208.676 1744.34 208.676 1753.09 Q208.676 1761.82 205.598 1766.42 Q202.542 1771.01 196.732 1771.01 Q190.922 1771.01 187.843 1766.42 Q184.788 1761.82 184.788 1753.09 Q184.788 1744.34 187.843 1739.76 Q190.922 1735.15 196.732 1735.15 Z" fill="#000000" fill-rule="nonzero" fill-opacity="1" /><path clip-path="url(#clip700)" d="M231.06 1751.7 Q234.417 1752.42 236.292 1754.69 Q238.19 1756.96 238.19 1760.29 Q238.19 1765.4 234.672 1768.21 Q231.153 1771.01 224.672 1771.01 Q222.496 1771.01 220.181 1770.57 Q217.889 1770.15 215.436 1769.29 L215.436 1764.78 Q217.38 1765.91 219.695 1766.49 Q222.01 1767.07 224.533 1767.07 Q228.931 1767.07 231.222 1765.33 Q233.537 1763.6 233.537 1760.29 Q233.537 1757.23 231.384 1755.52 Q229.255 1753.78 225.435 1753.78 L221.408 1753.78 L221.408 1749.94 L225.621 1749.94 Q229.07 1749.94 230.898 1748.58 Q232.727 1747.19 232.727 1744.59 Q232.727 1741.93 230.829 1740.52 Q228.954 1739.08 225.435 1739.08 Q223.514 1739.08 221.315 1739.5 Q219.116 1739.92 216.477 1740.8 L216.477 1736.63 Q219.139 1735.89 221.454 1735.52 Q223.792 1735.15 225.852 1735.15 Q231.176 1735.15 234.278 1737.58 Q237.38 1739.99 237.38 1744.11 Q237.38 1746.98 235.736 1748.97 Q234.093 1750.94 231.06 1751.7 Z" fill="#000000" fill-rule="nonzero" fill-opacity="1" /><path clip-path="url(#clip700)" d="M120.205 1580.95 Q116.593 1580.95 114.765 1584.51 Q112.959 1588.05 112.959 1595.18 Q112.959 1602.29 114.765 1605.86 Q116.593 1609.4 120.205 1609.4 Q123.839 1609.4 125.644 1605.86 Q127.473 1602.29 127.473 1595.18 Q127.473 1588.05 125.644 1584.51 Q123.839 1580.95 120.205 1580.95 M120.205 1577.24 Q126.015 1577.24 129.07 1581.85 Q132.149 1586.43 132.149 1595.18 Q132.149 1603.91 129.07 1608.52 Q126.015 1613.1 120.205 1613.1 Q114.394 1613.1 111.316 1608.52 Q108.26 1603.91 108.26 1595.18 Q108.26 1586.43 111.316 1581.85 Q114.394 1577.24 120.205 1577.24 Z" fill="#000000" fill-rule="nonzero" fill-opacity="1" /><path clip-path="url(#clip700)" d="M140.366 1606.55 L145.251 1606.55 L145.251 1612.43 L140.366 1612.43 L140.366 1606.55 Z" fill="#000000" fill-rule="nonzero" fill-opacity="1" /><path clip-path="url(#clip700)" d="M165.436 1580.95 Q161.825 1580.95 159.996 1584.51 Q158.19 1588.05 158.19 1595.18 Q158.19 1602.29 159.996 1605.86 Q161.825 1609.4 165.436 1609.4 Q169.07 1609.4 170.876 1605.86 Q172.704 1602.29 172.704 1595.18 Q172.704 1588.05 170.876 1584.51 Q169.07 1580.95 165.436 1580.95 M165.436 1577.24 Q171.246 1577.24 174.301 1581.85 Q177.38 1586.43 177.38 1595.18 Q177.38 1603.91 174.301 1608.52 Q171.246 1613.1 165.436 1613.1 Q159.626 1613.1 156.547 1608.52 Q153.491 1603.91 153.491 1595.18 Q153.491 1586.43 156.547 1581.85 Q159.626 1577.24 165.436 1577.24 Z" fill="#000000" fill-rule="nonzero" fill-opacity="1" /><path clip-path="url(#clip700)" d="M195.598 1580.95 Q191.987 1580.95 190.158 1584.51 Q188.352 1588.05 188.352 1595.18 Q188.352 1602.29 190.158 1605.86 Q191.987 1609.4 195.598 1609.4 Q199.232 1609.4 201.037 1605.86 Q202.866 1602.29 202.866 1595.18 Q202.866 1588.05 201.037 1584.51 Q199.232 1580.95 195.598 1580.95 M195.598 1577.24 Q201.408 1577.24 204.463 1581.85 Q207.542 1586.43 207.542 1595.18 Q207.542 1603.91 204.463 1608.52 Q201.408 1613.1 195.598 1613.1 Q189.787 1613.1 186.709 1608.52 Q183.653 1603.91 183.653 1595.18 Q183.653 1586.43 186.709 1581.85 Q189.787 1577.24 195.598 1577.24 Z" fill="#000000" fill-rule="nonzero" fill-opacity="1" /><path clip-path="url(#clip700)" d="M228.607 1581.94 L216.801 1600.39 L228.607 1600.39 L228.607 1581.94 M227.38 1577.87 L233.259 1577.87 L233.259 1600.39 L238.19 1600.39 L238.19 1604.28 L233.259 1604.28 L233.259 1612.43 L228.607 1612.43 L228.607 1604.28 L213.005 1604.28 L213.005 1599.77 L227.38 1577.87 Z" fill="#000000" fill-rule="nonzero" fill-opacity="1" /><path clip-path="url(#clip700)" d="M121.686 1423.04 Q118.075 1423.04 116.246 1426.61 Q114.441 1430.15 114.441 1437.28 Q114.441 1444.39 116.246 1447.95 Q118.075 1451.49 121.686 1451.49 Q125.32 1451.49 127.126 1447.95 Q128.954 1444.39 128.954 1437.28 Q128.954 1430.15 127.126 1426.61 Q125.32 1423.04 121.686 1423.04 M121.686 1419.34 Q127.496 1419.34 130.552 1423.95 Q133.63 1428.53 133.63 1437.28 Q133.63 1446.01 130.552 1450.61 Q127.496 1455.2 121.686 1455.2 Q115.876 1455.2 112.797 1450.61 Q109.742 1446.01 109.742 1437.28 Q109.742 1428.53 112.797 1423.95 Q115.876 1419.34 121.686 1419.34 Z" fill="#000000" fill-rule="nonzero" fill-opacity="1" /><path clip-path="url(#clip700)" d="M141.848 1448.64 L146.732 1448.64 L146.732 1454.52 L141.848 1454.52 L141.848 1448.64 Z" fill="#000000" fill-rule="nonzero" fill-opacity="1" /><path clip-path="url(#clip700)" d="M166.917 1423.04 Q163.306 1423.04 161.477 1426.61 Q159.672 1430.15 159.672 1437.28 Q159.672 1444.39 161.477 1447.95 Q163.306 1451.49 166.917 1451.49 Q170.551 1451.49 172.357 1447.95 Q174.186 1444.39 174.186 1437.28 Q174.186 1430.15 172.357 1426.61 Q170.551 1423.04 166.917 1423.04 M166.917 1419.34 Q172.727 1419.34 175.783 1423.95 Q178.862 1428.53 178.862 1437.28 Q178.862 1446.01 175.783 1450.61 Q172.727 1455.2 166.917 1455.2 Q161.107 1455.2 158.028 1450.61 Q154.973 1446.01 154.973 1437.28 Q154.973 1428.53 158.028 1423.95 Q161.107 1419.34 166.917 1419.34 Z" fill="#000000" fill-rule="nonzero" fill-opacity="1" /><path clip-path="url(#clip700)" d="M197.079 1423.04 Q193.468 1423.04 191.639 1426.61 Q189.834 1430.15 189.834 1437.28 Q189.834 1444.39 191.639 1447.95 Q193.468 1451.49 197.079 1451.49 Q200.713 1451.49 202.519 1447.95 Q204.348 1444.39 204.348 1437.28 Q204.348 1430.15 202.519 1426.61 Q200.713 1423.04 197.079 1423.04 M197.079 1419.34 Q202.889 1419.34 205.945 1423.95 Q209.024 1428.53 209.024 1437.28 Q209.024 1446.01 205.945 1450.61 Q202.889 1455.2 197.079 1455.2 Q191.269 1455.2 188.19 1450.61 Q185.135 1446.01 185.135 1437.28 Q185.135 1428.53 188.19 1423.95 Q191.269 1419.34 197.079 1419.34 Z" fill="#000000" fill-rule="nonzero" fill-opacity="1" /><path clip-path="url(#clip700)" d="M217.287 1419.96 L235.644 1419.96 L235.644 1423.9 L221.57 1423.9 L221.57 1432.37 Q222.588 1432.02 223.607 1431.86 Q224.625 1431.68 225.644 1431.68 Q231.431 1431.68 234.81 1434.85 Q238.19 1438.02 238.19 1443.44 Q238.19 1449.01 234.718 1452.12 Q231.246 1455.2 224.926 1455.2 Q222.75 1455.2 220.482 1454.83 Q218.236 1454.45 215.829 1453.71 L215.829 1449.01 Q217.912 1450.15 220.135 1450.7 Q222.357 1451.26 224.834 1451.26 Q228.838 1451.26 231.176 1449.15 Q233.514 1447.05 233.514 1443.44 Q233.514 1439.83 231.176 1437.72 Q228.838 1435.61 224.834 1435.61 Q222.959 1435.61 221.084 1436.03 Q219.232 1436.45 217.287 1437.33 L217.287 1419.96 Z" fill="#000000" fill-rule="nonzero" fill-opacity="1" /><path clip-path="url(#clip700)" d="M120.529 1265.14 Q116.918 1265.14 115.089 1268.7 Q113.283 1272.24 113.283 1279.37 Q113.283 1286.48 115.089 1290.04 Q116.918 1293.59 120.529 1293.59 Q124.163 1293.59 125.968 1290.04 Q127.797 1286.48 127.797 1279.37 Q127.797 1272.24 125.968 1268.7 Q124.163 1265.14 120.529 1265.14 M120.529 1261.43 Q126.339 1261.43 129.394 1266.04 Q132.473 1270.62 132.473 1279.37 Q132.473 1288.1 129.394 1292.71 Q126.339 1297.29 120.529 1297.29 Q114.718 1297.29 111.64 1292.71 Q108.584 1288.1 108.584 1279.37 Q108.584 1270.62 111.64 1266.04 Q114.718 1261.43 120.529 1261.43 Z" fill="#000000" fill-rule="nonzero" fill-opacity="1" /><path clip-path="url(#clip700)" d="M140.691 1290.74 L145.575 1290.74 L145.575 1296.62 L140.691 1296.62 L140.691 1290.74 Z" fill="#000000" fill-rule="nonzero" fill-opacity="1" /><path clip-path="url(#clip700)" d="M165.76 1265.14 Q162.149 1265.14 160.32 1268.7 Q158.515 1272.24 158.515 1279.37 Q158.515 1286.48 160.32 1290.04 Q162.149 1293.59 165.76 1293.59 Q169.394 1293.59 171.2 1290.04 Q173.028 1286.48 173.028 1279.37 Q173.028 1272.24 171.2 1268.7 Q169.394 1265.14 165.76 1265.14 M165.76 1261.43 Q171.57 1261.43 174.626 1266.04 Q177.704 1270.62 177.704 1279.37 Q177.704 1288.1 174.626 1292.71 Q171.57 1297.29 165.76 1297.29 Q159.95 1297.29 156.871 1292.71 Q153.815 1288.1 153.815 1279.37 Q153.815 1270.62 156.871 1266.04 Q159.95 1261.43 165.76 1261.43 Z" fill="#000000" fill-rule="nonzero" fill-opacity="1" /><path clip-path="url(#clip700)" d="M195.922 1265.14 Q192.311 1265.14 190.482 1268.7 Q188.676 1272.24 188.676 1279.37 Q188.676 1286.48 190.482 1290.04 Q192.311 1293.59 195.922 1293.59 Q199.556 1293.59 201.362 1290.04 Q203.19 1286.48 203.19 1279.37 Q203.19 1272.24 201.362 1268.7 Q199.556 1265.14 195.922 1265.14 M195.922 1261.43 Q201.732 1261.43 204.787 1266.04 Q207.866 1270.62 207.866 1279.37 Q207.866 1288.1 204.787 1292.71 Q201.732 1297.29 195.922 1297.29 Q190.112 1297.29 187.033 1292.71 Q183.977 1288.1 183.977 1279.37 Q183.977 1270.62 187.033 1266.04 Q190.112 1261.43 195.922 1261.43 Z" fill="#000000" fill-rule="nonzero" fill-opacity="1" /><path clip-path="url(#clip700)" d="M226.662 1277.48 Q223.514 1277.48 221.662 1279.63 Q219.834 1281.78 219.834 1285.53 Q219.834 1289.26 221.662 1291.43 Q223.514 1293.59 226.662 1293.59 Q229.81 1293.59 231.639 1291.43 Q233.491 1289.26 233.491 1285.53 Q233.491 1281.78 231.639 1279.63 Q229.81 1277.48 226.662 1277.48 M235.945 1262.82 L235.945 1267.08 Q234.185 1266.25 232.38 1265.81 Q230.597 1265.37 228.838 1265.37 Q224.209 1265.37 221.755 1268.49 Q219.324 1271.62 218.977 1277.94 Q220.343 1275.92 222.403 1274.86 Q224.463 1273.77 226.94 1273.77 Q232.148 1273.77 235.158 1276.94 Q238.19 1280.09 238.19 1285.53 Q238.19 1290.86 235.042 1294.07 Q231.894 1297.29 226.662 1297.29 Q220.667 1297.29 217.496 1292.71 Q214.324 1288.1 214.324 1279.37 Q214.324 1271.18 218.213 1266.32 Q222.102 1261.43 228.653 1261.43 Q230.412 1261.43 232.195 1261.78 Q234 1262.13 235.945 1262.82 Z" fill="#000000" fill-rule="nonzero" fill-opacity="1" /><path clip-path="url(#clip700)" d="M-4.08633 1724.64 L12.7251 1728.79 Q13.7879 1729.08 13.9167 1729.27 Q14.0456 1729.44 14.0456 1729.95 Q14.0456 1730.95 13.3692 1730.95 Q13.3048 1730.95 12.4675 1730.85 Q11.5979 1730.76 10.0198 1730.76 Q4.19058 1730.76 0.744549 1733.59 Q-2.70148 1736.39 -2.70148 1741.38 Q-2.70148 1745.7 -0.511479 1750.05 Q1.67852 1754.36 5.25337 1757.45 Q7.95866 1759.77 11.3725 1761.48 Q14.7863 1763.15 17.9103 1763.96 Q21.0342 1764.73 23.3853 1765.09 Q25.7363 1765.44 27.4432 1765.44 Q29.9231 1765.44 32.0164 1764.93 Q34.1098 1764.38 35.5913 1763.41 Q37.0406 1762.45 38.1678 1761.22 Q39.2628 1759.97 39.9069 1758.52 Q40.551 1757.04 40.8731 1755.55 Q41.1629 1754.07 41.1629 1752.53 Q41.1629 1746.31 36.332 1740.39 Q32.3707 1735.68 25.8973 1733.72 Q25.2532 1733.56 25.2532 1732.88 Q25.2532 1732.08 25.8973 1732.08 Q26.0262 1732.08 26.6703 1732.24 Q27.2822 1732.4 28.5382 1732.88 Q29.762 1733.36 31.1469 1734.11 Q32.5317 1734.85 34.2709 1736.23 Q36.01 1737.62 37.5236 1739.32 Q40.0357 1742.22 41.6138 1745.89 Q43.1919 1749.56 43.1919 1753.59 Q43.1919 1758.61 40.9697 1762.67 Q38.7475 1766.73 34.5929 1769.11 Q30.4384 1771.46 25.1244 1771.46 Q19.5206 1771.46 14.0134 1768.89 Q8.50616 1766.31 4.41602 1762.22 Q0.325873 1758.13 -2.21839 1752.72 Q-4.76265 1747.31 -4.76265 1741.9 Q-4.76265 1739.84 -4.21515 1738 Q-3.66765 1736.17 -2.99133 1735.07 Q-2.31501 1733.94 -1.31663 1732.95 Q-0.35045 1731.95 0.100432 1731.63 Q0.551314 1731.27 1.09881 1730.95 L-3.95751 1726.34 Q-4.76265 1725.54 -4.76265 1725.35 Q-4.76265 1724.96 -4.53721 1724.8 Q-4.31177 1724.64 -4.08633 1724.64 Z" fill="#000000" fill-rule="nonzero" fill-opacity="1" /><path clip-path="url(#clip700)" d="M38.1212 1697.8 Q38.7073 1697.8 39.8571 1697.96 Q41.0068 1698.11 42.6751 1698.5 Q44.3434 1698.88 46.1018 1699.44 Q47.8602 1699.98 49.6187 1700.84 Q51.3546 1701.7 52.7298 1702.71 Q54.105 1703.73 54.9616 1705.15 Q55.8183 1706.57 55.8183 1708.17 Q55.8183 1708.91 55.7056 1709.63 Q55.5929 1710.35 55.2322 1711.26 Q54.8715 1712.16 54.2853 1712.81 Q53.6766 1713.47 52.5945 1713.92 Q51.5124 1714.37 50.0921 1714.37 Q48.6267 1714.37 46.6654 1713.83 Q44.6815 1713.26 40.6236 1711.73 Q38.527 1710.94 37.3772 1710.94 Q36.8587 1710.94 36.5431 1711.05 Q36.2049 1711.17 36.0922 1711.39 Q35.957 1711.62 35.9344 1711.75 Q35.9119 1711.87 35.9119 1712.09 Q35.9119 1713.33 37.1969 1714.59 Q38.4819 1715.86 41.6381 1716.76 Q42.2017 1716.94 42.3369 1717.05 Q42.4722 1717.16 42.4722 1717.5 Q42.4497 1718.06 41.9988 1718.06 Q41.8635 1718.06 41.345 1717.91 Q40.8039 1717.75 39.9924 1717.46 Q39.1582 1717.16 38.3015 1716.64 Q37.4223 1716.13 36.6558 1715.49 Q35.8893 1714.84 35.3934 1713.92 Q34.8974 1712.99 34.8974 1711.96 Q34.8974 1710.26 36.002 1709.23 Q37.0842 1708.17 38.6848 1708.17 Q39.564 1708.17 40.9843 1708.73 Q43.5543 1709.68 44.7942 1710.11 Q46.0342 1710.53 47.7926 1710.99 Q49.5511 1711.41 50.7684 1711.41 Q52.617 1711.41 53.6992 1710.56 Q54.7813 1709.7 54.7813 1707.99 Q54.7813 1706.45 53.6766 1705.08 Q52.5494 1703.68 50.9488 1702.76 Q49.3256 1701.83 47.5221 1701.13 Q45.696 1700.44 44.3208 1700.12 Q42.9231 1699.78 42.2693 1699.78 Q39.9924 1699.78 38.5044 1701.34 Q38.0761 1701.77 37.8056 1701.92 Q37.535 1702.08 37.1067 1702.08 Q36.3177 1702.08 35.6188 1701.38 Q34.8974 1700.66 34.8974 1699.83 Q34.8974 1699.06 35.6639 1698.43 Q36.4304 1697.8 38.1212 1697.8 Z" fill="#000000" fill-rule="nonzero" fill-opacity="1" /><circle clip-path="url(#clip703)" cx="384.47" cy="2014.95" r="18" fill="#e31a1c" fill-rule="evenodd" fill-opacity="1" stroke="none"/>
<circle clip-path="url(#clip703)" cx="538.27" cy="1983.28" r="18" fill="#e31a1c" fill-rule="evenodd" fill-opacity="1" stroke="none"/>
<circle clip-path="url(#clip703)" cx="692.071" cy="1946.64" r="18" fill="#e31a1c" fill-rule="evenodd" fill-opacity="1" stroke="none"/>
<circle clip-path="url(#clip703)" cx="845.871" cy="1893.58" r="18" fill="#e31a1c" fill-rule="evenodd" fill-opacity="1" stroke="none"/>
<circle clip-path="url(#clip703)" cx="999.671" cy="1823.64" r="18" fill="#e31a1c" fill-rule="evenodd" fill-opacity="1" stroke="none"/>
<circle clip-path="url(#clip703)" cx="1153.47" cy="1734.04" r="18" fill="#e31a1c" fill-rule="evenodd" fill-opacity="1" stroke="none"/>
<circle clip-path="url(#clip703)" cx="1307.27" cy="1597.91" r="18" fill="#e31a1c" fill-rule="evenodd" fill-opacity="1" stroke="none"/>
<circle clip-path="url(#clip703)" cx="1461.07" cy="1411.51" r="18" fill="#e31a1c" fill-rule="evenodd" fill-opacity="1" stroke="none"/>
<circle clip-path="url(#clip703)" cx="1614.87" cy="1274.64" r="18" fill="#e31a1c" fill-rule="evenodd" fill-opacity="1" stroke="none"/>
<circle clip-path="url(#clip703)" cx="1768.67" cy="1359.84" r="18" fill="#e31a1c" fill-rule="evenodd" fill-opacity="1" stroke="none"/>
<circle clip-path="url(#clip703)" cx="1922.47" cy="1571.63" r="18" fill="#e31a1c" fill-rule="evenodd" fill-opacity="1" stroke="none"/>
<circle clip-path="url(#clip703)" cx="2076.27" cy="1732.61" r="18" fill="#e31a1c" fill-rule="evenodd" fill-opacity="1" stroke="none"/>
<circle clip-path="url(#clip703)" cx="2230.07" cy="1835.47" r="18" fill="#e31a1c" fill-rule="evenodd" fill-opacity="1" stroke="none"/>
<circle clip-path="url(#clip703)" cx="2383.87" cy="1898.8" r="18" fill="#e31a1c" fill-rule="evenodd" fill-opacity="1" stroke="none"/>
<circle clip-path="url(#clip703)" cx="2537.67" cy="1943.77" r="18" fill="#e31a1c" fill-rule="evenodd" fill-opacity="1" stroke="none"/>
<circle clip-path="url(#clip703)" cx="2691.47" cy="1977.39" r="18" fill="#e31a1c" fill-rule="evenodd" fill-opacity="1" stroke="none"/>
<circle clip-path="url(#clip703)" cx="2845.27" cy="2003.63" r="18" fill="#e31a1c" fill-rule="evenodd" fill-opacity="1" stroke="none"/>
<circle clip-path="url(#clip703)" cx="2999.07" cy="2025.7" r="18" fill="#e31a1c" fill-rule="evenodd" fill-opacity="1" stroke="none"/>
<circle clip-path="url(#clip703)" cx="3152.88" cy="2044.49" r="18" fill="#e31a1c" fill-rule="evenodd" fill-opacity="1" stroke="none"/>
<circle clip-path="url(#clip703)" cx="3306.68" cy="2060.33" r="18" fill="#e31a1c" fill-rule="evenodd" fill-opacity="1" stroke="none"/>
<circle clip-path="url(#clip703)" cx="3460.48" cy="2073.89" r="18" fill="#e31a1c" fill-rule="evenodd" fill-opacity="1" stroke="none"/>
<path clip-path="url(#clip703)" d="M364.47 1866.32 L364.47 1906.32 L404.47 1906.32 L404.47 1866.32 L364.47 1866.32 Z" fill="#ff7e00" fill-rule="evenodd" fill-opacity="1" stroke="none"/>
<path clip-path="url(#clip703)" d="M518.27 1902.03 L518.27 1942.03 L558.27 1942.03 L558.27 1902.03 L518.27 1902.03 Z" fill="#ff7e00" fill-rule="evenodd" fill-opacity="1" stroke="none"/>
<path clip-path="url(#clip703)" d="M672.071 1917.19 L672.071 1957.19 L712.071 1957.19 L712.071 1917.19 L672.071 1917.19 Z" fill="#ff7e00" fill-rule="evenodd" fill-opacity="1" stroke="none"/>
<path clip-path="url(#clip703)" d="M825.871 1919.77 L825.871 1959.77 L865.871 1959.77 L865.871 1919.77 L825.871 1919.77 Z" fill="#ff7e00" fill-rule="evenodd" fill-opacity="1" stroke="none"/>
<path clip-path="url(#clip703)" d="M979.671 1901.92 L979.671 1941.92 L1019.67 1941.92 L1019.67 1901.92 L979.671 1901.92 Z" fill="#ff7e00" fill-rule="evenodd" fill-opacity="1" stroke="none"/>
<path clip-path="url(#clip703)" d="M1133.47 1880.21 L1133.47 1920.21 L1173.47 1920.21 L1173.47 1880.21 L1133.47 1880.21 Z" fill="#ff7e00" fill-rule="evenodd" fill-opacity="1" stroke="none"/>
<path clip-path="url(#clip703)" d="M1287.27 1842.43 L1287.27 1882.43 L1327.27 1882.43 L1327.27 1842.43 L1287.27 1842.43 Z" fill="#ff7e00" fill-rule="evenodd" fill-opacity="1" stroke="none"/>
<path clip-path="url(#clip703)" d="M1441.07 1763.73 L1441.07 1803.73 L1481.07 1803.73 L1481.07 1763.73 L1441.07 1763.73 Z" fill="#ff7e00" fill-rule="evenodd" fill-opacity="1" stroke="none"/>
<path clip-path="url(#clip703)" d="M1594.87 1707.77 L1594.87 1747.77 L1634.87 1747.77 L1634.87 1707.77 L1594.87 1707.77 Z" fill="#ff7e00" fill-rule="evenodd" fill-opacity="1" stroke="none"/>
<path clip-path="url(#clip703)" d="M1748.67 1829.43 L1748.67 1869.43 L1788.67 1869.43 L1788.67 1829.43 L1748.67 1829.43 Z" fill="#ff7e00" fill-rule="evenodd" fill-opacity="1" stroke="none"/>
<path clip-path="url(#clip703)" d="M1902.47 1943.92 L1902.47 1983.92 L1942.47 1983.92 L1942.47 1943.92 L1902.47 1943.92 Z" fill="#ff7e00" fill-rule="evenodd" fill-opacity="1" stroke="none"/>
<path clip-path="url(#clip703)" d="M2056.27 2004.78 L2056.27 2044.78 L2096.27 2044.78 L2096.27 2004.78 L2056.27 2004.78 Z" fill="#ff7e00" fill-rule="evenodd" fill-opacity="1" stroke="none"/>
<path clip-path="url(#clip703)" d="M2210.07 2039.52 L2210.07 2079.52 L2250.07 2079.52 L2250.07 2039.52 L2210.07 2039.52 Z" fill="#ff7e00" fill-rule="evenodd" fill-opacity="1" stroke="none"/>
<path clip-path="url(#clip703)" d="M2363.87 2063.57 L2363.87 2103.57 L2403.87 2103.57 L2403.87 2063.57 L2363.87 2063.57 Z" fill="#ff7e00" fill-rule="evenodd" fill-opacity="1" stroke="none"/>
<path clip-path="url(#clip703)" d="M2517.67 2081.28 L2517.67 2121.28 L2557.67 2121.28 L2557.67 2081.28 L2517.67 2081.28 Z" fill="#ff7e00" fill-rule="evenodd" fill-opacity="1" stroke="none"/>
<path clip-path="url(#clip703)" d="M2671.47 2095.35 L2671.47 2135.35 L2711.47 2135.35 L2711.47 2095.35 L2671.47 2095.35 Z" fill="#ff7e00" fill-rule="evenodd" fill-opacity="1" stroke="none"/>
<path clip-path="url(#clip703)" d="M2825.27 2107.28 L2825.27 2147.28 L2865.27 2147.28 L2865.27 2107.28 L2825.27 2107.28 Z" fill="#ff7e00" fill-rule="evenodd" fill-opacity="1" stroke="none"/>
<path clip-path="url(#clip703)" d="M2979.07 2116.94 L2979.07 2156.94 L3019.07 2156.94 L3019.07 2116.94 L2979.07 2116.94 Z" fill="#ff7e00" fill-rule="evenodd" fill-opacity="1" stroke="none"/>
<path clip-path="url(#clip703)" d="M3132.88 2125.35 L3132.88 2165.35 L3172.88 2165.35 L3172.88 2125.35 L3132.88 2125.35 Z" fill="#ff7e00" fill-rule="evenodd" fill-opacity="1" stroke="none"/>
<path clip-path="url(#clip703)" d="M3286.68 2132.56 L3286.68 2172.56 L3326.68 2172.56 L3326.68 2132.56 L3286.68 2132.56 Z" fill="#ff7e00" fill-rule="evenodd" fill-opacity="1" stroke="none"/>
<path clip-path="url(#clip703)" d="M3440.48 2138.49 L3440.48 2178.49 L3480.48 2178.49 L3480.48 2138.49 L3440.48 2138.49 Z" fill="#ff7e00" fill-rule="evenodd" fill-opacity="1" stroke="none"/>
<path clip-path="url(#clip703)" d="M384.47 1734.45 L364.47 1754.45 L384.47 1774.45 L404.47 1754.45 L384.47 1734.45 Z" fill="#999999" fill-rule="evenodd" fill-opacity="1" stroke="none"/>
<path clip-path="url(#clip703)" d="M538.27 1789.53 L518.27 1809.53 L538.27 1829.53 L558.27 1809.53 L538.27 1789.53 Z" fill="#999999" fill-rule="evenodd" fill-opacity="1" stroke="none"/>
<path clip-path="url(#clip703)" d="M692.071 1781.53 L672.071 1801.53 L692.071 1821.53 L712.071 1801.53 L692.071 1781.53 Z" fill="#999999" fill-rule="evenodd" fill-opacity="1" stroke="none"/>
<path clip-path="url(#clip703)" d="M845.871 1796.21 L825.871 1816.21 L845.871 1836.21 L865.871 1816.21 L845.871 1796.21 Z" fill="#999999" fill-rule="evenodd" fill-opacity="1" stroke="none"/>
<path clip-path="url(#clip703)" d="M999.671 1823.59 L979.671 1843.59 L999.671 1863.59 L1019.67 1843.59 L999.671 1823.59 Z" fill="#999999" fill-rule="evenodd" fill-opacity="1" stroke="none"/>
<path clip-path="url(#clip703)" d="M1153.47 1848.46 L1133.47 1868.46 L1153.47 1888.46 L1173.47 1868.46 L1153.47 1848.46 Z" fill="#999999" fill-rule="evenodd" fill-opacity="1" stroke="none"/>
<path clip-path="url(#clip703)" d="M1307.27 1856.91 L1287.27 1876.91 L1307.27 1896.91 L1327.27 1876.91 L1307.27 1856.91 Z" fill="#999999" fill-rule="evenodd" fill-opacity="1" stroke="none"/>
<path clip-path="url(#clip703)" d="M1461.07 1869.55 L1441.07 1889.55 L1461.07 1909.55 L1481.07 1889.55 L1461.07 1869.55 Z" fill="#999999" fill-rule="evenodd" fill-opacity="1" stroke="none"/>
<path clip-path="url(#clip703)" d="M1614.87 1885.32 L1594.87 1905.32 L1614.87 1925.32 L1634.87 1905.32 L1614.87 1885.32 Z" fill="#999999" fill-rule="evenodd" fill-opacity="1" stroke="none"/>
<path clip-path="url(#clip703)" d="M1768.67 1999.73 L1748.67 2019.73 L1768.67 2039.73 L1788.67 2019.73 L1768.67 1999.73 Z" fill="#999999" fill-rule="evenodd" fill-opacity="1" stroke="none"/>
<path clip-path="url(#clip703)" d="M1922.47 2060.32 L1902.47 2080.32 L1922.47 2100.32 L1942.47 2080.32 L1922.47 2060.32 Z" fill="#999999" fill-rule="evenodd" fill-opacity="1" stroke="none"/>
<path clip-path="url(#clip703)" d="M2076.27 2091.37 L2056.27 2111.37 L2076.27 2131.37 L2096.27 2111.37 L2076.27 2091.37 Z" fill="#999999" fill-rule="evenodd" fill-opacity="1" stroke="none"/>
<path clip-path="url(#clip703)" d="M2230.07 2109.98 L2210.07 2129.98 L2230.07 2149.98 L2250.07 2129.98 L2230.07 2109.98 Z" fill="#999999" fill-rule="evenodd" fill-opacity="1" stroke="none"/>
<path clip-path="url(#clip703)" d="M2383.87 2124.04 L2363.87 2144.04 L2383.87 2164.04 L2403.87 2144.04 L2383.87 2124.04 Z" fill="#999999" fill-rule="evenodd" fill-opacity="1" stroke="none"/>
<path clip-path="url(#clip703)" d="M2537.67 2134 L2517.67 2154 L2537.67 2174 L2557.67 2154 L2537.67 2134 Z" fill="#999999" fill-rule="evenodd" fill-opacity="1" stroke="none"/>
<path clip-path="url(#clip703)" d="M2691.47 2142.68 L2671.47 2162.68 L2691.47 2182.68 L2711.47 2162.68 L2691.47 2142.68 Z" fill="#999999" fill-rule="evenodd" fill-opacity="1" stroke="none"/>
<path clip-path="url(#clip703)" d="M2845.27 2149.71 L2825.27 2169.71 L2845.27 2189.71 L2865.27 2169.71 L2845.27 2149.71 Z" fill="#999999" fill-rule="evenodd" fill-opacity="1" stroke="none"/>
<path clip-path="url(#clip703)" d="M2999.07 2155.29 L2979.07 2175.29 L2999.07 2195.29 L3019.07 2175.29 L2999.07 2155.29 Z" fill="#999999" fill-rule="evenodd" fill-opacity="1" stroke="none"/>
<path clip-path="url(#clip703)" d="M3152.88 2160.18 L3132.88 2180.18 L3152.88 2200.18 L3172.88 2180.18 L3152.88 2160.18 Z" fill="#999999" fill-rule="evenodd" fill-opacity="1" stroke="none"/>
<path clip-path="url(#clip703)" d="M3306.68 2164.19 L3286.68 2184.19 L3306.68 2204.19 L3326.68 2184.19 L3306.68 2164.19 Z" fill="#999999" fill-rule="evenodd" fill-opacity="1" stroke="none"/>
<path clip-path="url(#clip703)" d="M3460.48 2167.79 L3440.48 2187.79 L3460.48 2207.79 L3480.48 2187.79 L3460.48 2167.79 Z" fill="#999999" fill-rule="evenodd" fill-opacity="1" stroke="none"/>
<path clip-path="url(#clip700)" d="M2998.87 1486.87 L3444.07 1486.87 L3444.07 1279.51 L2998.87 1279.51  Z" fill="#ffffff" fill-rule="evenodd" fill-opacity="1"/>
<polyline clip-path="url(#clip700)" style="stroke:#000000; stroke-linecap:round; stroke-linejoin:round; stroke-width:4; stroke-opacity:1; fill:none" points="2998.87,1486.87 3444.07,1486.87 3444.07,1279.51 2998.87,1279.51 2998.87,1486.87 "/>
<circle clip-path="url(#clip700)" cx="3143.78" cy="1331.35" r="23.04" fill="#e31a1c" fill-rule="evenodd" fill-opacity="1" stroke="none"/>
<path clip-path="url(#clip700)" d="M3288.7 1314.07 L3293.37 1314.07 L3293.37 1344.69 L3310.2 1344.69 L3310.2 1348.63 L3288.7 1348.63 L3288.7 1314.07 Z" fill="#000000" fill-rule="nonzero" fill-opacity="1" /><path clip-path="url(#clip700)" d="M3315.48 1327.1 L3345.16 1327.1 L3345.16 1330.99 L3315.48 1330.99 L3315.48 1327.1 M3315.48 1336.55 L3345.16 1336.55 L3345.16 1340.48 L3315.48 1340.48 L3315.48 1336.55 Z" fill="#000000" fill-rule="nonzero" fill-opacity="1" /><path clip-path="url(#clip700)" d="M3356.06 1344.69 L3363.7 1344.69 L3363.7 1318.33 L3355.39 1319.99 L3355.39 1315.74 L3363.65 1314.07 L3368.33 1314.07 L3368.33 1344.69 L3375.97 1344.69 L3375.97 1348.63 L3356.06 1348.63 L3356.06 1344.69 Z" fill="#000000" fill-rule="nonzero" fill-opacity="1" /><path clip-path="url(#clip700)" d="M3395.99 1329.49 Q3392.84 1329.49 3390.99 1331.64 Q3389.16 1333.79 3389.16 1337.54 Q3389.16 1341.27 3390.99 1343.44 Q3392.84 1345.6 3395.99 1345.6 Q3399.14 1345.6 3400.97 1343.44 Q3402.82 1341.27 3402.82 1337.54 Q3402.82 1333.79 3400.97 1331.64 Q3399.14 1329.49 3395.99 1329.49 M3405.27 1314.83 L3405.27 1319.09 Q3403.51 1318.26 3401.71 1317.82 Q3399.93 1317.38 3398.17 1317.38 Q3393.54 1317.38 3391.08 1320.5 Q3388.65 1323.63 3388.3 1329.95 Q3389.67 1327.93 3391.73 1326.87 Q3393.79 1325.78 3396.27 1325.78 Q3401.48 1325.78 3404.49 1328.95 Q3407.52 1332.1 3407.52 1337.54 Q3407.52 1342.86 3404.37 1346.08 Q3401.22 1349.3 3395.99 1349.3 Q3389.99 1349.3 3386.82 1344.72 Q3383.65 1340.11 3383.65 1331.38 Q3383.65 1323.19 3387.54 1318.33 Q3391.43 1313.44 3397.98 1313.44 Q3399.74 1313.44 3401.52 1313.79 Q3403.33 1314.14 3405.27 1314.83 Z" fill="#000000" fill-rule="nonzero" fill-opacity="1" /><path clip-path="url(#clip700)" d="M3118.18 1357.59 L3118.18 1408.79 L3169.38 1408.79 L3169.38 1357.59 L3118.18 1357.59 Z" fill="#ff7e00" fill-rule="evenodd" fill-opacity="1" stroke="none"/>
<path clip-path="url(#clip700)" d="M3288.7 1365.91 L3293.37 1365.91 L3293.37 1396.53 L3310.2 1396.53 L3310.2 1400.47 L3288.7 1400.47 L3288.7 1365.91 Z" fill="#000000" fill-rule="nonzero" fill-opacity="1" /><path clip-path="url(#clip700)" d="M3315.48 1378.94 L3345.16 1378.94 L3345.16 1382.83 L3315.48 1382.83 L3315.48 1378.94 M3315.48 1388.39 L3345.16 1388.39 L3345.16 1392.32 L3315.48 1392.32 L3315.48 1388.39 Z" fill="#000000" fill-rule="nonzero" fill-opacity="1" /><path clip-path="url(#clip700)" d="M3359.28 1396.53 L3375.6 1396.53 L3375.6 1400.47 L3353.65 1400.47 L3353.65 1396.53 Q3356.31 1393.78 3360.9 1389.15 Q3365.5 1384.5 3366.68 1383.15 Q3368.93 1380.63 3369.81 1378.89 Q3370.71 1377.14 3370.71 1375.45 Q3370.71 1372.69 3368.77 1370.95 Q3366.85 1369.22 3363.74 1369.22 Q3361.55 1369.22 3359.09 1369.98 Q3356.66 1370.75 3353.88 1372.3 L3353.88 1367.58 Q3356.71 1366.44 3359.16 1365.86 Q3361.62 1365.28 3363.65 1365.28 Q3369.02 1365.28 3372.22 1367.97 Q3375.41 1370.65 3375.41 1375.14 Q3375.41 1377.27 3374.6 1379.2 Q3373.81 1381.09 3371.71 1383.69 Q3371.13 1384.36 3368.03 1387.58 Q3364.93 1390.77 3359.28 1396.53 Z" fill="#000000" fill-rule="nonzero" fill-opacity="1" /><path clip-path="url(#clip700)" d="M3398.26 1369.98 L3386.45 1388.43 L3398.26 1388.43 L3398.26 1369.98 M3397.03 1365.91 L3402.91 1365.91 L3402.91 1388.43 L3407.84 1388.43 L3407.84 1392.32 L3402.91 1392.32 L3402.91 1400.47 L3398.26 1400.47 L3398.26 1392.32 L3382.66 1392.32 L3382.66 1387.81 L3397.03 1365.91 Z" fill="#000000" fill-rule="nonzero" fill-opacity="1" /><path clip-path="url(#clip700)" d="M3143.78 1409.43 L3118.18 1435.03 L3143.78 1460.63 L3169.38 1435.03 L3143.78 1409.43 Z" fill="#999999" fill-rule="evenodd" fill-opacity="1" stroke="none"/>
<path clip-path="url(#clip700)" d="M3288.7 1417.75 L3293.37 1417.75 L3293.37 1448.37 L3310.2 1448.37 L3310.2 1452.31 L3288.7 1452.31 L3288.7 1417.75 Z" fill="#000000" fill-rule="nonzero" fill-opacity="1" /><path clip-path="url(#clip700)" d="M3315.48 1430.78 L3345.16 1430.78 L3345.16 1434.67 L3315.48 1434.67 L3315.48 1430.78 M3315.48 1440.23 L3345.16 1440.23 L3345.16 1444.16 L3315.48 1444.16 L3315.48 1440.23 Z" fill="#000000" fill-rule="nonzero" fill-opacity="1" /><path clip-path="url(#clip700)" d="M3369.42 1433.67 Q3372.77 1434.39 3374.65 1436.66 Q3376.55 1438.93 3376.55 1442.26 Q3376.55 1447.38 3373.03 1450.18 Q3369.51 1452.98 3363.03 1452.98 Q3360.85 1452.98 3358.54 1452.54 Q3356.24 1452.12 3353.79 1451.27 L3353.79 1446.75 Q3355.74 1447.89 3358.05 1448.47 Q3360.37 1449.04 3362.89 1449.04 Q3367.29 1449.04 3369.58 1447.31 Q3371.89 1445.57 3371.89 1442.26 Q3371.89 1439.21 3369.74 1437.49 Q3367.61 1435.76 3363.79 1435.76 L3359.76 1435.76 L3359.76 1431.92 L3363.98 1431.92 Q3367.43 1431.92 3369.25 1430.55 Q3371.08 1429.16 3371.08 1426.57 Q3371.08 1423.91 3369.18 1422.49 Q3367.31 1421.06 3363.79 1421.06 Q3361.87 1421.06 3359.67 1421.48 Q3357.47 1421.89 3354.83 1422.77 L3354.83 1418.61 Q3357.49 1417.86 3359.81 1417.49 Q3362.15 1417.12 3364.21 1417.12 Q3369.53 1417.12 3372.63 1419.55 Q3375.74 1421.96 3375.74 1426.08 Q3375.74 1428.95 3374.09 1430.94 Q3372.45 1432.91 3369.42 1433.67 Z" fill="#000000" fill-rule="nonzero" fill-opacity="1" /><path clip-path="url(#clip700)" d="M3389.44 1448.37 L3405.76 1448.37 L3405.76 1452.31 L3383.81 1452.31 L3383.81 1448.37 Q3386.48 1445.62 3391.06 1440.99 Q3395.67 1436.34 3396.85 1434.99 Q3399.09 1432.47 3399.97 1430.73 Q3400.87 1428.98 3400.87 1427.29 Q3400.87 1424.53 3398.93 1422.79 Q3397.01 1421.06 3393.91 1421.06 Q3391.71 1421.06 3389.25 1421.82 Q3386.82 1422.59 3384.05 1424.14 L3384.05 1419.42 Q3386.87 1418.28 3389.32 1417.7 Q3391.78 1417.12 3393.81 1417.12 Q3399.18 1417.12 3402.38 1419.81 Q3405.57 1422.49 3405.57 1426.98 Q3405.57 1429.11 3404.76 1431.04 Q3403.98 1432.93 3401.87 1435.53 Q3401.29 1436.2 3398.19 1439.42 Q3395.09 1442.61 3389.44 1448.37 Z" fill="#000000" fill-rule="nonzero" fill-opacity="1" /></svg>
